{"glyphs":{"0":{"ha":882,"x_min":0,"x_max":0,"o":"m 793 75 l 793 225 l 851 225 l 851 942 l 736 1214 l 650 1214 l 618 1290 l 206 1290 l 206 1214 l 88 1214 l 88 1064 l 29 1064 l 29 342 l 151 75 l 231 75 l 269 0 l 675 0 l 675 75 z m 676 250 l 558 250 l 558 175 l 265 175 l 265 250 l 147 250 l 147 401 l 89 401 l 89 1004 l 147 1004 l 147 1156 l 265 1156 l 265 1231 l 558 1231 l 558 1156 l 676 1156 l 676 1004 l 736 1004 l 736 401 l 676 401 z m 558 326 l 558 401 l 617 401 l 617 853 l 558 853 l 558 778 l 500 778 l 500 703 l 442 703 l 442 628 l 382 628 l 382 553 l 324 553 l 324 478 l 265 478 l 265 326 z m 265 553 l 265 628 l 324 628 l 324 703 l 382 703 l 382 778 l 442 778 l 442 853 l 500 853 l 500 929 l 558 929 l 558 1079 l 265 1079 l 265 1004 l 207 1004 l 207 553 z "},"1":{"ha":706,"x_min":0,"x_max":0,"o":"m 675 0 l 675 263 l 618 385 l 499 385 l 499 1167 l 442 1290 l 206 1290 l 206 1214 l 147 1214 l 147 1139 l 29 1139 l 29 869 l 93 754 l 206 754 l 206 385 l 29 385 l 29 115 l 93 0 z m 558 175 l 89 175 l 89 326 l 265 326 l 265 929 l 89 929 l 89 1079 l 207 1079 l 207 1156 l 265 1156 l 265 1231 l 382 1231 l 382 326 l 558 326 z "},"2":{"ha":882,"x_min":0,"x_max":0,"o":"m 851 0 l 851 263 l 794 385 l 617 385 l 617 453 l 675 453 l 675 528 l 733 528 l 733 603 l 793 603 l 793 678 l 851 678 l 851 1017 l 676 1290 l 147 1290 l 147 1214 l 88 1214 l 88 1139 l 29 1139 l 29 793 l 93 678 l 264 678 l 264 613 l 206 613 l 206 538 l 147 538 l 147 461 l 88 461 l 88 385 l 29 385 l 29 115 l 93 0 z m 736 175 l 89 175 l 89 326 l 147 326 l 147 401 l 207 401 l 207 478 l 265 478 l 265 553 l 324 553 l 324 628 l 382 628 l 382 703 l 442 703 l 442 778 l 500 778 l 500 853 l 558 853 l 558 929 l 617 929 l 617 1004 l 558 1004 l 558 1079 l 265 1079 l 265 1004 l 207 1004 l 207 853 l 89 853 l 89 1079 l 147 1079 l 147 1156 l 207 1156 l 207 1231 l 617 1231 l 617 1156 l 676 1156 l 676 1079 l 736 1079 l 736 853 l 676 853 l 676 778 l 617 778 l 617 703 l 558 703 l 558 628 l 500 628 l 500 553 l 442 553 l 442 478 l 382 478 l 382 401 l 324 401 l 324 326 l 736 326 z "},"3":{"ha":882,"x_min":0,"x_max":0,"o":"m 733 0 l 733 75 l 793 75 l 793 150 l 851 150 l 851 489 l 794 603 l 851 603 l 851 1017 l 676 1290 l 147 1290 l 147 1214 l 88 1214 l 88 1139 l 29 1139 l 29 869 l 93 754 l 206 754 l 206 568 l 226 538 l 29 538 l 29 267 l 207 0 z m 617 175 l 203 175 l 203 250 l 147 250 l 147 326 l 89 326 l 89 478 l 207 478 l 207 401 l 265 401 l 265 326 l 558 326 l 558 401 l 617 401 l 617 553 l 558 553 l 558 628 l 265 628 l 265 778 l 558 778 l 558 853 l 617 853 l 617 1004 l 558 1004 l 558 1079 l 265 1079 l 265 1004 l 207 1004 l 207 929 l 89 929 l 89 1079 l 147 1079 l 147 1156 l 207 1156 l 207 1231 l 617 1231 l 617 1156 l 676 1156 l 676 1079 l 736 1079 l 736 778 l 676 778 l 676 703 l 617 703 l 617 628 l 676 628 l 676 553 l 736 553 l 736 326 l 676 326 l 676 250 l 617 250 z "},"4":{"ha":882,"x_min":0,"x_max":0,"o":"m 733 0 l 733 301 l 851 301 l 851 564 l 794 688 l 733 688 l 733 1167 l 676 1290 l 382 1290 l 382 1214 l 322 1214 l 322 1139 l 264 1139 l 264 1064 l 206 1064 l 206 989 l 147 989 l 147 913 l 88 913 l 88 838 l 29 838 l 29 418 l 93 301 l 440 301 l 440 115 l 504 0 z m 617 175 l 500 175 l 500 478 l 89 478 l 89 778 l 147 778 l 147 853 l 207 853 l 207 929 l 265 929 l 265 1004 l 324 1004 l 324 1079 l 382 1079 l 382 1156 l 442 1156 l 442 1231 l 617 1231 l 617 628 l 736 628 l 736 478 l 617 478 z m 500 628 l 500 1004 l 442 1004 l 442 929 l 382 929 l 382 853 l 324 853 l 324 778 l 265 778 l 265 703 l 207 703 l 207 628 z "},"5":{"ha":882,"x_min":0,"x_max":0,"o":"m 733 0 l 733 75 l 793 75 l 793 150 l 851 150 l 851 639 l 676 901 l 676 904 l 851 904 l 851 1167 l 794 1290 l 29 1290 l 29 718 l 144 538 l 29 538 l 29 267 l 211 0 z m 617 175 l 207 175 l 207 250 l 147 250 l 147 326 l 89 326 l 89 478 l 207 478 l 207 401 l 265 401 l 265 326 l 558 326 l 558 401 l 617 401 l 617 628 l 558 628 l 558 703 l 147 703 l 147 778 l 89 778 l 89 1231 l 736 1231 l 736 1079 l 207 1079 l 207 853 l 617 853 l 617 778 l 676 778 l 676 703 l 736 703 l 736 326 l 676 326 l 676 250 l 617 250 z "},"6":{"ha":882,"x_min":0,"x_max":0,"o":"m 733 0 l 733 75 l 793 75 l 793 150 l 851 150 l 851 564 l 676 838 l 558 838 l 558 904 l 733 904 l 733 1167 l 676 1290 l 322 1290 l 322 1214 l 264 1214 l 264 1139 l 206 1139 l 206 1064 l 147 1064 l 147 989 l 88 989 l 88 838 l 29 838 l 29 267 l 211 0 z m 617 175 l 207 175 l 207 250 l 147 250 l 147 326 l 89 326 l 89 778 l 147 778 l 147 929 l 207 929 l 207 1004 l 265 1004 l 265 1079 l 324 1079 l 324 1156 l 382 1156 l 382 1231 l 617 1231 l 617 1079 l 442 1079 l 442 1004 l 382 1004 l 382 929 l 324 929 l 324 853 l 265 853 l 265 778 l 617 778 l 617 703 l 676 703 l 676 628 l 736 628 l 736 326 l 676 326 l 676 250 l 617 250 z m 558 326 l 558 401 l 617 401 l 617 553 l 558 553 l 558 628 l 265 628 l 265 553 l 207 553 l 207 401 l 265 401 l 265 326 z "},"7":{"ha":882,"x_min":0,"x_max":0,"o":"m 499 0 l 499 150 l 558 150 l 558 301 l 617 301 l 617 453 l 675 453 l 675 603 l 733 603 l 733 754 l 793 754 l 793 904 l 851 904 l 851 1167 l 794 1290 l 29 1290 l 29 1019 l 93 904 l 440 904 l 440 838 l 382 838 l 382 688 l 322 688 l 322 538 l 264 538 l 264 385 l 206 385 l 206 115 l 269 0 z m 382 175 l 265 175 l 265 326 l 324 326 l 324 478 l 382 478 l 382 628 l 442 628 l 442 778 l 500 778 l 500 929 l 558 929 l 558 1079 l 89 1079 l 89 1231 l 736 1231 l 736 1079 l 676 1079 l 676 929 l 617 929 l 617 778 l 558 778 l 558 628 l 500 628 l 500 478 l 442 478 l 442 326 l 382 326 z "},"8":{"ha":882,"x_min":0,"x_max":0,"o":"m 733 0 l 733 75 l 793 75 l 793 150 l 851 150 l 851 564 l 793 676 l 793 1017 l 618 1290 l 206 1290 l 206 1214 l 147 1214 l 147 1139 l 88 1139 l 88 688 l 29 688 l 29 267 l 211 0 z m 617 175 l 207 175 l 207 250 l 147 250 l 147 326 l 89 326 l 89 628 l 147 628 l 147 703 l 207 703 l 207 778 l 147 778 l 147 1079 l 207 1079 l 207 1156 l 265 1156 l 265 1231 l 558 1231 l 558 1156 l 617 1156 l 617 1079 l 676 1079 l 676 778 l 617 778 l 617 703 l 676 703 l 676 628 l 736 628 l 736 326 l 676 326 l 676 250 l 617 250 z m 558 326 l 558 401 l 617 401 l 617 553 l 558 553 l 558 628 l 265 628 l 265 553 l 207 553 l 207 401 l 265 401 l 265 326 z m 500 778 l 500 853 l 558 853 l 558 1004 l 500 1004 l 500 1079 l 324 1079 l 324 1004 l 265 1004 l 265 853 l 324 853 l 324 778 z "},"9":{"ha":867,"x_min":0,"x_max":0,"o":"m 558 0 l 558 75 l 617 75 l 617 150 l 675 150 l 675 225 l 733 225 l 733 301 l 793 301 l 793 453 l 851 453 l 851 1017 l 676 1290 l 147 1290 l 147 1214 l 88 1214 l 88 1139 l 29 1139 l 29 718 l 211 453 l 322 453 l 322 385 l 147 385 l 147 115 l 211 0 z m 442 175 l 207 175 l 207 326 l 382 326 l 382 401 l 442 401 l 442 478 l 500 478 l 500 553 l 558 553 l 558 628 l 207 628 l 207 703 l 147 703 l 147 778 l 89 778 l 89 1079 l 147 1079 l 147 1156 l 207 1156 l 207 1231 l 617 1231 l 617 1156 l 676 1156 l 676 1079 l 736 1079 l 736 628 l 676 628 l 676 478 l 617 478 l 617 401 l 558 401 l 558 326 l 500 326 l 500 250 l 442 250 z m 558 778 l 558 853 l 617 853 l 617 1004 l 558 1004 l 558 1079 l 265 1079 l 265 1004 l 207 1004 l 207 853 l 265 853 l 265 778 z "},"\u0017":{"ha":351,"x_min":0,"x_max":0,"o":""}," ":{"ha":351,"x_min":0,"x_max":0,"o":""},"!":{"ha":469,"x_min":0,"x_max":0,"o":"m 381 0 l 381 528 l 439 528 l 439 1017 l 325 1290 l 88 1290 l 88 1139 l 29 1139 l 29 643 l 88 538 l 88 115 l 151 0 z m 265 478 l 147 478 l 147 703 l 89 703 l 89 1079 l 147 1079 l 147 1231 l 265 1231 l 265 1079 l 324 1079 l 324 703 l 265 703 z m 265 175 l 147 175 l 147 326 l 265 326 z "},"\"":{"ha":588,"x_min":0,"x_max":0,"o":"m 558 678 l 558 1167 l 501 1290 l 29 1290 l 29 793 l 93 678 l 322 678 l 322 688 l 328 678 z m 207 853 l 89 853 l 89 1231 l 207 1231 z m 442 853 l 324 853 l 324 1231 l 442 1231 z "},"#":{"ha":824,"x_min":0,"x_max":0,"o":"m 558 75 l 558 301 l 675 301 l 675 678 l 793 678 l 793 867 l 676 1214 l 206 1214 l 206 989 l 29 989 l 29 793 l 88 688 l 88 613 l -29 613 l -29 418 l 29 311 l 29 190 l 93 75 z m 442 250 l 324 250 l 324 478 l 207 478 l 207 250 l 89 250 l 89 478 l 31 478 l 31 553 l 147 553 l 147 703 l 207 703 l 207 853 l 89 853 l 89 929 l 265 929 l 265 1156 l 382 1156 l 382 929 l 500 929 l 500 1156 l 617 1156 l 617 929 l 676 929 l 676 853 l 558 853 l 558 703 l 500 703 l 500 553 l 558 553 l 558 478 l 442 478 z m 382 553 l 382 703 l 442 703 l 442 853 l 324 853 l 324 703 l 265 703 l 265 553 z "},"$":{"ha":706,"x_min":0,"x_max":0,"o":"m 499 0 l 499 150 l 617 150 l 617 225 l 675 225 l 675 639 l 618 754 l 675 754 l 675 942 l 442 1290 l 206 1290 l 206 1139 l 88 1139 l 88 1064 l 29 1064 l 29 643 l 89 538 l 29 538 l 29 342 l 269 0 z m 382 175 l 265 175 l 265 326 l 147 326 l 147 401 l 89 401 l 89 478 l 265 478 l 265 628 l 147 628 l 147 703 l 89 703 l 89 1004 l 147 1004 l 147 1079 l 265 1079 l 265 1231 l 382 1231 l 382 1079 l 500 1079 l 500 1004 l 558 1004 l 558 929 l 382 929 l 382 778 l 500 778 l 500 703 l 558 703 l 558 401 l 500 401 l 500 326 l 382 326 z m 442 478 l 442 628 l 382 628 l 382 478 z m 265 778 l 265 929 l 207 929 l 207 778 z "},"%":{"ha":824,"x_min":0,"x_max":0,"o":"m 793 0 l 793 338 l 736 461 l 675 461 l 675 528 l 733 528 l 733 603 l 793 603 l 793 678 l 851 678 l 851 1017 l 794 1139 l 617 1139 l 617 1064 l 558 1064 l 558 989 l 499 989 l 499 913 l 439 913 l 383 1064 l 88 1064 l 88 718 l 151 603 l 206 603 l 206 538 l 147 538 l 147 461 l 88 461 l 88 382 l 29 382 l 29 115 l 93 0 l 322 0 l 322 75 l 381 75 l 381 150 l 440 150 l 504 0 z m 207 175 l 89 175 l 89 322 l 147 322 l 147 401 l 207 401 l 207 478 l 265 478 l 265 553 l 324 553 l 324 628 l 382 628 l 382 703 l 442 703 l 442 778 l 500 778 l 500 853 l 558 853 l 558 929 l 617 929 l 617 1004 l 676 1004 l 676 1079 l 736 1079 l 736 853 l 676 853 l 676 778 l 617 778 l 617 703 l 558 703 l 558 628 l 500 628 l 500 553 l 442 553 l 442 478 l 382 478 l 382 401 l 324 401 l 324 326 l 265 326 l 265 250 l 207 250 z m 324 778 l 147 778 l 147 1004 l 324 1004 z m 676 175 l 500 175 l 500 401 l 676 401 z "},"&":{"ha":765,"x_min":0,"x_max":0,"o":"m 733 0 l 733 188 l 676 301 l 733 301 l 733 489 l 676 613 l 558 613 l 558 678 l 617 678 l 617 1017 l 501 1214 l 206 1214 l 206 1139 l 147 1139 l 147 1064 l 88 1064 l 88 688 l 29 688 l 29 190 l 150 0 z m 617 175 l 500 175 l 500 250 l 382 250 l 382 175 l 146 175 l 146 250 l 89 250 l 89 628 l 147 628 l 147 703 l 207 703 l 207 778 l 147 778 l 147 1004 l 207 1004 l 207 1079 l 265 1079 l 265 1156 l 442 1156 l 442 1079 l 500 1079 l 500 853 l 442 853 l 442 778 l 382 778 l 382 553 l 442 553 l 442 478 l 500 478 l 500 553 l 617 553 l 617 478 l 558 478 l 558 401 l 500 401 l 500 326 l 558 326 l 558 250 l 617 250 z m 324 250 l 324 326 l 382 326 l 382 401 l 324 401 l 324 553 l 207 553 l 207 326 l 265 326 l 265 250 z m 324 778 l 324 853 l 382 853 l 382 1079 l 324 1079 l 324 1004 l 265 1004 l 265 778 z "},"'":{"ha":353,"x_min":0,"x_max":0,"o":"m 322 678 l 322 1167 l 267 1290 l 29 1290 l 29 793 l 93 678 z m 207 853 l 89 853 l 89 1231 l 207 1231 z "},"(":{"ha":588,"x_min":0,"x_max":0,"o":"m 558 0 l 558 188 l 381 450 l 381 829 l 439 829 l 439 979 l 558 979 l 558 1167 l 501 1290 l 206 1290 l 206 1214 l 147 1214 l 147 1139 l 88 1139 l 88 989 l 29 989 l 29 418 l 269 0 z m 442 175 l 265 175 l 265 250 l 207 250 l 207 326 l 147 326 l 147 478 l 89 478 l 89 929 l 147 929 l 147 1079 l 207 1079 l 207 1156 l 265 1156 l 265 1231 l 442 1231 l 442 1156 l 324 1156 l 324 1004 l 265 1004 l 265 401 l 324 401 l 324 250 l 442 250 z "},")":{"ha":588,"x_min":0,"x_max":0,"o":"m 381 0 l 381 75 l 439 75 l 439 150 l 499 150 l 499 301 l 558 301 l 558 867 l 325 1290 l 29 1290 l 29 1096 l 206 839 l 206 461 l 147 461 l 147 310 l 29 310 l 29 115 l 93 0 z m 265 175 l 89 175 l 89 250 l 207 250 l 207 401 l 265 401 l 265 1004 l 207 1004 l 207 1156 l 89 1156 l 89 1231 l 265 1231 l 265 1156 l 324 1156 l 324 1079 l 382 1079 l 382 929 l 442 929 l 442 478 l 382 478 l 382 326 l 324 326 l 324 250 l 265 250 z "},"*":{"ha":706,"x_min":0,"x_max":0,"o":"m 675 150 l 675 942 l 618 1064 l 29 1064 l 29 267 l 93 150 z m 558 326 l 442 326 l 442 478 l 382 478 l 382 326 l 265 326 l 265 478 l 207 478 l 207 326 l 89 326 l 89 478 l 147 478 l 147 553 l 207 553 l 207 628 l 89 628 l 89 703 l 207 703 l 207 778 l 147 778 l 147 853 l 89 853 l 89 1004 l 207 1004 l 207 853 l 265 853 l 265 1004 l 382 1004 l 382 853 l 442 853 l 442 1004 l 558 1004 l 558 853 l 500 853 l 500 778 l 442 778 l 442 703 l 558 703 l 558 628 l 442 628 l 442 553 l 500 553 l 500 478 l 558 478 z "},"+":{"ha":706,"x_min":0,"x_max":0,"o":"m 499 150 l 499 376 l 675 376 l 675 639 l 618 763 l 499 763 l 499 867 l 442 989 l 206 989 l 206 763 l 29 763 l 29 493 l 93 376 l 206 376 l 206 267 l 269 150 z m 382 326 l 265 326 l 265 553 l 89 553 l 89 703 l 265 703 l 265 929 l 382 929 l 382 703 l 558 703 l 558 553 l 382 553 z "},",":{"ha":411,"x_min":0,"x_max":0,"o":"m 322 -150 l 322 -75 l 381 -75 l 381 338 l 325 461 l 29 461 l 29 -35 l 93 -150 z m 207 25 l 89 25 l 89 100 l 147 100 l 147 175 l 89 175 l 89 401 l 265 401 l 265 100 l 207 100 z "},"-":{"ha":706,"x_min":0,"x_max":0,"o":"m 675 376 l 675 639 l 618 763 l 29 763 l 29 493 l 93 376 z m 558 553 l 89 553 l 89 703 l 558 703 z "},".":{"ha":411,"x_min":0,"x_max":0,"o":"m 381 0 l 381 338 l 325 461 l 29 461 l 29 115 l 93 0 z m 265 175 l 89 175 l 89 401 l 265 401 z "},"/":{"ha":765,"x_min":0,"x_max":0,"o":"m 263 75 l 263 150 l 322 150 l 322 225 l 381 225 l 381 301 l 439 301 l 439 376 l 499 376 l 499 453 l 558 453 l 558 528 l 617 528 l 617 603 l 675 603 l 675 678 l 733 678 l 733 754 l 793 754 l 793 1092 l 736 1214 l 558 1214 l 558 1139 l 499 1139 l 499 1064 l 440 1064 l 440 989 l 382 989 l 382 913 l 322 913 l 322 838 l 264 838 l 264 763 l 206 763 l 206 688 l 147 688 l 147 613 l 88 613 l 88 538 l 29 538 l 29 457 l -29 457 l -29 190 l 33 75 z m 147 250 l 31 250 l 31 397 l 89 397 l 89 478 l 147 478 l 147 553 l 207 553 l 207 628 l 265 628 l 265 703 l 324 703 l 324 778 l 382 778 l 382 853 l 442 853 l 442 929 l 500 929 l 500 1004 l 558 1004 l 558 1079 l 617 1079 l 617 1156 l 676 1156 l 676 929 l 617 929 l 617 853 l 558 853 l 558 778 l 500 778 l 500 703 l 442 703 l 442 628 l 382 628 l 382 553 l 324 553 l 324 478 l 265 478 l 265 401 l 207 401 l 207 326 l 147 326 z "},":":{"ha":411,"x_min":0,"x_max":0,"o":"m 381 75 l 381 414 l 324 528 l 381 528 l 381 867 l 325 989 l 29 989 l 29 643 l 89 538 l 29 538 l 29 190 l 93 75 z m 265 250 l 89 250 l 89 478 l 265 478 z m 265 703 l 89 703 l 89 929 l 265 929 z "},";":{"ha":411,"x_min":0,"x_max":0,"o":"m 322 -150 l 322 -75 l 381 -75 l 381 414 l 325 525 l 381 528 l 381 867 l 325 989 l 29 989 l 29 643 l 89 538 l 29 538 l 29 -35 l 94 -150 z m 207 25 l 92 25 l 92 100 l 147 100 l 147 250 l 89 250 l 89 478 l 265 478 l 265 100 l 207 100 z m 265 703 l 89 703 l 89 929 l 265 929 z "},"<":{"ha":706,"x_min":0,"x_max":0,"o":"m 675 0 l 675 263 l 439 601 l 439 678 l 499 678 l 499 754 l 558 754 l 558 829 l 617 829 l 617 904 l 675 904 l 675 1167 l 618 1290 l 382 1290 l 382 1214 l 322 1214 l 322 1139 l 264 1139 l 264 1064 l 206 1064 l 206 989 l 147 989 l 147 913 l 88 913 l 88 838 l 29 838 l 29 568 l 446 0 z m 558 175 l 442 175 l 442 250 l 382 250 l 382 326 l 324 326 l 324 401 l 265 401 l 265 478 l 207 478 l 207 553 l 147 553 l 147 628 l 89 628 l 89 778 l 147 778 l 147 853 l 207 853 l 207 929 l 265 929 l 265 1004 l 324 1004 l 324 1079 l 382 1079 l 382 1156 l 442 1156 l 442 1231 l 558 1231 l 558 1079 l 500 1079 l 500 1004 l 442 1004 l 442 929 l 382 929 l 382 853 l 324 853 l 324 778 l 265 778 l 265 628 l 324 628 l 324 553 l 382 553 l 382 478 l 442 478 l 442 401 l 500 401 l 500 326 l 558 326 z "},"=":{"ha":765,"x_min":0,"x_max":0,"o":"m 733 225 l 733 790 l 676 913 l 29 913 l 29 342 l 93 225 z m 617 401 l 89 401 l 89 553 l 617 553 z m 617 703 l 89 703 l 89 853 l 617 853 z "},">":{"ha":706,"x_min":0,"x_max":0,"o":"m 322 0 l 322 75 l 381 75 l 381 150 l 439 150 l 439 225 l 499 225 l 499 301 l 558 301 l 558 376 l 617 376 l 617 453 l 675 453 l 675 715 l 267 1290 l 29 1290 l 29 1019 l 264 688 l 264 613 l 206 613 l 206 538 l 147 538 l 147 461 l 88 461 l 88 385 l 29 385 l 29 115 l 93 0 z m 207 175 l 89 175 l 89 326 l 147 326 l 147 401 l 207 401 l 207 478 l 265 478 l 265 553 l 324 553 l 324 628 l 382 628 l 382 778 l 324 778 l 324 853 l 265 853 l 265 929 l 207 929 l 207 1004 l 147 1004 l 147 1079 l 89 1079 l 89 1231 l 207 1231 l 207 1156 l 265 1156 l 265 1079 l 324 1079 l 324 1004 l 382 1004 l 382 929 l 442 929 l 442 853 l 500 853 l 500 778 l 558 778 l 558 628 l 500 628 l 500 553 l 442 553 l 442 478 l 382 478 l 382 401 l 324 401 l 324 326 l 265 326 l 265 250 l 207 250 z "},"?":{"ha":824,"x_min":0,"x_max":0,"o":"m 558 0 l 558 453 l 617 453 l 617 528 l 675 528 l 675 603 l 733 603 l 733 678 l 793 678 l 793 1017 l 618 1290 l 147 1290 l 147 1214 l 88 1214 l 88 1139 l 29 1139 l 29 793 l 93 678 l 264 678 l 264 115 l 328 0 z m 442 401 l 324 401 l 324 703 l 382 703 l 382 778 l 442 778 l 442 853 l 500 853 l 500 929 l 558 929 l 558 1004 l 500 1004 l 500 1079 l 265 1079 l 265 1004 l 207 1004 l 207 853 l 89 853 l 89 1079 l 147 1079 l 147 1156 l 207 1156 l 207 1231 l 558 1231 l 558 1156 l 617 1156 l 617 1079 l 676 1079 l 676 853 l 617 853 l 617 778 l 558 778 l 558 703 l 500 703 l 500 628 l 442 628 z m 442 175 l 324 175 l 324 326 l 442 326 z "},"@":{"ha":882,"x_min":0,"x_max":0,"o":"m 733 0 l 733 301 l 793 301 l 793 376 l 851 376 l 851 942 l 676 1290 l 147 1290 l 147 1214 l 88 1214 l 88 1064 l 29 1064 l 29 267 l 151 75 l 231 75 l 269 0 z m 617 175 l 265 175 l 265 250 l 147 250 l 147 326 l 89 326 l 89 1004 l 147 1004 l 147 1156 l 207 1156 l 207 1231 l 617 1231 l 617 1156 l 676 1156 l 676 1004 l 736 1004 l 736 553 l 676 553 l 676 478 l 617 478 l 617 401 l 324 401 l 324 478 l 265 478 l 265 929 l 324 929 l 324 1004 l 557 1004 l 557 1079 l 265 1079 l 265 1004 l 207 1004 l 207 401 l 265 401 l 265 326 l 617 326 z m 617 553 l 617 1003 l 558 1003 l 558 553 z m 442 553 l 442 853 l 382 853 l 382 553 z "},"A":{"ha":824,"x_min":0,"x_max":0,"o":"m 793 0 l 793 338 l 501 1290 l 264 1290 l 264 1139 l 206 1139 l 206 913 l 147 913 l 147 688 l 88 688 l 88 461 l 29 461 l 29 115 l 93 0 l 322 0 l 322 225 l 499 225 l 499 115 l 563 0 z m 676 175 l 558 175 l 558 401 l 207 401 l 207 175 l 89 175 l 89 401 l 147 401 l 147 628 l 207 628 l 207 853 l 265 853 l 265 1079 l 324 1079 l 324 1231 l 442 1231 l 442 1079 l 500 1079 l 500 853 l 558 853 l 558 628 l 617 628 l 617 401 l 676 401 z m 500 553 l 500 628 l 442 628 l 442 853 l 324 853 l 324 628 l 265 628 l 265 553 z "},"B":{"ha":824,"x_min":0,"x_max":0,"o":"m 675 0 l 675 75 l 733 75 l 733 150 l 793 150 l 793 564 l 733 676 l 733 1017 l 560 1290 l 29 1290 l 29 115 l 93 0 z m 558 175 l 89 175 l 89 1231 l 500 1231 l 500 1156 l 558 1156 l 558 1079 l 617 1079 l 617 778 l 558 778 l 558 703 l 617 703 l 617 628 l 676 628 l 676 326 l 617 326 l 617 250 l 558 250 z m 500 326 l 500 401 l 558 401 l 558 553 l 500 553 l 500 628 l 207 628 l 207 326 z m 442 778 l 442 853 l 500 853 l 500 1004 l 442 1004 l 442 1079 l 207 1079 l 207 778 z "},"C":{"ha":824,"x_min":0,"x_max":0,"o":"m 675 0 l 675 75 l 733 75 l 733 150 l 793 150 l 793 414 l 736 538 l 499 538 l 499 461 l 440 461 l 440 385 l 414 385 l 322 526 l 322 754 l 381 754 l 381 829 l 439 829 l 439 904 l 465 904 l 563 754 l 793 754 l 793 1017 l 618 1290 l 206 1290 l 206 1214 l 147 1214 l 147 1139 l 88 1139 l 88 989 l 29 989 l 29 418 l 269 0 z m 558 175 l 265 175 l 265 250 l 207 250 l 207 326 l 147 326 l 147 478 l 89 478 l 89 929 l 147 929 l 147 1079 l 207 1079 l 207 1156 l 265 1156 l 265 1231 l 558 1231 l 558 1156 l 617 1156 l 617 1079 l 676 1079 l 676 929 l 558 929 l 558 1004 l 500 1004 l 500 1079 l 324 1079 l 324 1004 l 265 1004 l 265 929 l 207 929 l 207 478 l 265 478 l 265 401 l 324 401 l 324 326 l 500 326 l 500 401 l 558 401 l 558 478 l 676 478 l 676 326 l 617 326 l 617 250 l 558 250 z "},"D":{"ha":824,"x_min":0,"x_max":0,"o":"m 617 0 l 617 75 l 675 75 l 675 150 l 733 150 l 733 301 l 793 301 l 793 867 l 560 1290 l 29 1290 l 29 115 l 93 0 z m 500 175 l 89 175 l 89 1231 l 500 1231 l 500 1156 l 558 1156 l 558 1079 l 617 1079 l 617 929 l 676 929 l 676 478 l 617 478 l 617 326 l 558 326 l 558 250 l 500 250 z m 442 326 l 442 401 l 500 401 l 500 478 l 558 478 l 558 929 l 500 929 l 500 1004 l 442 1004 l 442 1079 l 207 1079 l 207 326 z "},"E":{"ha":824,"x_min":0,"x_max":0,"o":"m 793 0 l 793 263 l 736 385 l 322 385 l 322 453 l 675 453 l 675 715 l 618 838 l 322 838 l 322 904 l 793 904 l 793 1167 l 736 1290 l 29 1290 l 29 115 l 93 0 z m 676 175 l 89 175 l 89 1231 l 676 1231 l 676 1079 l 207 1079 l 207 778 l 558 778 l 558 628 l 207 628 l 207 326 l 676 326 z "},"F":{"ha":765,"x_min":0,"x_max":0,"o":"m 322 0 l 322 453 l 675 453 l 675 715 l 618 838 l 322 838 l 322 904 l 793 904 l 793 1167 l 736 1290 l 29 1290 l 29 115 l 93 0 z m 207 175 l 89 175 l 89 1231 l 676 1231 l 676 1079 l 207 1079 l 207 778 l 558 778 l 558 628 l 207 628 z "},"G":{"ha":824,"x_min":0,"x_max":0,"o":"m 793 0 l 793 715 l 736 826 l 736 829 l 793 829 l 793 1092 l 676 1290 l 206 1290 l 206 1214 l 147 1214 l 147 1139 l 88 1139 l 88 989 l 29 989 l 29 418 l 269 0 z m 676 175 l 265 175 l 265 250 l 207 250 l 207 326 l 147 326 l 147 478 l 89 478 l 89 929 l 147 929 l 147 1079 l 207 1079 l 207 1156 l 265 1156 l 265 1231 l 617 1231 l 617 1156 l 676 1156 l 676 1004 l 558 1004 l 558 1079 l 324 1079 l 324 1004 l 265 1004 l 265 929 l 207 929 l 207 478 l 265 478 l 265 401 l 324 401 l 324 326 l 558 326 l 558 628 l 382 628 l 382 778 l 676 778 z "},"H":{"ha":824,"x_min":0,"x_max":0,"o":"m 793 0 l 793 1167 l 736 1290 l 499 1290 l 499 838 l 322 838 l 322 1167 l 267 1290 l 29 1290 l 29 115 l 93 0 l 322 0 l 322 453 l 499 453 l 499 115 l 563 0 z m 676 175 l 558 175 l 558 628 l 207 628 l 207 175 l 89 175 l 89 1231 l 207 1231 l 207 778 l 558 778 l 558 1231 l 676 1231 z "},"I":{"ha":588,"x_min":0,"x_max":0,"o":"m 558 0 l 558 263 l 501 385 l 439 385 l 439 904 l 558 904 l 558 1167 l 501 1290 l 29 1290 l 29 1019 l 93 904 l 147 904 l 147 385 l 29 385 l 29 115 l 93 0 z m 442 175 l 89 175 l 89 326 l 207 326 l 207 1079 l 89 1079 l 89 1231 l 442 1231 l 442 1079 l 324 1079 l 324 326 l 442 326 z "},"J":{"ha":765,"x_min":0,"x_max":0,"o":"m 617 0 l 617 75 l 675 75 l 675 225 l 733 225 l 733 1167 l 676 1290 l 440 1290 l 440 461 l 382 461 l 382 385 l 297 385 l 207 607 l -29 607 l -29 267 l 151 0 z m 500 175 l 147 175 l 147 250 l 89 250 l 89 326 l 31 326 l 31 547 l 147 547 l 147 401 l 207 401 l 207 326 l 442 326 l 442 401 l 500 401 l 500 1231 l 617 1231 l 617 401 l 558 401 l 558 250 l 500 250 z "},"K":{"ha":824,"x_min":0,"x_max":0,"o":"m 793 0 l 793 263 l 558 601 l 558 678 l 617 678 l 617 754 l 675 754 l 675 829 l 733 829 l 733 904 l 793 904 l 793 1167 l 736 1290 l 499 1290 l 499 1214 l 440 1214 l 440 1139 l 382 1139 l 382 1064 l 322 1064 l 322 1167 l 267 1290 l 29 1290 l 29 115 l 93 0 l 322 0 l 322 311 l 563 0 z m 676 175 l 558 175 l 558 250 l 500 250 l 500 326 l 442 326 l 442 401 l 382 401 l 382 478 l 324 478 l 324 553 l 265 553 l 265 628 l 207 628 l 207 175 l 89 175 l 89 1231 l 207 1231 l 207 778 l 265 778 l 265 853 l 324 853 l 324 929 l 382 929 l 382 1004 l 442 1004 l 442 1079 l 500 1079 l 500 1156 l 558 1156 l 558 1231 l 676 1231 l 676 1079 l 617 1079 l 617 1004 l 558 1004 l 558 929 l 500 929 l 500 853 l 442 853 l 442 778 l 382 778 l 382 628 l 442 628 l 442 553 l 500 553 l 500 478 l 558 478 l 558 401 l 617 401 l 617 326 l 676 326 z "},"L":{"ha":765,"x_min":0,"x_max":0,"o":"m 793 0 l 793 263 l 736 385 l 322 385 l 322 1167 l 267 1290 l 29 1290 l 29 115 l 93 0 z m 676 175 l 89 175 l 89 1231 l 207 1231 l 207 326 l 676 326 z "},"M":{"ha":824,"x_min":0,"x_max":0,"o":"m 793 0 l 793 1167 l 736 1290 l 499 1290 l 499 1214 l 440 1214 l 440 1064 l 381 1064 l 267 1290 l 29 1290 l 29 115 l 93 0 l 322 0 l 322 376 l 499 376 l 499 115 l 563 0 z m 676 175 l 558 175 l 558 853 l 500 853 l 500 703 l 442 703 l 442 553 l 324 553 l 324 703 l 265 703 l 265 853 l 207 853 l 207 175 l 89 175 l 89 1231 l 207 1231 l 207 1156 l 265 1156 l 265 1004 l 324 1004 l 324 853 l 442 853 l 442 1004 l 500 1004 l 500 1156 l 558 1156 l 558 1231 l 676 1231 z "},"N":{"ha":824,"x_min":0,"x_max":0,"o":"m 793 0 l 793 1167 l 736 1290 l 499 1290 l 499 867 l 267 1290 l 29 1290 l 29 115 l 93 0 l 322 0 l 322 418 l 328 418 l 563 0 z m 676 175 l 558 175 l 558 250 l 500 250 l 500 401 l 442 401 l 442 478 l 382 478 l 382 628 l 324 628 l 324 778 l 265 778 l 265 929 l 207 929 l 207 175 l 89 175 l 89 1231 l 207 1231 l 207 1156 l 265 1156 l 265 1004 l 324 1004 l 324 929 l 382 929 l 382 778 l 442 778 l 442 628 l 500 628 l 500 478 l 558 478 l 558 1231 l 676 1231 z "},"O":{"ha":824,"x_min":0,"x_max":0,"o":"m 617 0 l 617 75 l 675 75 l 675 150 l 733 150 l 733 301 l 793 301 l 793 867 l 560 1290 l 206 1290 l 206 1214 l 147 1214 l 147 1139 l 88 1139 l 88 989 l 29 989 l 29 418 l 269 0 z m 500 175 l 265 175 l 265 250 l 207 250 l 207 326 l 147 326 l 147 478 l 89 478 l 89 929 l 147 929 l 147 1079 l 207 1079 l 207 1156 l 265 1156 l 265 1231 l 500 1231 l 500 1156 l 558 1156 l 558 1079 l 617 1079 l 617 929 l 676 929 l 676 478 l 617 478 l 617 326 l 558 326 l 558 250 l 500 250 z m 442 326 l 442 401 l 500 401 l 500 478 l 558 478 l 558 929 l 500 929 l 500 1004 l 442 1004 l 442 1079 l 324 1079 l 324 1004 l 265 1004 l 265 929 l 207 929 l 207 478 l 265 478 l 265 401 l 324 401 l 324 326 z "},"P":{"ha":824,"x_min":0,"x_max":0,"o":"m 322 0 l 322 376 l 675 376 l 675 453 l 733 453 l 733 528 l 793 528 l 793 1017 l 618 1290 l 29 1290 l 29 115 l 93 0 z m 207 175 l 89 175 l 89 1231 l 558 1231 l 558 1156 l 617 1156 l 617 1079 l 676 1079 l 676 703 l 617 703 l 617 628 l 558 628 l 558 553 l 207 553 z m 500 703 l 500 778 l 558 778 l 558 1004 l 500 1004 l 500 1079 l 207 1079 l 207 703 z "},"Q":{"ha":824,"x_min":0,"x_max":0,"o":"m 793 0 l 793 867 l 560 1290 l 206 1290 l 206 1214 l 147 1214 l 147 1139 l 88 1139 l 88 989 l 29 989 l 29 418 l 269 0 z m 676 175 l 558 175 l 558 250 l 500 250 l 500 175 l 265 175 l 265 250 l 207 250 l 207 326 l 147 326 l 147 478 l 89 478 l 89 929 l 147 929 l 147 1079 l 207 1079 l 207 1156 l 265 1156 l 265 1231 l 500 1231 l 500 1156 l 558 1156 l 558 1079 l 617 1079 l 617 929 l 676 929 l 676 478 l 617 478 l 617 326 l 676 326 z m 442 326 l 442 401 l 382 401 l 382 553 l 500 553 l 500 478 l 558 478 l 558 929 l 500 929 l 500 1004 l 442 1004 l 442 1079 l 324 1079 l 324 1004 l 265 1004 l 265 929 l 207 929 l 207 478 l 265 478 l 265 401 l 324 401 l 324 326 z "},"R":{"ha":824,"x_min":0,"x_max":0,"o":"m 793 0 l 793 263 l 676 453 l 733 453 l 733 528 l 793 528 l 793 1017 l 618 1290 l 29 1290 l 29 115 l 93 0 l 322 0 l 322 311 l 563 0 z m 676 175 l 558 175 l 558 250 l 500 250 l 500 326 l 442 326 l 442 401 l 382 401 l 382 478 l 324 478 l 324 553 l 207 553 l 207 175 l 89 175 l 89 1231 l 558 1231 l 558 1156 l 617 1156 l 617 1079 l 676 1079 l 676 703 l 617 703 l 617 628 l 558 628 l 558 553 l 500 553 l 500 478 l 558 478 l 558 401 l 617 401 l 617 326 l 676 326 z m 500 703 l 500 778 l 558 778 l 558 1004 l 500 1004 l 500 1079 l 207 1079 l 207 703 z "},"S":{"ha":824,"x_min":0,"x_max":0,"o":"m 675 0 l 675 75 l 733 75 l 733 150 l 793 150 l 793 564 l 676 754 l 793 754 l 793 1017 l 618 1290 l 147 1290 l 147 1214 l 88 1214 l 88 1139 l 29 1139 l 29 718 l 144 538 l 29 538 l 29 267 l 211 0 z m 558 175 l 207 175 l 207 250 l 147 250 l 147 326 l 89 326 l 89 478 l 207 478 l 207 401 l 265 401 l 265 326 l 500 326 l 500 401 l 558 401 l 558 553 l 500 553 l 500 628 l 207 628 l 207 703 l 147 703 l 147 778 l 89 778 l 89 1079 l 147 1079 l 147 1156 l 207 1156 l 207 1231 l 558 1231 l 558 1156 l 617 1156 l 617 1079 l 676 1079 l 676 929 l 558 929 l 558 1004 l 500 1004 l 500 1079 l 265 1079 l 265 1004 l 207 1004 l 207 853 l 265 853 l 265 778 l 558 778 l 558 703 l 617 703 l 617 628 l 676 628 l 676 326 l 617 326 l 617 250 l 558 250 z "},"T":{"ha":706,"x_min":0,"x_max":0,"o":"m 499 0 l 499 904 l 675 904 l 675 1167 l 618 1290 l 29 1290 l 29 1019 l 93 904 l 206 904 l 206 115 l 269 0 z m 382 175 l 265 175 l 265 1079 l 89 1079 l 89 1231 l 558 1231 l 558 1079 l 382 1079 z "},"U":{"ha":824,"x_min":0,"x_max":0,"o":"m 675 0 l 675 75 l 733 75 l 733 225 l 793 225 l 793 1167 l 736 1290 l 499 1290 l 499 461 l 440 461 l 440 385 l 356 385 l 322 450 l 322 1167 l 267 1290 l 29 1290 l 29 342 l 211 0 z m 558 175 l 207 175 l 207 250 l 147 250 l 147 401 l 89 401 l 89 1231 l 207 1231 l 207 401 l 265 401 l 265 326 l 500 326 l 500 401 l 558 401 l 558 1231 l 676 1231 l 676 401 l 617 401 l 617 250 l 558 250 z "},"V":{"ha":824,"x_min":0,"x_max":0,"o":"m 558 0 l 558 150 l 617 150 l 617 376 l 675 376 l 675 603 l 733 603 l 733 829 l 793 829 l 793 1167 l 736 1290 l 499 1290 l 499 1064 l 440 1064 l 440 838 l 381 838 l 267 1290 l 29 1290 l 29 967 l 299 0 z m 442 175 l 324 175 l 324 326 l 265 326 l 265 553 l 207 553 l 207 778 l 147 778 l 147 1004 l 89 1004 l 89 1231 l 207 1231 l 207 1004 l 265 1004 l 265 778 l 324 778 l 324 553 l 442 553 l 442 778 l 500 778 l 500 1004 l 558 1004 l 558 1231 l 676 1231 l 676 1004 l 617 1004 l 617 778 l 558 778 l 558 553 l 500 553 l 500 326 l 442 326 z "},"W":{"ha":824,"x_min":0,"x_max":0,"o":"m 793 0 l 793 1167 l 736 1290 l 499 1290 l 499 763 l 322 763 l 322 1167 l 267 1290 l 29 1290 l 29 115 l 93 0 l 322 0 l 322 75 l 381 75 l 381 225 l 442 225 l 442 190 l 565 0 z m 676 175 l 561 175 l 561 250 l 501 250 l 501 401 l 442 401 l 442 478 l 324 478 l 324 401 l 265 401 l 265 250 l 207 250 l 207 175 l 89 175 l 89 1231 l 207 1231 l 207 478 l 265 478 l 265 553 l 324 553 l 324 703 l 442 703 l 442 553 l 500 553 l 500 478 l 558 478 l 558 1231 l 676 1231 z "},"X":{"ha":824,"x_min":0,"x_max":0,"o":"m 793 0 l 793 263 l 617 601 l 617 678 l 675 678 l 675 754 l 733 754 l 733 904 l 793 904 l 793 1167 l 736 1290 l 499 1290 l 499 1139 l 440 1139 l 440 989 l 381 989 l 267 1290 l 29 1290 l 29 1019 l 206 688 l 206 613 l 147 613 l 147 538 l 88 538 l 88 385 l 29 385 l 29 115 l 93 0 l 322 0 l 322 150 l 381 150 l 381 301 l 440 301 l 563 0 z m 676 175 l 558 175 l 558 326 l 500 326 l 500 478 l 442 478 l 442 553 l 324 553 l 324 478 l 265 478 l 265 326 l 207 326 l 207 175 l 89 175 l 89 326 l 147 326 l 147 478 l 207 478 l 207 553 l 265 553 l 265 628 l 324 628 l 324 778 l 265 778 l 265 853 l 207 853 l 207 929 l 147 929 l 147 1079 l 89 1079 l 89 1231 l 207 1231 l 207 1079 l 265 1079 l 265 929 l 324 929 l 324 853 l 442 853 l 442 929 l 500 929 l 500 1079 l 558 1079 l 558 1231 l 676 1231 l 676 1079 l 617 1079 l 617 929 l 558 929 l 558 853 l 500 853 l 500 778 l 442 778 l 442 628 l 500 628 l 500 553 l 558 553 l 558 478 l 617 478 l 617 326 l 676 326 z "},"Y":{"ha":824,"x_min":0,"x_max":0,"o":"m 558 0 l 558 453 l 617 453 l 617 603 l 675 603 l 675 754 l 733 754 l 733 904 l 793 904 l 793 1167 l 736 1290 l 499 1290 l 499 1139 l 440 1139 l 440 989 l 381 989 l 267 1290 l 29 1290 l 29 1019 l 264 461 l 264 115 l 328 0 z m 442 175 l 324 175 l 324 628 l 265 628 l 265 778 l 207 778 l 207 929 l 147 929 l 147 1079 l 89 1079 l 89 1231 l 207 1231 l 207 1079 l 265 1079 l 265 929 l 324 929 l 324 778 l 442 778 l 442 929 l 500 929 l 500 1079 l 558 1079 l 558 1231 l 676 1231 l 676 1079 l 617 1079 l 617 929 l 558 929 l 558 778 l 500 778 l 500 628 l 442 628 z "},"Z":{"ha":824,"x_min":0,"x_max":0,"o":"m 793 0 l 793 263 l 736 385 l 497 385 l 497 453 l 558 453 l 558 603 l 617 603 l 617 678 l 675 678 l 675 754 l 733 754 l 733 904 l 793 904 l 793 1167 l 736 1290 l 29 1290 l 29 1019 l 93 904 l 322 904 l 322 838 l 264 838 l 264 688 l 206 688 l 206 613 l 147 613 l 147 538 l 88 538 l 88 385 l 29 385 l 29 115 l 93 0 z m 676 175 l 89 175 l 89 326 l 147 326 l 147 478 l 207 478 l 207 553 l 265 553 l 265 628 l 324 628 l 324 778 l 382 778 l 382 853 l 442 853 l 442 929 l 500 929 l 500 1079 l 89 1079 l 89 1231 l 676 1231 l 676 1079 l 617 1079 l 617 929 l 558 929 l 558 853 l 500 853 l 500 778 l 442 778 l 442 628 l 381 628 l 381 553 l 324 553 l 324 478 l 265 478 l 265 326 l 676 326 z "},"[":{"ha":588,"x_min":0,"x_max":0,"o":"m 558 0 l 558 263 l 501 385 l 322 385 l 322 904 l 558 904 l 558 1167 l 501 1290 l 29 1290 l 29 115 l 93 0 z m 442 175 l 89 175 l 89 1231 l 442 1231 l 442 1079 l 207 1079 l 207 326 l 442 326 z "},"\\":{"ha":765,"x_min":0,"x_max":0,"o":"m 793 75 l 793 338 l 149 1214 l -29 1214 l -29 869 l 563 75 z m 676 250 l 558 250 l 558 326 l 500 326 l 500 401 l 442 401 l 442 478 l 382 478 l 382 553 l 324 553 l 324 628 l 265 628 l 265 703 l 207 703 l 207 778 l 147 778 l 147 853 l 89 853 l 89 929 l 31 929 l 31 1156 l 89 1156 l 89 1079 l 147 1079 l 147 1004 l 207 1004 l 207 929 l 265 929 l 265 853 l 324 853 l 324 778 l 382 778 l 382 703 l 442 703 l 442 628 l 500 628 l 500 553 l 558 553 l 558 478 l 617 478 l 617 401 l 676 401 z "},"]":{"ha":588,"x_min":0,"x_max":0,"o":"m 558 0 l 558 1167 l 501 1290 l 29 1290 l 29 1019 l 93 904 l 264 904 l 264 385 l 29 385 l 29 115 l 93 0 z m 442 175 l 89 175 l 89 326 l 324 326 l 324 1079 l 89 1079 l 89 1231 l 442 1231 z "},"^":{"ha":882,"x_min":0,"x_max":0,"o":"m 851 528 l 851 790 l 501 1290 l 322 1290 l 322 1214 l 264 1214 l 264 1139 l 206 1139 l 206 1064 l 147 1064 l 147 989 l 88 989 l 88 913 l 29 913 l 29 643 l 93 528 l 322 528 l 322 603 l 381 603 l 381 678 l 439 678 l 439 754 l 465 754 l 621 528 z m 736 703 l 617 703 l 617 778 l 558 778 l 558 853 l 500 853 l 500 929 l 442 929 l 442 1004 l 382 1004 l 382 929 l 324 929 l 324 853 l 265 853 l 265 778 l 207 778 l 207 703 l 89 703 l 89 853 l 147 853 l 147 929 l 207 929 l 207 1004 l 265 1004 l 265 1079 l 324 1079 l 324 1156 l 382 1156 l 382 1231 l 442 1231 l 442 1156 l 500 1156 l 500 1079 l 558 1079 l 558 1004 l 617 1004 l 617 929 l 676 929 l 676 853 l 736 853 z "},"_":{"ha":882,"x_min":0,"x_max":0,"o":"m 851 -150 l 851 113 l 794 235 l 29 235 l 29 -35 l 93 -150 z m 736 25 l 89 25 l 89 175 l 736 175 z "},"`":{"ha":529,"x_min":0,"x_max":0,"o":"m 499 754 l 499 942 l 325 1214 l 29 1214 l 29 1019 l 211 754 z m 382 929 l 207 929 l 207 1004 l 147 1004 l 147 1079 l 89 1079 l 89 1156 l 265 1156 l 265 1079 l 324 1079 l 324 1004 l 382 1004 z "},"a":{"ha":824,"x_min":0,"x_max":0,"o":"m 793 0 l 793 715 l 676 913 l 147 913 l 147 838 l 88 838 l 88 538 l 29 538 l 29 190 l 151 0 z m 676 175 l 147 175 l 147 250 l 89 250 l 89 478 l 147 478 l 147 553 l 207 553 l 207 628 l 558 628 l 558 703 l 147 703 l 147 778 l 207 778 l 207 853 l 617 853 l 617 778 l 676 778 z m 558 326 l 558 478 l 207 478 l 207 326 z "},"b":{"ha":824,"x_min":0,"x_max":0,"o":"m 675 0 l 675 75 l 733 75 l 733 150 l 793 150 l 793 639 l 618 913 l 322 913 l 322 1167 l 267 1290 l 29 1290 l 29 115 l 93 0 z m 558 175 l 89 175 l 89 1231 l 207 1231 l 207 778 l 265 778 l 265 853 l 558 853 l 558 778 l 617 778 l 617 703 l 676 703 l 676 326 l 617 326 l 617 250 l 558 250 z m 500 326 l 500 401 l 558 401 l 558 628 l 500 628 l 500 703 l 265 703 l 265 628 l 207 628 l 207 326 z "},"c":{"ha":824,"x_min":0,"x_max":0,"o":"m 675 0 l 675 75 l 733 75 l 733 150 l 793 150 l 793 338 l 736 453 l 793 453 l 793 639 l 618 913 l 147 913 l 147 838 l 88 838 l 88 763 l 29 763 l 29 267 l 211 0 z m 558 175 l 207 175 l 207 250 l 147 250 l 147 326 l 89 326 l 89 703 l 147 703 l 147 778 l 207 778 l 207 853 l 558 853 l 558 778 l 617 778 l 617 703 l 676 703 l 676 628 l 558 628 l 558 703 l 265 703 l 265 628 l 207 628 l 207 401 l 265 401 l 265 326 l 558 326 l 558 401 l 676 401 l 676 326 l 617 326 l 617 250 l 558 250 z "},"d":{"ha":824,"x_min":0,"x_max":0,"o":"m 793 0 l 793 1167 l 736 1290 l 499 1290 l 499 913 l 147 913 l 147 838 l 88 838 l 88 763 l 29 763 l 29 267 l 211 0 z m 676 175 l 207 175 l 207 250 l 147 250 l 147 326 l 89 326 l 89 703 l 147 703 l 147 778 l 207 778 l 207 853 l 500 853 l 500 778 l 558 778 l 558 1231 l 676 1231 z m 558 326 l 558 628 l 442 628 l 442 703 l 265 703 l 265 628 l 207 628 l 207 401 l 265 401 l 265 326 z "},"e":{"ha":824,"x_min":0,"x_max":0,"o":"m 675 0 l 675 75 l 733 75 l 733 376 l 793 376 l 793 639 l 618 913 l 147 913 l 147 838 l 88 838 l 88 763 l 29 763 l 29 267 l 211 0 z m 558 175 l 207 175 l 207 250 l 147 250 l 147 326 l 89 326 l 89 703 l 147 703 l 147 778 l 207 778 l 207 853 l 558 853 l 558 778 l 617 778 l 617 703 l 676 703 l 676 553 l 617 553 l 617 478 l 207 478 l 207 401 l 265 401 l 265 326 l 617 326 l 617 250 l 558 250 z m 558 628 l 558 703 l 265 703 l 265 628 z "},"f":{"ha":647,"x_min":0,"x_max":0,"o":"m 439 0 l 439 528 l 617 528 l 617 790 l 560 904 l 675 904 l 675 1167 l 618 1290 l 264 1290 l 264 1214 l 206 1214 l 206 1139 l 147 1139 l 147 913 l 29 913 l 29 643 l 93 528 l 147 528 l 147 115 l 211 0 z m 324 175 l 207 175 l 207 703 l 89 703 l 89 853 l 207 853 l 207 1079 l 265 1079 l 265 1156 l 324 1156 l 324 1231 l 558 1231 l 558 1079 l 382 1079 l 382 1004 l 324 1004 l 324 853 l 500 853 l 500 703 l 324 703 z "},"g":{"ha":824,"x_min":0,"x_max":0,"o":"m 675 -150 l 675 -75 l 733 -75 l 733 0 l 793 0 l 793 790 l 736 913 l 147 913 l 147 838 l 88 838 l 88 763 l 29 763 l 29 418 l 144 235 l 88 235 l 88 -35 l 151 -150 z m 558 25 l 147 25 l 147 175 l 500 175 l 500 250 l 558 250 l 558 401 l 500 401 l 500 326 l 207 326 l 207 401 l 147 401 l 147 478 l 89 478 l 89 703 l 147 703 l 147 778 l 207 778 l 207 853 l 676 853 l 676 175 l 617 175 l 617 100 l 558 100 z m 500 478 l 500 553 l 558 553 l 558 703 l 265 703 l 265 628 l 207 628 l 207 553 l 265 553 l 265 478 z "},"h":{"ha":765,"x_min":0,"x_max":0,"o":"m 733 0 l 733 639 l 560 913 l 322 913 l 322 1167 l 267 1290 l 29 1290 l 29 115 l 93 0 l 322 0 l 322 453 l 381 453 l 381 528 l 407 528 l 440 461 l 440 115 l 504 0 z m 617 175 l 500 175 l 500 628 l 442 628 l 442 703 l 265 703 l 265 628 l 207 628 l 207 175 l 89 175 l 89 1231 l 207 1231 l 207 778 l 265 778 l 265 853 l 500 853 l 500 778 l 558 778 l 558 703 l 617 703 z "},"i":{"ha":529,"x_min":0,"x_max":0,"o":"m 558 0 l 558 263 l 501 385 l 439 385 l 439 1017 l 383 1139 l 147 1139 l 147 913 l 88 913 l 88 643 l 147 535 l 147 385 l 29 385 l 29 115 l 93 0 z m 442 175 l 89 175 l 89 326 l 207 326 l 207 703 l 147 703 l 147 853 l 324 853 l 324 326 l 442 326 z m 324 929 l 207 929 l 207 1079 l 324 1079 z "},"j":{"ha":529,"x_min":0,"x_max":0,"o":"m 439 -150 l 439 -75 l 499 -75 l 499 1017 l 442 1139 l 206 1139 l 206 913 l 147 913 l 147 643 l 206 538 l 206 310 l -29 310 l -29 40 l 93 -150 z m 324 25 l 89 25 l 89 100 l 31 100 l 31 250 l 147 250 l 147 175 l 265 175 l 265 703 l 207 703 l 207 853 l 382 853 l 382 100 l 324 100 z m 382 929 l 265 929 l 265 1079 l 382 1079 z "},"k":{"ha":706,"x_min":0,"x_max":0,"o":"m 675 0 l 675 263 l 558 450 l 558 528 l 617 528 l 617 790 l 560 913 l 322 913 l 322 1167 l 267 1290 l 29 1290 l 29 115 l 93 0 l 322 0 l 322 160 l 446 0 z m 558 175 l 442 175 l 442 250 l 382 250 l 382 326 l 324 326 l 324 401 l 265 401 l 265 478 l 207 478 l 207 175 l 89 175 l 89 1231 l 207 1231 l 207 628 l 265 628 l 265 703 l 324 703 l 324 778 l 382 778 l 382 853 l 500 853 l 500 703 l 442 703 l 442 628 l 382 628 l 382 478 l 442 478 l 442 401 l 500 401 l 500 326 l 558 326 z "},"l":{"ha":529,"x_min":0,"x_max":0,"o":"m 558 0 l 558 263 l 501 385 l 439 385 l 439 1167 l 383 1290 l 88 1290 l 88 1019 l 147 911 l 147 385 l 29 385 l 29 115 l 93 0 z m 442 175 l 89 175 l 89 326 l 207 326 l 207 1079 l 147 1079 l 147 1231 l 324 1231 l 324 326 l 442 326 z "},"m":{"ha":824,"x_min":0,"x_max":0,"o":"m 793 0 l 793 639 l 618 913 l 29 913 l 29 115 l 93 0 z m 676 175 l 558 175 l 558 628 l 442 628 l 442 175 l 324 175 l 324 628 l 207 628 l 207 175 l 89 175 l 89 853 l 147 853 l 147 778 l 207 778 l 207 853 l 324 853 l 324 778 l 440 778 l 440 853 l 558 853 l 558 778 l 617 778 l 617 703 l 676 703 z "},"n":{"ha":765,"x_min":0,"x_max":0,"o":"m 733 0 l 733 639 l 560 913 l 29 913 l 29 115 l 93 0 l 322 0 l 322 528 l 407 528 l 440 461 l 440 115 l 504 0 z m 617 175 l 500 175 l 500 628 l 442 628 l 442 703 l 207 703 l 207 175 l 89 175 l 89 853 l 500 853 l 500 778 l 558 778 l 558 703 l 617 703 z "},"o":{"ha":824,"x_min":0,"x_max":0,"o":"m 675 0 l 675 75 l 733 75 l 733 150 l 793 150 l 793 639 l 618 913 l 147 913 l 147 838 l 88 838 l 88 763 l 29 763 l 29 267 l 211 0 z m 558 175 l 207 175 l 207 250 l 147 250 l 147 326 l 89 326 l 89 703 l 147 703 l 147 778 l 207 778 l 207 853 l 558 853 l 558 778 l 617 778 l 617 703 l 676 703 l 676 326 l 617 326 l 617 250 l 558 250 z m 500 326 l 500 401 l 558 401 l 558 628 l 500 628 l 500 703 l 265 703 l 265 628 l 207 628 l 207 401 l 265 401 l 265 326 z "},"p":{"ha":824,"x_min":0,"x_max":0,"o":"m 675 75 l 675 150 l 733 150 l 733 225 l 793 225 l 793 639 l 618 913 l 29 913 l 29 -35 l 93 -150 l 322 -150 l 322 75 z m 558 250 l 265 250 l 265 326 l 207 326 l 207 25 l 89 25 l 89 853 l 558 853 l 558 778 l 617 778 l 617 703 l 676 703 l 676 401 l 617 401 l 617 326 l 558 326 z m 500 401 l 500 478 l 558 478 l 558 628 l 500 628 l 500 703 l 207 703 l 207 478 l 265 478 l 265 401 z "},"q":{"ha":824,"x_min":0,"x_max":0,"o":"m 793 -150 l 793 790 l 736 913 l 147 913 l 147 838 l 88 838 l 88 763 l 29 763 l 29 342 l 211 75 l 499 75 l 499 -35 l 563 -150 z m 676 25 l 558 25 l 558 326 l 500 326 l 500 250 l 207 250 l 207 326 l 147 326 l 147 401 l 89 401 l 89 703 l 147 703 l 147 778 l 207 778 l 207 853 l 676 853 z m 500 401 l 500 478 l 558 478 l 558 703 l 265 703 l 265 628 l 207 628 l 207 478 l 265 478 l 265 401 z "},"r":{"ha":706,"x_min":0,"x_max":0,"o":"m 322 0 l 322 453 l 381 453 l 381 528 l 465 528 l 504 453 l 733 453 l 733 715 l 618 913 l 29 913 l 29 115 l 93 0 z m 207 175 l 89 175 l 89 853 l 207 853 l 207 778 l 265 778 l 265 853 l 558 853 l 558 778 l 617 778 l 617 628 l 500 628 l 500 703 l 265 703 l 265 628 l 207 628 z "},"s":{"ha":706,"x_min":0,"x_max":0,"o":"m 617 0 l 617 75 l 675 75 l 675 715 l 560 913 l 88 913 l 88 838 l 29 838 l 29 493 l 89 385 l 29 385 l 29 190 l 151 0 z m 500 175 l 147 175 l 147 250 l 89 250 l 89 326 l 442 326 l 442 478 l 147 478 l 147 553 l 89 553 l 89 778 l 147 778 l 147 853 l 500 853 l 500 778 l 558 778 l 558 703 l 207 703 l 207 628 l 500 628 l 500 553 l 558 553 l 558 250 l 500 250 z "},"t":{"ha":647,"x_min":0,"x_max":0,"o":"m 675 0 l 675 263 l 618 385 l 439 385 l 439 528 l 617 528 l 617 790 l 560 913 l 439 913 l 439 1092 l 383 1214 l 147 1214 l 147 913 l 29 913 l 29 643 l 93 528 l 147 528 l 147 190 l 269 0 z m 558 175 l 265 175 l 265 250 l 207 250 l 207 703 l 89 703 l 89 853 l 207 853 l 207 1156 l 324 1156 l 324 853 l 500 853 l 500 703 l 324 703 l 324 326 l 558 326 z "},"u":{"ha":824,"x_min":0,"x_max":0,"o":"m 793 0 l 793 790 l 736 913 l 499 913 l 499 461 l 440 461 l 440 385 l 356 385 l 322 450 l 322 790 l 267 901 l 267 913 l 29 913 l 29 267 l 211 0 z m 676 175 l 558 175 l 558 250 l 500 250 l 500 175 l 207 175 l 207 250 l 147 250 l 147 326 l 89 326 l 89 853 l 207 853 l 207 401 l 265 401 l 265 326 l 500 326 l 500 401 l 558 401 l 558 853 l 676 853 z "},"v":{"ha":824,"x_min":0,"x_max":0,"o":"m 558 0 l 558 75 l 617 75 l 617 225 l 675 225 l 675 376 l 733 376 l 733 528 l 793 528 l 793 790 l 736 913 l 499 913 l 499 763 l 440 763 l 440 613 l 381 613 l 267 913 l 29 913 l 29 643 l 328 0 z m 442 175 l 324 175 l 324 250 l 265 250 l 265 401 l 207 401 l 207 553 l 147 553 l 147 703 l 89 703 l 89 853 l 207 853 l 207 703 l 265 703 l 265 553 l 324 553 l 324 401 l 442 401 l 442 553 l 500 553 l 500 703 l 558 703 l 558 853 l 676 853 l 676 703 l 617 703 l 617 553 l 558 553 l 558 401 l 500 401 l 500 250 l 442 250 z "},"w":{"ha":824,"x_min":0,"x_max":0,"o":"m 675 0 l 675 75 l 733 75 l 733 225 l 793 225 l 793 790 l 736 913 l 29 913 l 29 342 l 211 0 l 381 0 l 381 75 l 465 75 l 504 0 z m 558 175 l 500 175 l 500 250 l 442 250 l 442 326 l 324 326 l 324 250 l 265 250 l 265 175 l 207 175 l 207 250 l 150 250 l 150 401 l 89 401 l 89 853 l 207 853 l 207 401 l 265 401 l 265 478 l 324 478 l 324 853 l 442 853 l 442 478 l 500 478 l 500 401 l 558 401 l 558 853 l 676 853 l 676 401 l 617 401 l 617 250 l 558 250 z "},"x":{"ha":765,"x_min":0,"x_max":0,"o":"m 733 0 l 733 263 l 618 453 l 675 453 l 675 528 l 733 528 l 733 790 l 676 913 l 440 913 l 440 838 l 382 838 l 382 763 l 356 763 l 267 913 l 29 913 l 29 643 l 146 461 l 88 461 l 88 385 l 29 385 l 29 115 l 93 0 l 322 0 l 322 75 l 381 75 l 381 150 l 407 150 l 504 0 z m 617 175 l 500 175 l 500 250 l 442 250 l 442 326 l 382 326 l 382 401 l 324 401 l 324 326 l 265 326 l 265 250 l 207 250 l 207 175 l 89 175 l 89 326 l 147 326 l 147 401 l 207 401 l 207 478 l 265 478 l 265 553 l 207 553 l 207 628 l 147 628 l 147 703 l 89 703 l 89 853 l 207 853 l 207 778 l 265 778 l 265 703 l 324 703 l 324 628 l 382 628 l 382 703 l 442 703 l 442 778 l 500 778 l 500 853 l 617 853 l 617 703 l 558 703 l 558 628 l 500 628 l 500 553 l 442 553 l 442 478 l 500 478 l 500 401 l 558 401 l 558 326 l 617 326 z "},"y":{"ha":706,"x_min":0,"x_max":0,"o":"m 381 -150 l 381 -75 l 439 -75 l 439 75 l 499 75 l 499 225 l 558 225 l 558 376 l 615 376 l 615 528 l 675 528 l 675 790 l 618 913 l 382 913 l 382 763 l 322 763 l 267 913 l 29 913 l 29 643 l 168 310 l 147 310 l 147 160 l 88 160 l 88 -35 l 151 -150 z m 265 25 l 147 25 l 147 100 l 207 100 l 207 250 l 265 250 l 265 401 l 207 401 l 207 553 l 147 553 l 147 703 l 89 703 l 89 853 l 207 853 l 207 703 l 265 703 l 265 553 l 382 553 l 382 703 l 442 703 l 442 853 l 558 853 l 558 703 l 499 703 l 499 553 l 442 553 l 442 401 l 382 401 l 382 250 l 324 250 l 324 100 l 265 100 z "},"z":{"ha":765,"x_min":0,"x_max":0,"o":"m 733 0 l 733 263 l 676 385 l 558 385 l 558 453 l 617 453 l 617 528 l 675 528 l 675 603 l 733 603 l 733 790 l 676 913 l 29 913 l 29 643 l 93 528 l 147 528 l 147 461 l 88 461 l 88 385 l 29 385 l 29 115 l 93 0 z m 617 175 l 89 175 l 89 326 l 147 326 l 147 401 l 207 401 l 207 478 l 265 478 l 265 553 l 324 553 l 324 628 l 382 628 l 382 703 l 89 703 l 89 853 l 617 853 l 617 778 l 558 778 l 558 703 l 500 703 l 500 628 l 442 628 l 442 553 l 382 553 l 382 478 l 324 478 l 324 401 l 265 401 l 265 326 l 617 326 z "},"{":{"ha":647,"x_min":0,"x_max":0,"o":"m 617 -75 l 617 188 l 560 310 l 414 310 l 381 375 l 381 829 l 439 829 l 439 904 l 617 904 l 617 1167 l 560 1290 l 206 1290 l 206 1214 l 147 1214 l 147 1139 l 88 1139 l 88 838 l 29 838 l 29 763 l -29 763 l -29 568 l 33 453 l 56 453 l 88 386 l 88 190 l 269 -75 z m 500 100 l 265 100 l 265 175 l 207 175 l 207 250 l 147 250 l 147 553 l 89 553 l 89 628 l 31 628 l 31 703 l 89 703 l 89 778 l 147 778 l 147 1079 l 207 1079 l 207 1156 l 265 1156 l 265 1231 l 500 1231 l 500 1079 l 324 1079 l 324 1004 l 265 1004 l 265 703 l 207 703 l 207 628 l 265 628 l 265 326 l 324 326 l 324 250 l 500 250 z "},"|":{"ha":353,"x_min":0,"x_max":0,"o":"m 322 0 l 322 1167 l 267 1290 l 29 1290 l 29 115 l 93 0 z m 207 175 l 89 175 l 89 1231 l 207 1231 z "},"}":{"ha":647,"x_min":0,"x_max":0,"o":"m 439 -75 l 439 0 l 499 0 l 499 75 l 558 75 l 558 376 l 617 376 l 617 453 l 675 453 l 675 639 l 558 826 l 558 1017 l 383 1290 l 29 1290 l 29 1019 l 93 904 l 231 904 l 264 839 l 264 385 l 206 385 l 206 310 l 29 310 l 29 40 l 93 -75 z m 324 100 l 89 100 l 89 250 l 265 250 l 265 326 l 324 326 l 324 628 l 382 628 l 382 703 l 324 703 l 324 1004 l 265 1004 l 265 1079 l 89 1079 l 89 1231 l 324 1231 l 324 1156 l 382 1156 l 382 1079 l 442 1079 l 442 778 l 500 778 l 500 703 l 558 703 l 558 628 l 500 628 l 500 553 l 442 553 l 442 250 l 382 250 l 382 175 l 324 175 z "},"~":{"ha":824,"x_min":0,"x_max":0,"o":"m 675 678 l 675 754 l 733 754 l 733 829 l 793 829 l 793 1017 l 736 1139 l 499 1139 l 499 1064 l 474 1064 l 442 1139 l 147 1139 l 147 1064 l 88 1064 l 88 989 l 29 989 l 29 793 l 93 678 l 322 678 l 322 754 l 350 754 l 389 678 z m 558 853 l 385 853 l 385 929 l 324 929 l 324 1004 l 265 1004 l 265 929 l 207 929 l 207 853 l 89 853 l 89 929 l 147 929 l 147 1004 l 207 1004 l 207 1079 l 382 1079 l 382 1004 l 442 1004 l 442 929 l 500 929 l 500 1004 l 558 1004 l 558 1079 l 676 1079 l 676 1004 l 617 1004 l 617 929 l 558 929 z "}," ":{"ha":351,"x_min":0,"x_max":0,"o":""},"¡":{"ha":469,"x_min":0,"x_max":0,"o":"m 381 -150 l 381 0 l 439 0 l 439 489 l 381 603 l 381 1017 l 325 1139 l 88 1139 l 88 613 l 29 613 l 29 115 l 151 -150 z m 265 25 l 147 25 l 147 175 l 89 175 l 89 553 l 147 553 l 147 778 l 265 778 l 265 553 l 324 553 l 324 175 l 265 175 z m 265 929 l 147 929 l 147 1079 l 265 1079 z "},"¢":{"ha":824,"x_min":0,"x_max":0,"o":"m 558 0 l 558 150 l 675 150 l 675 225 l 733 225 l 733 301 l 793 301 l 793 489 l 736 613 l 558 613 l 558 678 l 793 678 l 793 867 l 501 1290 l 264 1290 l 264 1139 l 147 1139 l 147 1064 l 88 1064 l 88 989 l 29 989 l 29 418 l 328 0 z m 442 175 l 324 175 l 324 326 l 207 326 l 207 401 l 147 401 l 147 478 l 89 478 l 89 929 l 147 929 l 147 1004 l 207 1004 l 207 1079 l 324 1079 l 324 1231 l 442 1231 l 442 1079 l 558 1079 l 558 1004 l 617 1004 l 617 929 l 676 929 l 676 853 l 558 853 l 558 929 l 442 929 l 442 478 l 558 478 l 558 553 l 676 553 l 676 478 l 617 478 l 617 401 l 558 401 l 558 326 l 442 326 z m 324 478 l 324 929 l 265 929 l 265 853 l 207 853 l 207 553 l 265 553 l 265 478 z "},"£":{"ha":824,"x_min":0,"x_max":0,"o":"m 793 0 l 793 263 l 736 385 l 675 385 l 675 639 l 618 754 l 793 754 l 793 942 l 618 1290 l 206 1290 l 206 1214 l 147 1214 l 147 1064 l 88 1064 l 88 763 l 29 763 l 29 493 l 88 385 l 29 385 l 29 115 l 93 0 z m 676 175 l 89 175 l 89 326 l 147 326 l 147 553 l 89 553 l 89 703 l 147 703 l 147 1004 l 207 1004 l 207 1156 l 265 1156 l 265 1231 l 558 1231 l 558 1156 l 617 1156 l 617 1004 l 676 1004 l 676 929 l 558 929 l 558 1004 l 500 1004 l 500 1079 l 324 1079 l 324 1004 l 265 1004 l 265 703 l 558 703 l 558 553 l 265 553 l 265 326 l 676 326 z "},"¤":{"ha":882,"x_min":0,"x_max":0,"o":"m 851 75 l 851 263 l 733 450 l 733 829 l 793 829 l 793 904 l 851 904 l 851 1092 l 794 1214 l 558 1214 l 558 1139 l 499 1139 l 499 1064 l 440 1064 l 440 989 l 414 989 l 267 1214 l 29 1214 l 29 1019 l 147 836 l 147 461 l 88 461 l 88 385 l 29 385 l 29 190 l 93 75 l 322 75 l 322 150 l 381 150 l 381 225 l 439 225 l 439 301 l 465 301 l 621 75 z m 736 250 l 617 250 l 617 326 l 558 326 l 558 401 l 500 401 l 500 478 l 324 478 l 324 401 l 265 401 l 265 326 l 207 326 l 207 250 l 89 250 l 89 326 l 147 326 l 147 401 l 207 401 l 207 478 l 265 478 l 265 553 l 207 553 l 207 853 l 265 853 l 265 929 l 207 929 l 207 1004 l 147 1004 l 147 1079 l 89 1079 l 89 1156 l 207 1156 l 207 1079 l 265 1079 l 265 1004 l 324 1004 l 324 929 l 500 929 l 500 1004 l 558 1004 l 558 1079 l 617 1079 l 617 1156 l 736 1156 l 736 1079 l 676 1079 l 676 1004 l 617 1004 l 617 929 l 558 929 l 558 853 l 617 853 l 617 553 l 558 553 l 558 478 l 617 478 l 617 401 l 676 401 l 676 326 l 736 326 z m 442 553 l 442 628 l 500 628 l 500 778 l 442 778 l 442 853 l 382 853 l 382 778 l 324 778 l 324 628 l 382 628 l 382 553 z "},"¥":{"ha":824,"x_min":0,"x_max":0,"o":"m 733 150 l 733 489 l 675 601 l 675 754 l 733 754 l 733 904 l 793 904 l 793 1167 l 736 1290 l 499 1290 l 499 1139 l 440 1139 l 440 989 l 381 989 l 267 1290 l 29 1290 l 29 1019 l 204 613 l 88 613 l 88 267 l 151 150 l 264 150 l 264 115 l 328 0 l 558 0 l 558 150 z m 617 326 l 442 326 l 442 175 l 324 175 l 324 326 l 147 326 l 147 401 l 324 401 l 324 478 l 147 478 l 147 553 l 324 553 l 324 628 l 265 628 l 265 778 l 207 778 l 207 929 l 147 929 l 147 1079 l 89 1079 l 89 1231 l 207 1231 l 207 1079 l 265 1079 l 265 929 l 324 929 l 324 778 l 442 778 l 442 929 l 500 929 l 500 1079 l 558 1079 l 558 1231 l 676 1231 l 676 1079 l 617 1079 l 617 929 l 558 929 l 558 778 l 500 778 l 500 628 l 442 628 l 442 553 l 617 553 l 617 478 l 442 478 l 442 401 l 617 401 z "},"¦":{"ha":353,"x_min":0,"x_max":0,"o":"m 322 0 l 322 1167 l 267 1290 l 29 1290 l 29 115 l 93 0 z m 207 175 l 89 175 l 89 628 l 207 628 z m 207 778 l 89 778 l 89 1231 l 207 1231 z "},"§":{"ha":706,"x_min":0,"x_max":0,"o":"m 617 -75 l 617 0 l 675 0 l 675 790 l 618 904 l 675 904 l 675 1092 l 560 1290 l 88 1290 l 88 1214 l 29 1214 l 29 418 l 89 310 l 29 310 l 29 115 l 151 -75 z m 500 100 l 147 100 l 147 175 l 89 175 l 89 250 l 442 250 l 442 401 l 147 401 l 147 478 l 89 478 l 89 778 l 147 778 l 147 853 l 89 853 l 89 1156 l 147 1156 l 147 1231 l 500 1231 l 500 1156 l 558 1156 l 558 1079 l 207 1079 l 207 929 l 500 929 l 500 853 l 558 853 l 558 553 l 500 553 l 500 478 l 558 478 l 558 175 l 500 175 z m 442 553 l 442 778 l 207 778 l 207 553 z "},"©":{"ha":1000,"x_min":0,"x_max":0,"o":"m 793 0 l 793 75 l 851 75 l 851 150 l 910 150 l 910 301 l 968 301 l 968 867 l 736 1290 l 206 1290 l 206 1214 l 147 1214 l 147 1139 l 88 1139 l 88 989 l 29 989 l 29 418 l 269 0 z m 676 175 l 265 175 l 265 250 l 207 250 l 207 326 l 147 326 l 147 478 l 89 478 l 89 929 l 147 929 l 147 1079 l 207 1079 l 207 1156 l 265 1156 l 265 1231 l 676 1231 l 676 1156 l 736 1156 l 736 1079 l 794 1079 l 794 929 l 853 929 l 853 478 l 794 478 l 794 326 l 736 326 l 736 250 l 676 250 z m 617 326 l 617 401 l 676 401 l 676 478 l 736 478 l 736 929 l 676 929 l 676 1004 l 617 1004 l 617 1079 l 324 1079 l 324 1004 l 265 1004 l 265 929 l 207 929 l 207 478 l 265 478 l 265 401 l 324 401 l 324 326 z m 561 478 l 381 478 l 381 553 l 324 553 l 324 853 l 381 853 l 381 929 l 561 929 l 561 853 l 617 853 l 617 778 l 557 778 l 557 850 l 386 850 l 386 554 l 557 554 l 557 628 l 617 628 l 617 553 l 561 553 z "},"ª":{"ha":647,"x_min":0,"x_max":0,"o":"m 617 225 l 617 1092 l 501 1290 l 147 1290 l 147 1214 l 88 1214 l 88 913 l 29 913 l 29 342 l 93 225 z m 500 628 l 147 628 l 147 703 l 89 703 l 89 853 l 147 853 l 147 929 l 207 929 l 207 1004 l 382 1004 l 382 1079 l 147 1079 l 147 1156 l 207 1156 l 207 1231 l 442 1231 l 442 1156 l 500 1156 z m 500 401 l 89 401 l 89 553 l 500 553 z m 382 778 l 382 853 l 207 853 l 207 778 z "},"«":{"ha":824,"x_min":0,"x_max":0,"o":"m 793 225 l 793 489 l 733 601 l 733 678 l 793 678 l 793 942 l 736 1064 l 499 1064 l 499 989 l 474 989 l 442 1064 l 206 1064 l 206 989 l 147 989 l 147 913 l 88 913 l 88 838 l 29 838 l 29 568 l 269 225 l 499 225 l 499 301 l 524 301 l 563 225 z m 676 401 l 558 401 l 558 478 l 500 478 l 500 553 l 442 553 l 442 628 l 382 628 l 382 778 l 442 778 l 442 853 l 500 853 l 500 929 l 558 929 l 558 1004 l 676 1004 l 676 853 l 617 853 l 617 778 l 558 778 l 558 628 l 617 628 l 617 553 l 676 553 z m 382 401 l 265 401 l 265 478 l 207 478 l 207 553 l 147 553 l 147 628 l 89 628 l 89 778 l 147 778 l 147 853 l 207 853 l 207 929 l 265 929 l 265 1004 l 382 1004 l 382 853 l 324 853 l 324 778 l 265 778 l 265 628 l 324 628 l 324 553 l 382 553 z "},"®":{"ha":1000,"x_min":0,"x_max":0,"o":"m 793 0 l 793 75 l 851 75 l 851 150 l 910 150 l 910 301 l 968 301 l 968 867 l 736 1290 l 206 1290 l 206 1214 l 147 1214 l 147 1139 l 88 1139 l 88 989 l 29 989 l 29 418 l 269 0 z m 676 175 l 265 175 l 265 250 l 207 250 l 207 326 l 147 326 l 147 478 l 89 478 l 89 929 l 147 929 l 147 1079 l 207 1079 l 207 1156 l 265 1156 l 265 1231 l 676 1231 l 676 1156 l 736 1156 l 736 1079 l 794 1079 l 794 929 l 853 929 l 853 478 l 794 478 l 794 326 l 736 326 l 736 250 l 676 250 z m 617 326 l 617 401 l 676 401 l 676 478 l 736 478 l 736 929 l 676 929 l 676 1004 l 617 1004 l 617 1079 l 324 1079 l 324 1004 l 265 1004 l 265 929 l 207 929 l 207 478 l 265 478 l 265 401 l 324 401 l 324 326 z m 617 478 l 558 478 l 558 551 l 499 551 l 499 628 l 382 628 l 382 478 l 324 478 l 324 929 l 561 929 l 561 857 l 617 857 l 617 700 l 561 700 l 561 554 l 617 554 z m 561 703 l 561 853 l 382 853 l 382 703 z "},"°":{"ha":706,"x_min":0,"x_max":0,"o":"m 558 453 l 558 528 l 617 528 l 617 603 l 675 603 l 675 1017 l 501 1290 l 147 1290 l 147 1214 l 88 1214 l 88 1139 l 29 1139 l 29 718 l 211 453 z m 442 628 l 207 628 l 207 703 l 147 703 l 147 778 l 89 778 l 89 1079 l 147 1079 l 147 1156 l 207 1156 l 207 1231 l 442 1231 l 442 1156 l 500 1156 l 500 1079 l 558 1079 l 558 778 l 500 778 l 500 703 l 442 703 z m 382 778 l 382 853 l 442 853 l 442 1004 l 382 1004 l 382 1079 l 265 1079 l 265 1004 l 207 1004 l 207 853 l 265 853 l 265 778 z "},"²":{"ha":554,"x_min":0,"x_max":0,"o":"m 617 453 l 617 1092 l 501 1290 l 88 1290 l 88 1214 l 29 1214 l 29 944 l 88 838 l 88 763 l 29 763 l 29 568 l 93 453 z m 500 628 l 89 628 l 89 703 l 147 703 l 147 778 l 207 778 l 207 853 l 265 853 l 265 929 l 324 929 l 324 1004 l 382 1004 l 382 1079 l 207 1079 l 207 1004 l 89 1004 l 89 1156 l 147 1156 l 147 1231 l 442 1231 l 442 1156 l 500 1156 l 500 929 l 442 929 l 442 853 l 382 853 l 382 778 l 500 778 z "},"³":{"ha":647,"x_min":0,"x_max":0,"o":"m 558 453 l 558 528 l 617 528 l 617 1092 l 501 1290 l 88 1290 l 88 1214 l 29 1214 l 29 643 l 151 453 z m 442 628 l 147 628 l 147 703 l 89 703 l 89 853 l 207 853 l 207 778 l 382 778 l 382 853 l 265 853 l 265 1004 l 382 1004 l 382 1079 l 207 1079 l 207 1004 l 89 1004 l 89 1156 l 147 1156 l 147 1231 l 442 1231 l 442 1156 l 500 1156 l 500 1004 l 442 1004 l 442 853 l 500 853 l 500 703 l 442 703 z "},"¶":{"ha":824,"x_min":0,"x_max":0,"o":"m 793 0 l 793 1167 l 736 1290 l 147 1290 l 147 1214 l 88 1214 l 88 1139 l 29 1139 l 29 793 l 264 528 l 264 115 l 328 0 z m 676 175 l 558 175 l 558 1079 l 442 1079 l 442 175 l 324 175 l 324 703 l 207 703 l 207 778 l 147 778 l 147 853 l 89 853 l 89 1079 l 147 1079 l 147 1156 l 207 1156 l 207 1231 l 676 1231 z "},"·":{"ha":411,"x_min":0,"x_max":0,"o":"m 381 376 l 381 715 l 325 838 l 29 838 l 29 493 l 93 376 z m 265 553 l 89 553 l 89 778 l 265 778 z "},"¹":{"ha":588,"x_min":0,"x_max":0,"o":"m 558 453 l 558 715 l 501 838 l 439 838 l 439 1167 l 383 1290 l 147 1290 l 147 1214 l 29 1214 l 29 944 l 89 838 l 29 838 l 29 568 l 93 453 z m 442 628 l 89 628 l 89 778 l 207 778 l 207 1004 l 89 1004 l 89 1156 l 207 1156 l 207 1231 l 324 1231 l 324 778 l 442 778 z "},"º":{"ha":647,"x_min":0,"x_max":0,"o":"m 617 225 l 617 489 l 560 603 l 617 603 l 617 1017 l 442 1290 l 147 1290 l 147 1214 l 88 1214 l 88 1139 l 29 1139 l 29 718 l 89 613 l 29 613 l 29 342 l 93 225 z m 382 628 l 207 628 l 207 703 l 147 703 l 147 778 l 89 778 l 89 1079 l 147 1079 l 147 1156 l 207 1156 l 207 1231 l 382 1231 l 382 1156 l 442 1156 l 442 1079 l 500 1079 l 500 778 l 442 778 l 442 703 l 382 703 z m 500 401 l 89 401 l 89 553 l 500 553 z m 382 778 l 382 1079 l 207 1079 l 207 778 z "},"»":{"ha":824,"x_min":0,"x_max":0,"o":"m 617 225 l 617 301 l 675 301 l 675 376 l 733 376 l 733 453 l 793 453 l 793 715 l 560 1064 l 322 1064 l 322 989 l 297 989 l 267 1064 l 29 1064 l 29 793 l 88 688 l 88 613 l 29 613 l 29 342 l 93 225 l 322 225 l 322 301 l 347 301 l 386 225 z m 207 401 l 89 401 l 89 553 l 147 553 l 147 628 l 207 628 l 207 778 l 147 778 l 147 853 l 89 853 l 89 1004 l 207 1004 l 207 929 l 265 929 l 265 853 l 324 853 l 324 778 l 382 778 l 382 628 l 324 628 l 324 553 l 265 553 l 265 478 l 207 478 z m 500 401 l 382 401 l 382 553 l 442 553 l 442 628 l 500 628 l 500 778 l 442 778 l 442 853 l 382 853 l 382 1004 l 500 1004 l 500 929 l 558 929 l 558 853 l 617 853 l 617 778 l 676 778 l 676 628 l 617 628 l 617 553 l 558 553 l 558 478 l 500 478 z "},"¼":{"ha":1235,"x_min":0,"x_max":0,"o":"m 1144 0 l 1144 150 l 1203 150 l 1203 414 l 1144 526 l 1144 715 l 1089 838 l 1028 838 l 1028 1092 l 972 1214 l 793 1214 l 793 1139 l 735 1139 l 735 1064 l 676 1064 l 676 989 l 617 989 l 617 913 l 558 913 l 558 838 l 439 838 l 439 1167 l 383 1290 l 147 1290 l 147 1214 l 29 1214 l 29 944 l 89 838 l 29 838 l 29 565 l 93 450 l 206 450 l 206 190 l 269 75 l 499 75 l 499 150 l 558 150 l 558 225 l 617 225 l 617 267 l 679 150 l 851 150 l 851 115 l 914 0 z m 382 250 l 265 250 l 265 397 l 324 397 l 324 478 l 382 478 l 382 553 l 439 553 l 439 625 l 89 625 l 89 778 l 207 778 l 207 1004 l 89 1004 l 89 1156 l 207 1156 l 207 1231 l 324 1231 l 324 778 l 444 778 l 444 631 l 500 631 l 500 703 l 558 703 l 558 778 l 617 778 l 617 853 l 676 853 l 676 929 l 736 929 l 736 1004 l 794 1004 l 794 1079 l 853 1079 l 853 1156 l 913 1156 l 913 929 l 853 929 l 853 853 l 794 853 l 794 778 l 736 778 l 736 703 l 676 703 l 676 628 l 617 628 l 617 553 l 558 553 l 558 478 l 500 478 l 500 401 l 442 401 l 442 326 l 382 326 z m 1029 175 l 911 175 l 911 326 l 676 326 l 676 478 l 735 478 l 735 553 l 794 553 l 794 628 l 853 628 l 853 703 l 911 703 l 911 778 l 1029 778 l 1029 478 l 1088 478 l 1088 326 l 1029 326 z m 911 478 l 911 553 l 853 553 l 853 478 z "},"½":{"ha":1351,"x_min":0,"x_max":0,"o":"m 1321 0 l 1321 639 l 1207 838 l 1028 838 l 1028 1092 l 972 1214 l 793 1214 l 793 1139 l 735 1139 l 735 1064 l 676 1064 l 676 989 l 617 989 l 617 913 l 558 913 l 558 838 l 439 838 l 439 1167 l 383 1290 l 147 1290 l 147 1214 l 29 1214 l 29 944 l 89 838 l 29 838 l 29 565 l 93 450 l 206 450 l 206 190 l 269 75 l 499 75 l 499 150 l 558 150 l 558 225 l 617 225 l 617 301 l 675 301 l 675 376 l 733 376 l 733 453 l 760 453 l 793 385 l 793 310 l 735 310 l 735 115 l 797 0 z m 382 250 l 265 250 l 265 397 l 324 397 l 324 478 l 382 478 l 382 553 l 439 553 l 439 625 l 89 625 l 89 778 l 207 778 l 207 1004 l 89 1004 l 89 1156 l 207 1156 l 207 1231 l 324 1231 l 324 778 l 444 778 l 444 631 l 500 631 l 500 703 l 558 703 l 558 778 l 617 778 l 617 853 l 676 853 l 676 929 l 736 929 l 736 1004 l 794 1004 l 794 1079 l 853 1079 l 853 1156 l 913 1156 l 913 929 l 853 929 l 853 853 l 794 853 l 794 778 l 736 778 l 736 703 l 676 703 l 676 628 l 617 628 l 617 553 l 558 553 l 558 478 l 500 478 l 500 401 l 442 401 l 442 326 l 382 326 z m 1206 175 l 794 175 l 794 250 l 853 250 l 853 326 l 913 326 l 913 401 l 971 401 l 971 478 l 1029 478 l 1029 553 l 1088 553 l 1088 628 l 913 628 l 913 553 l 794 553 l 794 703 l 853 703 l 853 778 l 1147 778 l 1147 703 l 1206 703 l 1206 478 l 1147 478 l 1147 401 l 1088 401 l 1088 326 l 1206 326 z "},"¾":{"ha":1235,"x_min":0,"x_max":0,"o":"m 1144 0 l 1144 150 l 1203 150 l 1203 414 l 1144 526 l 1144 715 l 1089 838 l 1028 838 l 1028 1092 l 972 1214 l 793 1214 l 793 1139 l 735 1139 l 735 1064 l 676 1064 l 676 989 l 617 989 l 617 1092 l 501 1290 l 88 1290 l 88 1214 l 29 1214 l 29 643 l 151 453 l 206 453 l 206 190 l 269 75 l 499 75 l 499 150 l 558 150 l 558 225 l 617 225 l 617 267 l 622 267 l 681 150 l 853 150 l 915 0 z m 382 250 l 265 250 l 265 397 l 324 397 l 324 478 l 382 478 l 382 553 l 439 553 l 439 628 l 147 628 l 147 703 l 89 703 l 89 853 l 207 853 l 207 778 l 382 778 l 382 853 l 265 853 l 265 1004 l 382 1004 l 382 1079 l 207 1079 l 207 1004 l 89 1004 l 89 1156 l 147 1156 l 147 1231 l 442 1231 l 442 1156 l 500 1156 l 500 1004 l 442 1004 l 442 853 l 503 853 l 503 706 l 558 706 l 558 778 l 617 778 l 617 853 l 676 853 l 676 929 l 736 929 l 736 1004 l 794 1004 l 794 1079 l 853 1079 l 853 1156 l 913 1156 l 913 929 l 853 929 l 853 853 l 794 853 l 794 778 l 736 778 l 736 703 l 676 703 l 676 628 l 617 628 l 617 553 l 558 553 l 558 478 l 500 478 l 500 401 l 442 401 l 442 326 l 382 326 z m 1029 175 l 913 175 l 913 326 l 676 326 l 676 478 l 736 478 l 736 553 l 794 553 l 794 628 l 853 628 l 853 703 l 913 703 l 913 778 l 1029 778 l 1029 478 l 1088 478 l 1088 326 l 1029 326 z m 913 478 l 913 553 l 853 553 l 853 478 z m 499 632 l 499 700 l 444 700 l 444 632 z "},"¿":{"ha":824,"x_min":0,"x_max":0,"o":"m 675 -150 l 675 -75 l 733 -75 l 733 0 l 793 0 l 793 338 l 736 461 l 558 461 l 558 1017 l 501 1139 l 264 1139 l 264 688 l 206 688 l 206 613 l 147 613 l 147 538 l 88 538 l 88 461 l 29 461 l 29 115 l 211 -150 z m 558 25 l 207 25 l 207 100 l 147 100 l 147 175 l 89 175 l 89 401 l 147 401 l 147 478 l 207 478 l 207 553 l 265 553 l 265 628 l 324 628 l 324 853 l 442 853 l 442 553 l 382 553 l 382 478 l 324 478 l 324 401 l 265 401 l 265 326 l 207 326 l 207 250 l 265 250 l 265 175 l 500 175 l 500 250 l 558 250 l 558 401 l 676 401 l 676 175 l 617 175 l 617 100 l 558 100 z m 442 929 l 324 929 l 324 1079 l 442 1079 z "},"À":{"ha":824,"x_min":0,"x_max":0,"o":"m 793 0 l 793 338 l 558 1242 l 442 1442 l 147 1442 l 147 1246 l 206 1139 l 206 913 l 147 913 l 147 688 l 88 688 l 88 461 l 29 461 l 29 115 l 93 0 l 322 0 l 322 225 l 499 225 l 499 115 l 563 0 z m 676 175 l 558 175 l 558 401 l 207 401 l 207 175 l 89 175 l 89 401 l 147 401 l 147 628 l 207 628 l 207 853 l 265 853 l 265 1079 l 324 1079 l 324 1231 l 265 1231 l 265 1306 l 207 1306 l 207 1382 l 382 1382 l 382 1306 l 442 1306 l 442 1079 l 500 1079 l 500 853 l 558 853 l 558 628 l 617 628 l 617 401 l 676 401 z m 500 553 l 500 628 l 442 628 l 442 853 l 324 853 l 324 628 l 265 628 l 265 553 z "},"Á":{"ha":824,"x_min":0,"x_max":0,"o":"m 793 0 l 793 338 l 560 1128 l 560 1129 l 617 1129 l 617 1318 l 560 1442 l 264 1442 l 264 1365 l 206 1365 l 206 913 l 147 913 l 147 688 l 88 688 l 88 461 l 29 461 l 29 115 l 93 0 l 322 0 l 322 225 l 499 225 l 499 115 l 563 0 z m 676 175 l 558 175 l 558 401 l 207 401 l 207 175 l 89 175 l 89 401 l 147 401 l 147 628 l 207 628 l 207 853 l 265 853 l 265 1079 l 324 1079 l 324 1231 l 265 1231 l 265 1306 l 324 1306 l 324 1382 l 500 1382 l 500 1306 l 442 1306 l 442 1079 l 500 1079 l 500 853 l 558 853 l 558 628 l 617 628 l 617 401 l 676 401 z m 500 553 l 500 628 l 442 628 l 442 853 l 324 853 l 324 628 l 265 628 l 265 553 z "},"Â":{"ha":824,"x_min":0,"x_max":0,"o":"m 793 0 l 793 338 l 597 1054 l 675 1054 l 675 1242 l 560 1442 l 206 1442 l 206 1365 l 147 1365 l 147 1171 l 206 1064 l 206 913 l 147 913 l 147 688 l 88 688 l 88 461 l 29 461 l 29 115 l 93 0 l 322 0 l 322 225 l 499 225 l 499 115 l 563 0 z m 676 175 l 558 175 l 558 401 l 207 401 l 207 175 l 89 175 l 89 401 l 147 401 l 147 628 l 207 628 l 207 853 l 265 853 l 265 1079 l 324 1079 l 324 1231 l 207 1231 l 207 1306 l 265 1306 l 265 1382 l 500 1382 l 500 1306 l 558 1306 l 558 1231 l 442 1231 l 442 1079 l 500 1079 l 500 853 l 558 853 l 558 628 l 617 628 l 617 401 l 676 401 z m 500 553 l 500 628 l 442 628 l 442 853 l 324 853 l 324 628 l 265 628 l 265 553 z m 439 1232 l 439 1306 l 326 1306 l 326 1232 z "},"Ã":{"ha":824,"x_min":0,"x_max":0,"o":"m 793 0 l 793 338 l 618 1128 l 675 1128 l 675 1318 l 618 1442 l 203 1442 l 203 1368 l 147 1368 l 147 1171 l 206 1064 l 206 913 l 147 913 l 147 688 l 88 688 l 88 461 l 29 461 l 29 115 l 93 0 l 322 0 l 322 225 l 499 225 l 499 115 l 563 0 z m 676 175 l 558 175 l 558 401 l 207 401 l 207 175 l 89 175 l 89 401 l 147 401 l 147 628 l 207 628 l 207 853 l 265 853 l 265 1079 l 324 1079 l 324 1306 l 268 1306 l 268 1231 l 207 1231 l 207 1308 l 263 1308 l 263 1382 l 442 1382 l 442 1306 l 499 1306 l 499 1382 l 558 1382 l 558 1303 l 503 1303 l 503 1231 l 442 1231 l 442 1079 l 500 1079 l 500 853 l 558 853 l 558 628 l 617 628 l 617 401 l 676 401 z m 500 553 l 500 628 l 442 628 l 442 853 l 324 853 l 324 628 l 265 628 l 265 553 z "},"Ä":{"ha":824,"x_min":0,"x_max":0,"o":"m 793 0 l 793 338 l 597 1054 l 675 1054 l 675 1318 l 618 1442 l 147 1442 l 147 1171 l 206 1064 l 206 913 l 147 913 l 147 688 l 88 688 l 88 461 l 29 461 l 29 115 l 93 0 l 322 0 l 322 225 l 499 225 l 499 115 l 563 0 z m 676 175 l 558 175 l 558 401 l 207 401 l 207 175 l 89 175 l 89 401 l 147 401 l 147 628 l 207 628 l 207 853 l 265 853 l 265 1079 l 324 1079 l 324 1231 l 207 1231 l 207 1382 l 326 1382 l 326 1232 l 439 1232 l 439 1382 l 558 1382 l 558 1231 l 442 1231 l 442 1079 l 500 1079 l 500 853 l 558 853 l 558 628 l 617 628 l 617 401 l 676 401 z m 500 553 l 500 628 l 442 628 l 442 853 l 324 853 l 324 628 l 265 628 l 265 553 z "},"Å":{"ha":824,"x_min":0,"x_max":0,"o":"m 793 0 l 793 338 l 617 1054 l 675 1054 l 675 1242 l 560 1442 l 206 1442 l 206 1365 l 147 1365 l 147 1171 l 206 1064 l 206 913 l 147 913 l 147 688 l 88 688 l 88 461 l 29 461 l 29 115 l 93 0 l 322 0 l 322 225 l 499 225 l 499 115 l 563 0 z m 676 175 l 558 175 l 558 401 l 207 401 l 207 175 l 89 175 l 89 401 l 147 401 l 147 628 l 207 628 l 207 853 l 265 853 l 265 1079 l 324 1079 l 324 1156 l 265 1156 l 265 1231 l 207 1231 l 207 1306 l 265 1306 l 265 1382 l 500 1382 l 500 1306 l 558 1306 l 558 1231 l 500 1231 l 500 1156 l 442 1156 l 442 1079 l 500 1079 l 500 853 l 558 853 l 558 628 l 617 628 l 617 401 l 676 401 z m 500 553 l 500 628 l 442 628 l 442 853 l 324 853 l 324 628 l 265 628 l 265 553 z m 442 1231 l 442 1306 l 324 1306 l 324 1231 z "},"Æ":{"ha":940,"x_min":0,"x_max":0,"o":"m 910 0 l 910 263 l 854 385 l 675 385 l 675 453 l 793 453 l 793 715 l 736 838 l 675 838 l 675 904 l 910 904 l 910 1167 l 854 1290 l 264 1290 l 264 1139 l 206 1139 l 206 913 l 147 913 l 147 688 l 88 688 l 88 461 l 29 461 l 29 115 l 93 0 l 322 0 l 322 225 l 382 225 l 382 115 l 446 0 z m 794 175 l 442 175 l 442 401 l 207 401 l 207 175 l 89 175 l 89 401 l 147 401 l 147 628 l 207 628 l 207 853 l 265 853 l 265 1079 l 324 1079 l 324 1231 l 794 1231 l 794 1079 l 558 1079 l 558 778 l 676 778 l 676 628 l 558 628 l 558 326 l 794 326 z m 442 553 l 442 853 l 324 853 l 324 628 l 265 628 l 265 553 z "},"Ç":{"ha":824,"x_min":0,"x_max":0,"o":"m 558 -225 l 558 -150 l 617 -150 l 617 0 l 675 0 l 675 75 l 733 75 l 733 150 l 793 150 l 793 414 l 736 538 l 499 538 l 499 461 l 440 461 l 440 385 l 414 385 l 322 526 l 322 754 l 381 754 l 381 829 l 439 829 l 439 904 l 465 904 l 563 754 l 793 754 l 793 1017 l 618 1290 l 206 1290 l 206 1214 l 147 1214 l 147 1139 l 88 1139 l 88 989 l 29 989 l 29 418 l 264 10 l 264 -110 l 328 -225 z m 442 -50 l 324 -50 l 324 25 l 382 25 l 382 175 l 265 175 l 265 250 l 207 250 l 207 326 l 147 326 l 147 478 l 89 478 l 89 929 l 147 929 l 147 1079 l 207 1079 l 207 1156 l 265 1156 l 265 1231 l 558 1231 l 558 1156 l 617 1156 l 617 1079 l 676 1079 l 676 929 l 558 929 l 558 1004 l 500 1004 l 500 1079 l 324 1079 l 324 1004 l 265 1004 l 265 929 l 207 929 l 207 478 l 265 478 l 265 401 l 324 401 l 324 326 l 500 326 l 500 401 l 558 401 l 558 478 l 676 478 l 676 326 l 617 326 l 617 250 l 558 250 l 558 175 l 500 175 l 500 25 l 442 25 z "},"È":{"ha":824,"x_min":0,"x_max":0,"o":"m 793 0 l 793 263 l 736 385 l 322 385 l 322 453 l 675 453 l 675 715 l 618 838 l 322 838 l 322 904 l 793 904 l 793 1167 l 736 1290 l 592 1290 l 501 1442 l 206 1442 l 206 1290 l 29 1290 l 29 115 l 93 0 z m 676 175 l 89 175 l 89 1231 l 324 1231 l 324 1306 l 265 1306 l 265 1382 l 442 1382 l 442 1306 l 500 1306 l 500 1231 l 676 1231 l 676 1079 l 207 1079 l 207 778 l 558 778 l 558 628 l 207 628 l 207 326 l 676 326 z "},"É":{"ha":824,"x_min":0,"x_max":0,"o":"m 793 0 l 793 263 l 736 385 l 322 385 l 322 453 l 675 453 l 675 715 l 618 838 l 322 838 l 322 904 l 793 904 l 793 1167 l 736 1290 l 675 1290 l 675 1318 l 618 1442 l 322 1442 l 322 1365 l 264 1365 l 264 1290 l 29 1290 l 29 115 l 93 0 z m 676 175 l 89 175 l 89 1231 l 324 1231 l 324 1306 l 382 1306 l 382 1382 l 558 1382 l 558 1306 l 500 1306 l 500 1231 l 676 1231 l 676 1079 l 207 1079 l 207 778 l 558 778 l 558 628 l 207 628 l 207 326 l 676 326 z "},"Ê":{"ha":824,"x_min":0,"x_max":0,"o":"m 793 0 l 793 263 l 736 385 l 322 385 l 322 453 l 675 453 l 675 715 l 618 838 l 322 838 l 322 904 l 793 904 l 793 1167 l 736 1290 l 650 1290 l 560 1442 l 264 1442 l 264 1365 l 206 1365 l 206 1290 l 29 1290 l 29 115 l 93 0 z m 676 175 l 89 175 l 89 1231 l 265 1231 l 265 1306 l 324 1306 l 324 1382 l 500 1382 l 500 1306 l 558 1306 l 558 1231 l 676 1231 l 676 1079 l 207 1079 l 207 778 l 558 778 l 558 628 l 207 628 l 207 326 l 676 326 z m 442 1231 l 442 1306 l 382 1306 l 382 1231 z "},"Ë":{"ha":824,"x_min":0,"x_max":0,"o":"m 793 0 l 793 263 l 736 385 l 322 385 l 322 453 l 675 453 l 675 715 l 618 838 l 322 838 l 322 904 l 793 904 l 793 1167 l 649 1442 l 176 1442 l 176 1290 l 29 1290 l 29 115 l 93 0 z m 676 175 l 89 175 l 89 1231 l 236 1231 l 236 1382 l 354 1382 l 354 1231 l 471 1231 l 471 1382 l 589 1382 l 589 1231 l 676 1231 l 676 1079 l 207 1079 l 207 778 l 558 778 l 558 628 l 207 628 l 207 326 l 676 326 z "},"Ì":{"ha":588,"x_min":0,"x_max":0,"o":"m 558 0 l 558 263 l 501 385 l 439 385 l 439 904 l 558 904 l 558 1167 l 501 1290 l 414 1290 l 325 1442 l 29 1442 l 29 1019 l 93 904 l 147 904 l 147 385 l 29 385 l 29 115 l 93 0 z m 442 175 l 89 175 l 89 326 l 207 326 l 207 1079 l 89 1079 l 89 1231 l 147 1231 l 147 1306 l 89 1306 l 89 1382 l 265 1382 l 265 1306 l 324 1306 l 324 1231 l 442 1231 l 442 1079 l 324 1079 l 324 326 l 442 326 z "},"Í":{"ha":588,"x_min":0,"x_max":0,"o":"m 558 0 l 558 263 l 501 385 l 439 385 l 439 904 l 558 904 l 558 1318 l 501 1442 l 206 1442 l 206 1365 l 147 1365 l 147 1290 l 29 1290 l 29 1019 l 93 904 l 147 904 l 147 385 l 29 385 l 29 115 l 93 0 z m 442 175 l 89 175 l 89 326 l 207 326 l 207 1079 l 89 1079 l 89 1231 l 207 1231 l 207 1306 l 265 1306 l 265 1382 l 442 1382 l 442 1306 l 382 1306 l 382 1231 l 442 1231 l 442 1079 l 324 1079 l 324 326 l 442 326 z "},"Î":{"ha":588,"x_min":0,"x_max":0,"o":"m 558 0 l 558 263 l 501 385 l 439 385 l 439 904 l 558 904 l 558 1242 l 442 1442 l 88 1442 l 88 1365 l 29 1365 l 29 1019 l 93 904 l 147 904 l 147 385 l 29 385 l 29 115 l 93 0 z m 442 175 l 89 175 l 89 326 l 207 326 l 207 1079 l 89 1079 l 89 1306 l 147 1306 l 147 1382 l 382 1382 l 382 1306 l 442 1306 l 442 1079 l 324 1079 l 324 326 l 442 326 z m 324 1231 l 324 1306 l 207 1306 l 207 1231 z "},"Ï":{"ha":588,"x_min":0,"x_max":0,"o":"m 558 0 l 558 263 l 501 385 l 439 385 l 439 904 l 558 904 l 558 1318 l 501 1442 l 29 1442 l 29 1019 l 93 904 l 147 904 l 147 385 l 29 385 l 29 115 l 93 0 z m 442 175 l 89 175 l 89 326 l 207 326 l 207 1079 l 89 1079 l 89 1382 l 207 1382 l 207 1231 l 324 1231 l 324 1382 l 442 1382 l 442 1079 l 324 1079 l 324 326 l 442 326 z "},"Ð":{"ha":824,"x_min":0,"x_max":0,"o":"m 617 0 l 617 75 l 675 75 l 675 150 l 733 150 l 733 301 l 793 301 l 793 867 l 560 1290 l 29 1290 l 29 838 l -29 838 l -29 568 l 29 461 l 29 115 l 93 0 z m 500 175 l 89 175 l 89 628 l 31 628 l 31 778 l 89 778 l 89 1231 l 500 1231 l 500 1156 l 558 1156 l 558 1079 l 617 1079 l 617 929 l 676 929 l 676 478 l 617 478 l 617 326 l 558 326 l 558 250 l 500 250 z m 442 326 l 442 401 l 500 401 l 500 478 l 558 478 l 558 929 l 500 929 l 500 1004 l 442 1004 l 442 1079 l 207 1079 l 207 778 l 442 778 l 442 628 l 207 628 l 207 326 z "},"Ñ":{"ha":824,"x_min":0,"x_max":0,"o":"m 793 0 l 793 1167 l 736 1290 l 675 1290 l 618 1442 l 263 1442 l 263 1368 l 206 1368 l 206 1290 l 29 1290 l 29 115 l 93 0 l 322 0 l 322 418 l 328 418 l 563 0 z m 676 175 l 558 175 l 558 250 l 500 250 l 500 401 l 442 401 l 442 478 l 382 478 l 382 628 l 324 628 l 324 778 l 265 778 l 265 929 l 207 929 l 207 175 l 89 175 l 89 1231 l 207 1231 l 207 1156 l 265 1156 l 265 1004 l 324 1004 l 324 929 l 382 929 l 382 778 l 442 778 l 442 628 l 500 628 l 500 478 l 558 478 l 558 1231 l 676 1231 z m 503 1231 l 382 1231 l 382 1306 l 326 1306 l 326 1231 l 265 1231 l 265 1308 l 321 1308 l 321 1382 l 442 1382 l 442 1306 l 499 1306 l 499 1382 l 558 1382 l 558 1303 l 503 1303 z "},"Ò":{"ha":824,"x_min":0,"x_max":0,"o":"m 617 0 l 617 75 l 675 75 l 675 150 l 733 150 l 733 301 l 793 301 l 793 867 l 442 1442 l 147 1442 l 147 1139 l 88 1139 l 88 989 l 29 989 l 29 418 l 269 0 z m 500 175 l 265 175 l 265 250 l 207 250 l 207 326 l 147 326 l 147 478 l 89 478 l 89 929 l 147 929 l 147 1079 l 207 1079 l 207 1156 l 265 1156 l 265 1306 l 207 1306 l 207 1382 l 382 1382 l 382 1306 l 442 1306 l 442 1231 l 500 1231 l 500 1156 l 558 1156 l 558 1079 l 617 1079 l 617 929 l 676 929 l 676 478 l 617 478 l 617 326 l 558 326 l 558 250 l 500 250 z m 442 326 l 442 401 l 500 401 l 500 478 l 558 478 l 558 929 l 500 929 l 500 1004 l 442 1004 l 442 1079 l 324 1079 l 324 1004 l 265 1004 l 265 929 l 207 929 l 207 478 l 265 478 l 265 401 l 324 401 l 324 326 z "},"Ó":{"ha":824,"x_min":0,"x_max":0,"o":"m 617 0 l 617 75 l 675 75 l 675 150 l 733 150 l 733 301 l 793 301 l 793 867 l 675 1139 l 675 1318 l 618 1431 l 618 1442 l 322 1442 l 322 1365 l 264 1365 l 264 1290 l 206 1290 l 206 1214 l 147 1214 l 147 1139 l 88 1139 l 88 989 l 29 989 l 29 418 l 269 0 z m 500 175 l 265 175 l 265 250 l 207 250 l 207 326 l 147 326 l 147 478 l 89 478 l 89 929 l 147 929 l 147 1079 l 207 1079 l 207 1156 l 265 1156 l 265 1231 l 324 1231 l 324 1306 l 382 1306 l 382 1382 l 558 1382 l 558 1306 l 500 1306 l 500 1156 l 558 1156 l 558 1079 l 617 1079 l 617 929 l 676 929 l 676 478 l 617 478 l 617 326 l 558 326 l 558 250 l 500 250 z m 442 326 l 442 401 l 500 401 l 500 478 l 558 478 l 558 929 l 500 929 l 500 1004 l 442 1004 l 442 1079 l 324 1079 l 324 1004 l 265 1004 l 265 929 l 207 929 l 207 478 l 265 478 l 265 401 l 324 401 l 324 326 z "},"Ô":{"ha":824,"x_min":0,"x_max":0,"o":"m 617 0 l 617 75 l 675 75 l 675 150 l 733 150 l 733 301 l 793 301 l 793 867 l 675 1129 l 675 1242 l 560 1442 l 206 1442 l 206 1365 l 147 1365 l 147 1139 l 88 1139 l 88 989 l 29 989 l 29 418 l 269 0 z m 500 175 l 265 175 l 265 250 l 207 250 l 207 326 l 147 326 l 147 478 l 89 478 l 89 929 l 147 929 l 147 1079 l 207 1079 l 207 1156 l 265 1156 l 265 1231 l 207 1231 l 207 1306 l 265 1306 l 265 1382 l 500 1382 l 500 1306 l 558 1306 l 558 1231 l 500 1231 l 500 1156 l 558 1156 l 558 1079 l 617 1079 l 617 929 l 676 929 l 676 478 l 617 478 l 617 326 l 558 326 l 558 250 l 500 250 z m 442 326 l 442 401 l 500 401 l 500 478 l 558 478 l 558 929 l 500 929 l 500 1004 l 442 1004 l 442 1079 l 324 1079 l 324 1004 l 265 1004 l 265 929 l 207 929 l 207 478 l 265 478 l 265 401 l 324 401 l 324 326 z m 442 1231 l 442 1306 l 324 1306 l 324 1231 z "},"Õ":{"ha":824,"x_min":0,"x_max":0,"o":"m 617 0 l 617 75 l 675 75 l 675 150 l 733 150 l 733 301 l 793 301 l 793 867 l 675 1129 l 675 1318 l 618 1442 l 263 1442 l 263 1368 l 206 1368 l 206 1214 l 147 1214 l 147 1139 l 88 1139 l 88 989 l 29 989 l 29 418 l 269 0 z m 500 175 l 265 175 l 265 250 l 207 250 l 207 326 l 147 326 l 147 478 l 89 478 l 89 929 l 147 929 l 147 1079 l 207 1079 l 207 1156 l 265 1156 l 265 1308 l 321 1308 l 321 1382 l 442 1382 l 442 1306 l 496 1306 l 496 1382 l 558 1382 l 558 1303 l 500 1303 l 500 1156 l 558 1156 l 558 1079 l 617 1079 l 617 929 l 676 929 l 676 478 l 617 478 l 617 326 l 558 326 l 558 250 l 500 250 z m 442 326 l 442 401 l 500 401 l 500 478 l 558 478 l 558 929 l 500 929 l 500 1004 l 442 1004 l 442 1079 l 324 1079 l 324 1004 l 265 1004 l 265 929 l 207 929 l 207 478 l 265 478 l 265 401 l 324 401 l 324 326 z m 382 1231 l 382 1306 l 326 1306 l 326 1231 z "},"Ö":{"ha":824,"x_min":0,"x_max":0,"o":"m 617 0 l 617 75 l 675 75 l 675 150 l 733 150 l 733 301 l 793 301 l 793 867 l 675 1129 l 675 1318 l 618 1442 l 147 1442 l 147 1139 l 88 1139 l 88 989 l 29 989 l 29 418 l 269 0 z m 500 175 l 265 175 l 265 250 l 207 250 l 207 326 l 147 326 l 147 478 l 89 478 l 89 929 l 147 929 l 147 1079 l 207 1079 l 207 1156 l 265 1156 l 265 1231 l 207 1231 l 207 1382 l 324 1382 l 324 1231 l 442 1231 l 442 1382 l 558 1382 l 558 1231 l 500 1231 l 500 1156 l 558 1156 l 558 1079 l 617 1079 l 617 929 l 676 929 l 676 478 l 617 478 l 617 326 l 558 326 l 558 250 l 500 250 z m 442 326 l 442 401 l 500 401 l 500 478 l 558 478 l 558 929 l 500 929 l 500 1004 l 442 1004 l 442 1079 l 324 1079 l 324 1004 l 265 1004 l 265 929 l 207 929 l 207 478 l 265 478 l 265 401 l 324 401 l 324 326 z "},"×":{"ha":765,"x_min":0,"x_max":0,"o":"m 733 225 l 733 414 l 618 603 l 675 603 l 675 678 l 733 678 l 733 867 l 676 989 l 440 989 l 440 913 l 382 913 l 382 838 l 356 838 l 267 989 l 29 989 l 29 793 l 144 613 l 88 613 l 88 538 l 29 538 l 29 342 l 93 225 l 322 225 l 322 301 l 381 301 l 381 376 l 407 376 l 504 225 z m 617 401 l 500 401 l 500 478 l 442 478 l 442 553 l 382 553 l 382 628 l 324 628 l 324 553 l 265 553 l 265 478 l 207 478 l 207 401 l 89 401 l 89 478 l 147 478 l 147 553 l 207 553 l 207 628 l 265 628 l 265 703 l 207 703 l 207 778 l 147 778 l 147 853 l 89 853 l 89 929 l 207 929 l 207 853 l 265 853 l 265 778 l 324 778 l 324 703 l 382 703 l 382 778 l 442 778 l 442 853 l 500 853 l 500 929 l 617 929 l 617 853 l 558 853 l 558 778 l 500 778 l 500 703 l 442 703 l 442 628 l 500 628 l 500 553 l 558 553 l 558 478 l 617 478 z "},"Ø":{"ha":824,"x_min":0,"x_max":0,"o":"m 617 0 l 617 75 l 675 75 l 675 150 l 733 150 l 733 301 l 793 301 l 793 1092 l 736 1214 l 592 1214 l 560 1290 l 206 1290 l 206 1214 l 147 1214 l 147 1139 l 88 1139 l 88 989 l 29 989 l 29 190 l 93 75 l 231 75 l 269 0 z m 500 175 l 265 175 l 265 250 l 207 250 l 207 326 l 147 326 l 147 250 l 89 250 l 89 401 l 147 401 l 147 478 l 89 478 l 89 929 l 147 929 l 147 1079 l 207 1079 l 207 1156 l 265 1156 l 265 1231 l 500 1231 l 500 1156 l 558 1156 l 558 1079 l 617 1079 l 617 1156 l 676 1156 l 676 1004 l 617 1004 l 617 929 l 676 929 l 676 478 l 617 478 l 617 326 l 558 326 l 558 250 l 500 250 z m 442 326 l 442 401 l 500 401 l 500 478 l 558 478 l 558 778 l 500 778 l 500 703 l 442 703 l 442 628 l 382 628 l 382 553 l 324 553 l 324 478 l 265 478 l 265 401 l 324 401 l 324 326 z m 265 628 l 265 703 l 324 703 l 324 778 l 382 778 l 382 853 l 442 853 l 442 929 l 500 929 l 500 1004 l 442 1004 l 442 1079 l 324 1079 l 324 1004 l 265 1004 l 265 929 l 207 929 l 207 628 z "},"Ù":{"ha":824,"x_min":0,"x_max":0,"o":"m 675 0 l 675 75 l 733 75 l 733 225 l 793 225 l 793 1167 l 736 1290 l 532 1290 l 442 1442 l 147 1442 l 147 1290 l 29 1290 l 29 342 l 211 0 z m 558 175 l 207 175 l 207 250 l 147 250 l 147 401 l 89 401 l 89 1231 l 207 1231 l 207 401 l 265 401 l 265 326 l 500 326 l 500 401 l 558 401 l 558 1231 l 676 1231 l 676 401 l 617 401 l 617 250 l 558 250 z m 442 1231 l 265 1231 l 265 1306 l 207 1306 l 207 1382 l 382 1382 l 382 1306 l 442 1306 z "},"Ú":{"ha":824,"x_min":0,"x_max":0,"o":"m 675 0 l 675 75 l 733 75 l 733 225 l 793 225 l 793 1167 l 736 1290 l 675 1290 l 618 1442 l 322 1442 l 322 1365 l 264 1365 l 264 1290 l 29 1290 l 29 342 l 211 0 z m 558 175 l 207 175 l 207 250 l 147 250 l 147 401 l 89 401 l 89 1231 l 207 1231 l 207 401 l 265 401 l 265 326 l 500 326 l 500 401 l 558 401 l 558 1231 l 676 1231 l 676 401 l 617 401 l 617 250 l 558 250 z m 500 1231 l 324 1231 l 324 1306 l 382 1306 l 382 1382 l 558 1382 l 558 1306 l 500 1306 z "},"Û":{"ha":824,"x_min":0,"x_max":0,"o":"m 675 0 l 675 75 l 733 75 l 733 225 l 793 225 l 793 1167 l 736 1290 l 621 1290 l 531 1442 l 236 1442 l 236 1365 l 176 1365 l 176 1290 l 29 1290 l 29 342 l 211 0 z m 558 175 l 207 175 l 207 250 l 147 250 l 147 401 l 89 401 l 89 1231 l 207 1231 l 207 401 l 265 401 l 265 326 l 500 326 l 500 401 l 558 401 l 558 1231 l 676 1231 l 676 401 l 617 401 l 617 250 l 558 250 z m 531 1231 l 413 1231 l 413 1306 l 354 1306 l 354 1231 l 236 1231 l 236 1306 l 296 1306 l 296 1382 l 471 1382 l 471 1306 l 531 1306 z "},"Ü":{"ha":824,"x_min":0,"x_max":0,"o":"m 675 0 l 675 75 l 733 75 l 733 225 l 793 225 l 793 1167 l 736 1290 l 676 1290 l 621 1442 l 144 1442 l 144 1290 l 29 1290 l 29 342 l 211 0 z m 558 175 l 207 175 l 207 250 l 147 250 l 147 401 l 89 401 l 89 1231 l 204 1231 l 204 1382 l 324 1382 l 324 1228 l 207 1228 l 207 401 l 265 401 l 265 326 l 500 326 l 500 401 l 558 401 l 558 1228 l 442 1228 l 442 1382 l 561 1382 l 561 1231 l 676 1231 l 676 401 l 617 401 l 617 250 l 558 250 z "},"Ý":{"ha":824,"x_min":0,"x_max":0,"o":"m 558 0 l 558 453 l 617 453 l 617 603 l 675 603 l 675 754 l 733 754 l 733 904 l 793 904 l 793 1167 l 736 1290 l 646 1290 l 590 1442 l 294 1442 l 294 1365 l 236 1365 l 236 1290 l 29 1290 l 29 1019 l 264 461 l 264 115 l 328 0 z m 442 175 l 324 175 l 324 628 l 265 628 l 265 778 l 207 778 l 207 929 l 147 929 l 147 1079 l 89 1079 l 89 1231 l 207 1231 l 207 1079 l 265 1079 l 265 929 l 324 929 l 324 778 l 442 778 l 442 929 l 500 929 l 500 1079 l 558 1079 l 558 1231 l 676 1231 l 676 1079 l 617 1079 l 617 929 l 558 929 l 558 778 l 500 778 l 500 628 l 442 628 z m 471 1231 l 296 1231 l 296 1306 l 354 1306 l 354 1382 l 531 1382 l 531 1306 l 471 1306 z "},"Þ":{"ha":824,"x_min":0,"x_max":0,"o":"m 675 150 l 675 225 l 733 225 l 733 301 l 793 301 l 793 790 l 618 1064 l 322 1064 l 322 1167 l 267 1290 l 29 1290 l 29 115 l 93 0 l 322 0 l 322 150 z m 558 326 l 207 326 l 207 175 l 89 175 l 89 1231 l 207 1231 l 207 1004 l 558 1004 l 558 929 l 617 929 l 617 853 l 676 853 l 676 478 l 617 478 l 617 401 l 558 401 z m 500 478 l 500 553 l 558 553 l 558 778 l 500 778 l 500 853 l 207 853 l 207 478 z "},"ß":{"ha":765,"x_min":0,"x_max":0,"o":"m 675 0 l 675 75 l 733 75 l 733 564 l 675 688 l 675 1017 l 501 1290 l 147 1290 l 147 1214 l 88 1214 l 88 1139 l 29 1139 l 29 115 l 93 0 z m 558 175 l 324 175 l 324 250 l 265 250 l 265 326 l 500 326 l 500 628 l 442 628 l 442 703 l 324 703 l 324 778 l 382 778 l 382 853 l 442 853 l 442 1004 l 382 1004 l 382 1079 l 265 1079 l 265 1004 l 207 1004 l 207 175 l 89 175 l 89 1079 l 147 1079 l 147 1156 l 207 1156 l 207 1231 l 442 1231 l 442 1156 l 500 1156 l 500 1079 l 558 1079 l 558 778 l 500 778 l 500 703 l 558 703 l 558 628 l 617 628 l 617 250 l 558 250 z "},"à":{"ha":824,"x_min":0,"x_max":0,"o":"m 793 0 l 793 715 l 676 913 l 617 913 l 443 1214 l 147 1214 l 147 1019 l 206 913 l 147 913 l 147 838 l 88 838 l 88 538 l 29 538 l 29 190 l 151 0 z m 676 175 l 147 175 l 147 250 l 89 250 l 89 478 l 147 478 l 147 553 l 207 553 l 207 628 l 558 628 l 558 703 l 147 703 l 147 778 l 207 778 l 207 853 l 617 853 l 617 778 l 676 778 z m 558 326 l 558 478 l 207 478 l 207 326 z m 500 929 l 324 929 l 324 1004 l 265 1004 l 265 1079 l 207 1079 l 207 1156 l 383 1156 l 383 1079 l 442 1079 l 442 1004 l 500 1004 z "},"á":{"ha":824,"x_min":0,"x_max":0,"o":"m 793 0 l 793 715 l 676 901 l 676 1092 l 619 1214 l 324 1214 l 324 1139 l 265 1139 l 265 1064 l 206 1064 l 206 913 l 147 913 l 147 838 l 88 838 l 88 538 l 29 538 l 29 190 l 151 0 z m 676 175 l 147 175 l 147 250 l 89 250 l 89 478 l 147 478 l 147 553 l 207 553 l 207 628 l 558 628 l 558 703 l 147 703 l 147 778 l 207 778 l 207 853 l 617 853 l 617 778 l 676 778 z m 558 326 l 558 478 l 207 478 l 207 326 z m 442 929 l 265 929 l 265 1004 l 325 1004 l 325 1079 l 383 1079 l 383 1156 l 560 1156 l 560 1079 l 500 1079 l 500 1004 l 442 1004 z "},"â":{"ha":824,"x_min":0,"x_max":0,"o":"m 793 0 l 793 715 l 501 1214 l 324 1214 l 324 1139 l 264 1139 l 264 1064 l 206 1064 l 206 913 l 147 913 l 147 838 l 88 838 l 88 538 l 29 538 l 29 190 l 151 0 z m 676 175 l 147 175 l 147 250 l 89 250 l 89 478 l 147 478 l 147 553 l 207 553 l 207 628 l 558 628 l 558 703 l 147 703 l 147 778 l 207 778 l 207 853 l 617 853 l 617 778 l 676 778 z m 558 326 l 558 478 l 207 478 l 207 326 z m 558 929 l 442 929 l 442 1004 l 383 1004 l 383 929 l 265 929 l 265 1004 l 324 1004 l 324 1079 l 383 1079 l 383 1156 l 442 1156 l 442 1079 l 500 1079 l 500 1004 l 558 1004 z "},"ã":{"ha":824,"x_min":0,"x_max":0,"o":"m 793 0 l 793 715 l 675 901 l 675 1017 l 618 1139 l 263 1139 l 263 1067 l 206 1067 l 206 913 l 147 913 l 147 838 l 88 838 l 88 538 l 29 538 l 29 190 l 151 0 z m 676 175 l 147 175 l 147 250 l 89 250 l 89 478 l 147 478 l 147 553 l 207 553 l 207 628 l 558 628 l 558 703 l 147 703 l 147 778 l 207 778 l 207 853 l 617 853 l 617 778 l 676 778 z m 558 326 l 558 478 l 207 478 l 207 326 z m 503 929 l 383 929 l 383 1004 l 326 1004 l 326 929 l 265 929 l 265 1007 l 321 1007 l 321 1079 l 442 1079 l 442 1004 l 499 1004 l 499 1079 l 558 1079 l 558 1003 l 503 1003 z "},"ä":{"ha":824,"x_min":0,"x_max":0,"o":"m 793 0 l 793 715 l 675 901 l 675 1017 l 618 1139 l 146 1139 l 146 838 l 88 838 l 88 538 l 29 538 l 29 190 l 151 0 z m 676 175 l 147 175 l 147 250 l 89 250 l 89 478 l 147 478 l 147 553 l 207 553 l 207 628 l 558 628 l 558 703 l 147 703 l 147 778 l 207 778 l 207 853 l 617 853 l 617 778 l 676 778 z m 558 326 l 558 478 l 207 478 l 207 326 z m 558 929 l 440 929 l 440 1079 l 558 1079 z m 324 929 l 206 929 l 206 1079 l 324 1079 z "},"å":{"ha":824,"x_min":0,"x_max":0,"o":"m 793 0 l 793 715 l 675 901 l 675 1017 l 560 1214 l 206 1214 l 206 1139 l 146 1139 l 147 838 l 88 838 l 88 538 l 29 538 l 29 190 l 151 0 z m 676 175 l 147 175 l 147 250 l 89 250 l 89 478 l 147 478 l 147 553 l 207 553 l 207 628 l 558 628 l 558 703 l 147 703 l 147 778 l 207 778 l 207 853 l 617 853 l 617 778 l 676 778 z m 500 929 l 265 929 l 265 1004 l 206 1004 l 206 1079 l 265 1079 l 265 1156 l 500 1156 l 500 1079 l 558 1079 l 558 1004 l 500 1004 z m 558 326 l 558 478 l 207 478 l 207 326 z m 440 1004 l 440 1079 l 324 1079 l 324 1004 z "},"æ":{"ha":1175,"x_min":0,"x_max":0,"o":"m 1028 0 l 1028 75 l 1086 75 l 1086 376 l 1144 376 l 1144 639 l 972 913 l 147 913 l 147 838 l 88 838 l 88 538 l 29 538 l 29 190 l 151 0 z m 913 175 l 147 175 l 147 250 l 89 250 l 89 478 l 147 478 l 147 553 l 207 553 l 207 628 l 500 628 l 500 703 l 147 703 l 147 778 l 207 778 l 207 853 l 558 853 l 558 778 l 617 778 l 617 853 l 913 853 l 913 778 l 971 778 l 971 703 l 1029 703 l 1029 553 l 971 553 l 971 478 l 617 478 l 617 401 l 676 401 l 676 326 l 971 326 l 971 250 l 913 250 z m 500 326 l 500 478 l 207 478 l 207 326 z m 913 628 l 913 703 l 676 703 l 676 628 z "},"ç":{"ha":824,"x_min":0,"x_max":0,"o":"m 558 -225 l 558 -150 l 617 -150 l 617 0 l 675 0 l 675 75 l 733 75 l 733 150 l 793 150 l 793 338 l 736 453 l 793 453 l 793 639 l 618 913 l 147 913 l 147 838 l 88 838 l 88 763 l 29 763 l 29 267 l 211 0 l 264 0 l 264 -110 l 328 -225 z m 442 -50 l 324 -50 l 324 25 l 382 25 l 382 175 l 207 175 l 207 250 l 147 250 l 147 326 l 89 326 l 89 703 l 147 703 l 147 778 l 207 778 l 207 853 l 558 853 l 558 778 l 617 778 l 617 703 l 676 703 l 676 628 l 558 628 l 558 703 l 265 703 l 265 628 l 207 628 l 207 401 l 265 401 l 265 326 l 558 326 l 558 401 l 676 401 l 676 326 l 617 326 l 617 250 l 558 250 l 558 175 l 500 175 l 500 25 l 442 25 z "},"è":{"ha":824,"x_min":0,"x_max":0,"o":"m 675 0 l 675 75 l 733 75 l 733 376 l 793 376 l 793 639 l 617 901 l 617 942 l 443 1214 l 147 1214 l 147 1019 l 206 913 l 147 913 l 147 838 l 88 838 l 88 763 l 29 763 l 29 267 l 93 150 l 113 150 l 151 75 l 172 75 l 211 0 z m 558 175 l 207 175 l 207 250 l 147 250 l 147 326 l 89 326 l 89 703 l 147 703 l 147 778 l 207 778 l 207 853 l 558 853 l 558 778 l 617 778 l 617 703 l 676 703 l 676 553 l 617 553 l 617 478 l 207 478 l 207 401 l 265 401 l 265 326 l 617 326 l 617 250 l 558 250 z m 500 929 l 324 929 l 324 1004 l 265 1004 l 265 1079 l 207 1079 l 207 1156 l 383 1156 l 383 1079 l 442 1079 l 442 1004 l 500 1004 z m 558 628 l 558 703 l 265 703 l 265 628 z "},"é":{"ha":824,"x_min":0,"x_max":0,"o":"m 675 0 l 675 75 l 733 75 l 733 376 l 793 376 l 793 639 l 618 904 l 676 904 l 676 1092 l 619 1214 l 324 1214 l 324 1139 l 265 1139 l 265 1064 l 206 1064 l 206 913 l 147 913 l 147 838 l 88 838 l 88 763 l 29 763 l 29 267 l 211 0 z m 558 175 l 207 175 l 207 250 l 147 250 l 147 326 l 89 326 l 89 703 l 147 703 l 147 778 l 207 778 l 207 853 l 558 853 l 558 778 l 617 778 l 617 703 l 676 703 l 676 553 l 617 553 l 617 478 l 207 478 l 207 401 l 265 401 l 265 326 l 617 326 l 617 250 l 558 250 z m 442 929 l 265 929 l 265 1004 l 325 1004 l 325 1079 l 383 1079 l 383 1156 l 560 1156 l 560 1079 l 500 1079 l 500 1004 l 442 1004 z m 558 628 l 558 703 l 265 703 l 265 628 z "},"ê":{"ha":824,"x_min":0,"x_max":0,"o":"m 675 0 l 675 75 l 733 75 l 733 376 l 793 376 l 793 639 l 644 850 l 644 942 l 472 1214 l 294 1214 l 294 1139 l 235 1139 l 235 1064 l 176 1064 l 176 913 l 147 913 l 147 838 l 88 838 l 88 763 l 29 763 l 29 267 l 211 0 z m 558 175 l 207 175 l 207 250 l 147 250 l 147 326 l 89 326 l 89 703 l 147 703 l 147 778 l 207 778 l 207 853 l 558 853 l 558 778 l 617 778 l 617 703 l 676 703 l 676 553 l 617 553 l 617 478 l 207 478 l 207 401 l 265 401 l 265 326 l 617 326 l 617 250 l 558 250 z m 529 929 l 413 929 l 413 1004 l 354 1004 l 354 929 l 236 929 l 236 1004 l 294 1004 l 294 1079 l 354 1079 l 354 1156 l 413 1156 l 413 1079 l 471 1079 l 471 1004 l 529 1004 z m 558 628 l 558 703 l 265 703 l 265 628 z "},"ë":{"ha":824,"x_min":0,"x_max":0,"o":"m 675 0 l 675 75 l 733 75 l 733 376 l 793 376 l 793 639 l 675 826 l 675 1017 l 618 1139 l 146 1139 l 146 838 l 88 838 l 88 763 l 29 763 l 29 267 l 211 0 z m 558 175 l 207 175 l 207 250 l 147 250 l 147 326 l 89 326 l 89 703 l 147 703 l 147 778 l 207 778 l 207 853 l 558 853 l 558 778 l 617 778 l 617 703 l 676 703 l 676 553 l 617 553 l 617 478 l 207 478 l 207 401 l 265 401 l 265 326 l 617 326 l 617 250 l 558 250 z m 558 628 l 558 703 l 265 703 l 265 628 z m 558 929 l 440 929 l 440 1079 l 558 1079 z m 324 929 l 206 929 l 206 1079 l 324 1079 z "},"ì":{"ha":529,"x_min":0,"x_max":0,"o":"m 558 0 l 558 263 l 501 385 l 439 385 l 439 942 l 267 1214 l -29 1214 l -29 1019 l 88 839 l 88 643 l 147 535 l 147 385 l 29 385 l 29 115 l 93 0 z m 442 175 l 89 175 l 89 326 l 207 326 l 207 703 l 147 703 l 147 853 l 324 853 l 324 326 l 442 326 z m 324 929 l 147 929 l 147 1004 l 89 1004 l 89 1079 l 31 1079 l 31 1156 l 207 1156 l 207 1079 l 265 1079 l 265 1004 l 324 1004 z "},"í":{"ha":529,"x_min":0,"x_max":0,"o":"m 558 0 l 558 263 l 501 385 l 439 385 l 439 829 l 499 829 l 499 904 l 558 904 l 558 1092 l 501 1214 l 206 1214 l 206 1139 l 147 1139 l 147 1064 l 88 1064 l 88 643 l 147 535 l 147 385 l 29 385 l 29 115 l 93 0 z m 442 175 l 89 175 l 89 326 l 207 326 l 207 703 l 147 703 l 147 853 l 324 853 l 324 326 l 442 326 z m 324 929 l 147 929 l 147 1004 l 207 1004 l 207 1079 l 265 1079 l 265 1156 l 442 1156 l 442 1079 l 382 1079 l 382 1004 l 324 1004 z "},"î":{"ha":529,"x_min":0,"x_max":0,"o":"m 558 0 l 558 263 l 501 385 l 439 385 l 439 754 l 499 754 l 499 942 l 325 1214 l 147 1214 l 147 1139 l 88 1139 l 88 1064 l 29 1064 l 29 869 l 88 764 l 88 643 l 147 535 l 147 385 l 29 385 l 29 115 l 93 0 z m 442 175 l 89 175 l 89 326 l 207 326 l 207 703 l 147 703 l 147 853 l 324 853 l 324 326 l 442 326 z m 382 929 l 265 929 l 265 1004 l 207 1004 l 207 929 l 89 929 l 89 1004 l 147 1004 l 147 1079 l 207 1079 l 207 1156 l 265 1156 l 265 1079 l 324 1079 l 324 1004 l 382 1004 z "},"ï":{"ha":529,"x_min":0,"x_max":0,"o":"m 558 0 l 558 263 l 501 385 l 439 385 l 439 754 l 558 754 l 558 1017 l 501 1139 l 29 1139 l 29 869 l 88 764 l 88 643 l 147 535 l 147 385 l 29 385 l 29 115 l 93 0 z m 442 175 l 89 175 l 89 326 l 207 326 l 207 703 l 147 703 l 147 853 l 324 853 l 324 326 l 442 326 z m 442 929 l 324 929 l 324 1079 l 442 1079 z m 207 929 l 89 929 l 89 1079 l 207 1079 z "},"ð":{"ha":882,"x_min":0,"x_max":0,"o":"m 733 0 l 733 75 l 793 75 l 793 150 l 851 150 l 851 715 l 793 826 l 793 979 l 851 979 l 851 1167 l 794 1290 l 558 1290 l 558 1214 l 532 1214 l 501 1290 l 147 1290 l 147 763 l 88 763 l 88 688 l 29 688 l 29 267 l 211 0 z m 617 175 l 207 175 l 207 250 l 147 250 l 147 326 l 89 326 l 89 628 l 147 628 l 147 703 l 207 703 l 207 778 l 558 778 l 558 853 l 500 853 l 500 929 l 442 929 l 442 1003 l 386 1003 l 386 929 l 324 929 l 324 853 l 207 853 l 207 929 l 265 929 l 265 1004 l 381 1004 l 381 1079 l 207 1079 l 207 1231 l 442 1231 l 442 1156 l 500 1156 l 500 1079 l 557 1079 l 557 1156 l 617 1156 l 617 1231 l 736 1231 l 736 1156 l 676 1156 l 676 1078 l 561 1078 l 561 1004 l 617 1004 l 617 929 l 676 929 l 676 778 l 736 778 l 736 326 l 676 326 l 676 250 l 617 250 z m 558 326 l 558 401 l 617 401 l 617 553 l 558 553 l 558 628 l 265 628 l 265 553 l 207 553 l 207 401 l 267 401 l 267 326 z "},"ñ":{"ha":765,"x_min":0,"x_max":0,"o":"m 733 0 l 733 639 l 617 826 l 617 1017 l 560 1139 l 203 1139 l 203 1067 l 147 1067 l 147 913 l 29 913 l 29 115 l 93 0 l 322 0 l 322 528 l 407 528 l 440 461 l 440 115 l 504 0 z m 617 175 l 500 175 l 500 628 l 442 628 l 442 703 l 207 703 l 207 175 l 89 175 l 89 853 l 500 853 l 500 778 l 558 778 l 558 703 l 617 703 z m 444 929 l 325 929 l 325 1004 l 268 1004 l 268 929 l 207 929 l 207 1007 l 263 1007 l 263 1079 l 383 1079 l 383 1004 l 439 1004 l 439 1079 l 500 1079 l 500 1003 l 444 1003 z "},"ò":{"ha":824,"x_min":0,"x_max":0,"o":"m 675 0 l 675 75 l 733 75 l 733 150 l 793 150 l 793 639 l 443 1214 l 147 1214 l 147 1019 l 206 913 l 147 913 l 147 838 l 88 838 l 88 763 l 29 763 l 29 267 l 211 0 z m 558 175 l 207 175 l 207 250 l 147 250 l 147 326 l 89 326 l 89 703 l 147 703 l 147 778 l 207 778 l 207 853 l 558 853 l 558 778 l 617 778 l 617 703 l 676 703 l 676 326 l 617 326 l 617 250 l 558 250 z m 500 326 l 500 401 l 558 401 l 558 628 l 500 628 l 500 703 l 265 703 l 265 628 l 207 628 l 207 401 l 265 401 l 265 326 z m 500 929 l 324 929 l 324 1004 l 265 1004 l 265 1079 l 207 1079 l 207 1156 l 383 1156 l 383 1079 l 442 1079 l 442 1004 l 500 1004 z "},"ó":{"ha":824,"x_min":0,"x_max":0,"o":"m 675 0 l 675 75 l 733 75 l 733 150 l 793 150 l 793 639 l 618 904 l 676 904 l 676 1092 l 619 1214 l 324 1214 l 324 1139 l 265 1139 l 265 1064 l 206 1064 l 206 913 l 147 913 l 147 838 l 88 838 l 88 763 l 29 763 l 29 267 l 211 0 z m 558 175 l 207 175 l 207 250 l 147 250 l 147 326 l 89 326 l 89 703 l 147 703 l 147 778 l 207 778 l 207 853 l 558 853 l 558 778 l 617 778 l 617 703 l 676 703 l 676 326 l 617 326 l 617 250 l 558 250 z m 500 326 l 500 401 l 558 401 l 558 628 l 500 628 l 500 703 l 265 703 l 265 628 l 207 628 l 207 401 l 265 401 l 265 326 z m 442 929 l 265 929 l 265 1004 l 325 1004 l 325 1079 l 383 1079 l 383 1156 l 560 1156 l 560 1079 l 500 1079 l 500 1004 l 442 1004 z "},"ô":{"ha":824,"x_min":0,"x_max":0,"o":"m 675 0 l 675 75 l 733 75 l 733 150 l 793 150 l 793 639 l 472 1214 l 294 1214 l 294 1139 l 235 1139 l 235 1064 l 176 1064 l 176 913 l 147 913 l 147 838 l 88 838 l 88 763 l 29 763 l 29 267 l 211 0 z m 558 175 l 207 175 l 207 250 l 147 250 l 147 326 l 89 326 l 89 703 l 147 703 l 147 778 l 207 778 l 207 853 l 558 853 l 558 778 l 617 778 l 617 703 l 676 703 l 676 326 l 617 326 l 617 250 l 558 250 z m 500 326 l 500 401 l 558 401 l 558 628 l 500 628 l 500 703 l 265 703 l 265 628 l 207 628 l 207 401 l 265 401 l 265 326 z m 529 929 l 413 929 l 413 1004 l 354 1004 l 354 929 l 236 929 l 236 1004 l 294 1004 l 294 1079 l 354 1079 l 354 1156 l 413 1156 l 413 1079 l 471 1079 l 471 1004 l 529 1004 z "},"õ":{"ha":824,"x_min":0,"x_max":0,"o":"m 675 0 l 675 75 l 733 75 l 733 150 l 793 150 l 793 639 l 589 1139 l 232 1139 l 232 1067 l 176 1067 l 176 913 l 147 913 l 147 838 l 88 838 l 88 763 l 29 763 l 29 267 l 211 0 z m 558 175 l 207 175 l 207 250 l 147 250 l 147 326 l 89 326 l 89 703 l 147 703 l 147 778 l 207 778 l 207 853 l 558 853 l 558 778 l 617 778 l 617 703 l 676 703 l 676 326 l 617 326 l 617 250 l 558 250 z m 500 326 l 500 401 l 558 401 l 558 628 l 500 628 l 500 703 l 265 703 l 265 628 l 207 628 l 207 401 l 265 401 l 265 326 z m 474 929 l 354 929 l 354 1004 l 296 1004 l 296 929 l 236 929 l 236 1007 l 292 1007 l 292 1079 l 413 1079 l 413 1004 l 468 1004 l 468 1079 l 529 1079 l 529 1003 l 474 1003 z "},"ö":{"ha":824,"x_min":0,"x_max":0,"o":"m 675 0 l 675 75 l 733 75 l 733 150 l 793 150 l 793 639 l 675 826 l 675 1017 l 618 1139 l 146 1139 l 146 838 l 88 838 l 88 763 l 29 763 l 29 267 l 211 0 z m 558 175 l 207 175 l 207 250 l 147 250 l 147 326 l 89 326 l 89 703 l 147 703 l 147 778 l 207 778 l 207 853 l 558 853 l 558 778 l 617 778 l 617 703 l 676 703 l 676 326 l 617 326 l 617 250 l 558 250 z m 500 326 l 500 401 l 558 401 l 558 628 l 500 628 l 500 703 l 265 703 l 265 628 l 207 628 l 207 401 l 265 401 l 265 326 z m 324 929 l 206 929 l 206 1079 l 324 1079 z m 558 929 l 440 929 l 440 1079 l 558 1079 z "},"÷":{"ha":706,"x_min":0,"x_max":0,"o":"m 528 75 l 528 376 l 675 376 l 675 639 l 618 763 l 528 763 l 528 942 l 472 1064 l 176 1064 l 176 763 l 29 763 l 29 493 l 93 376 l 176 376 l 176 190 l 239 75 z m 558 553 l 89 553 l 89 703 l 558 703 z m 413 250 l 236 250 l 236 478 l 413 478 z m 413 778 l 236 778 l 236 1004 l 413 1004 z "},"ø":{"ha":824,"x_min":0,"x_max":0,"o":"m 675 0 l 675 75 l 733 75 l 733 150 l 793 150 l 793 790 l 736 913 l 147 913 l 147 838 l 88 838 l 88 763 l 29 763 l 29 115 l 93 0 z m 558 175 l 207 175 l 207 249 l 151 249 l 151 175 l 89 175 l 89 253 l 144 253 l 144 326 l 89 326 l 89 703 l 147 703 l 147 778 l 207 778 l 207 853 l 558 853 l 558 781 l 615 781 l 615 853 l 676 853 l 676 775 l 621 775 l 621 703 l 676 703 l 676 326 l 617 326 l 617 250 l 558 250 z m 500 326 l 500 401 l 558 401 l 558 628 l 500 628 l 500 553 l 442 553 l 442 478 l 382 478 l 382 401 l 324 401 l 324 326 z m 265 401 l 265 478 l 324 478 l 324 553 l 382 553 l 382 628 l 442 628 l 442 703 l 265 703 l 265 628 l 207 628 l 207 401 z "},"ù":{"ha":824,"x_min":0,"x_max":0,"o":"m 793 0 l 793 790 l 736 913 l 617 913 l 443 1214 l 147 1214 l 147 1019 l 206 913 l 29 913 l 29 267 l 211 0 z m 676 175 l 558 175 l 558 250 l 500 250 l 500 175 l 207 175 l 207 250 l 147 250 l 147 326 l 89 326 l 89 853 l 207 853 l 207 401 l 265 401 l 265 326 l 500 326 l 500 401 l 558 401 l 558 853 l 676 853 z m 500 929 l 324 929 l 324 1004 l 265 1004 l 265 1079 l 207 1079 l 207 1156 l 383 1156 l 383 1079 l 442 1079 l 442 1004 l 500 1004 z "},"ú":{"ha":824,"x_min":0,"x_max":0,"o":"m 793 0 l 793 790 l 736 913 l 676 913 l 676 1092 l 619 1214 l 324 1214 l 324 1139 l 265 1139 l 265 1064 l 206 1064 l 206 913 l 29 913 l 29 267 l 211 0 z m 676 175 l 558 175 l 558 250 l 500 250 l 500 175 l 207 175 l 207 250 l 147 250 l 147 326 l 89 326 l 89 853 l 207 853 l 207 401 l 265 401 l 265 326 l 500 326 l 500 401 l 558 401 l 558 853 l 676 853 z m 442 929 l 265 929 l 265 1004 l 325 1004 l 325 1079 l 383 1079 l 383 1156 l 560 1156 l 560 1079 l 500 1079 l 500 1004 l 442 1004 z "},"û":{"ha":824,"x_min":0,"x_max":0,"o":"m 793 0 l 793 790 l 736 913 l 644 913 l 472 1214 l 294 1214 l 294 1139 l 235 1139 l 235 1064 l 176 1064 l 176 913 l 29 913 l 29 267 l 211 0 z m 676 175 l 558 175 l 558 250 l 500 250 l 500 175 l 207 175 l 207 250 l 147 250 l 147 326 l 89 326 l 89 853 l 207 853 l 207 401 l 265 401 l 265 326 l 500 326 l 500 401 l 558 401 l 558 853 l 676 853 z m 529 929 l 413 929 l 413 1004 l 354 1004 l 354 929 l 236 929 l 236 1004 l 294 1004 l 294 1079 l 354 1079 l 354 1156 l 413 1156 l 413 1079 l 471 1079 l 471 1004 l 529 1004 z "},"ü":{"ha":824,"x_min":0,"x_max":0,"o":"m 793 0 l 793 790 l 736 913 l 675 913 l 675 1017 l 618 1139 l 146 1139 l 146 913 l 29 913 l 29 267 l 211 0 z m 676 175 l 558 175 l 558 250 l 500 250 l 500 175 l 207 175 l 207 250 l 147 250 l 147 326 l 89 326 l 89 853 l 207 853 l 207 401 l 265 401 l 265 326 l 500 326 l 500 401 l 558 401 l 558 853 l 676 853 z m 558 929 l 440 929 l 440 1079 l 558 1079 z m 324 929 l 206 929 l 206 1079 l 324 1079 z "},"ý":{"ha":706,"x_min":0,"x_max":0,"o":"m 381 -150 l 381 -75 l 439 -75 l 439 75 l 499 75 l 499 225 l 558 225 l 558 376 l 615 376 l 615 528 l 675 528 l 675 790 l 617 901 l 617 1092 l 560 1214 l 264 1214 l 264 1139 l 206 1139 l 206 1064 l 146 1064 l 146 913 l 29 913 l 29 643 l 168 310 l 147 310 l 147 160 l 88 160 l 88 -35 l 151 -150 z m 265 25 l 147 25 l 147 100 l 207 100 l 207 250 l 265 250 l 265 401 l 207 401 l 207 553 l 147 553 l 147 703 l 89 703 l 89 853 l 207 853 l 207 703 l 265 703 l 265 553 l 382 553 l 382 703 l 442 703 l 442 853 l 558 853 l 558 703 l 499 703 l 499 553 l 442 553 l 442 401 l 382 401 l 382 250 l 324 250 l 324 100 l 265 100 z m 382 929 l 206 929 l 206 1004 l 265 1004 l 265 1079 l 324 1079 l 324 1156 l 500 1156 l 500 1079 l 440 1079 l 440 1004 l 382 1004 z "},"þ":{"ha":824,"x_min":0,"x_max":0,"o":"m 733 150 l 733 225 l 793 225 l 793 639 l 618 913 l 322 913 l 322 1167 l 267 1290 l 29 1290 l 29 -35 l 35 -35 l 93 -150 l 322 -150 l 322 97 l 675 97 l 675 150 z m 617 326 l 558 326 l 558 272 l 207 272 l 207 25 l 89 25 l 89 1231 l 207 1231 l 207 778 l 265 778 l 265 853 l 558 853 l 558 778 l 617 778 l 617 703 l 676 703 l 676 401 l 617 401 z m 500 401 l 500 478 l 558 478 l 558 628 l 500 628 l 500 703 l 265 703 l 265 628 l 207 628 l 207 401 z "},"ÿ":{"ha":706,"x_min":0,"x_max":0,"o":"m 381 -150 l 381 -75 l 439 -75 l 439 75 l 499 75 l 499 225 l 558 225 l 558 376 l 615 376 l 615 528 l 675 528 l 675 790 l 617 901 l 617 1017 l 560 1139 l 88 1139 l 88 913 l 29 913 l 29 643 l 168 310 l 147 310 l 147 160 l 88 160 l 88 -35 l 151 -150 z m 265 25 l 147 25 l 147 100 l 207 100 l 207 250 l 265 250 l 265 401 l 207 401 l 207 553 l 147 553 l 147 703 l 89 703 l 89 853 l 207 853 l 207 703 l 265 703 l 265 553 l 382 553 l 382 703 l 442 703 l 442 853 l 558 853 l 558 703 l 499 703 l 499 553 l 442 553 l 442 401 l 382 401 l 382 250 l 324 250 l 324 100 l 265 100 z m 500 929 l 382 929 l 382 1079 l 500 1079 z m 265 929 l 147 929 l 147 1079 l 265 1079 z "},"Ā":{"ha":824,"x_min":0,"x_max":0,"o":"m 793 0 l 793 338 l 560 1128 l 560 1129 l 678 1129 l 678 1318 l 622 1442 l 151 1442 l 151 1246 l 206 1144 l 206 913 l 147 913 l 147 688 l 88 688 l 88 461 l 29 461 l 29 115 l 93 0 l 322 0 l 322 225 l 499 225 l 499 115 l 563 0 z m 676 175 l 558 175 l 558 401 l 207 401 l 207 175 l 89 175 l 89 401 l 147 401 l 147 628 l 207 628 l 207 853 l 265 853 l 265 1079 l 324 1079 l 324 1231 l 442 1231 l 442 1079 l 500 1079 l 500 853 l 558 853 l 558 628 l 617 628 l 617 401 l 676 401 z m 500 553 l 500 628 l 442 628 l 442 853 l 324 853 l 324 628 l 265 628 l 265 553 z m 563 1306 l 211 1306 l 211 1382 l 563 1382 z "},"ā":{"ha":824,"x_min":0,"x_max":0,"o":"m 793 0 l 793 715 l 618 1064 l 206 1064 l 206 913 l 147 913 l 147 838 l 88 838 l 88 538 l 29 538 l 29 190 l 151 0 z m 676 175 l 147 175 l 147 250 l 89 250 l 89 478 l 147 478 l 147 553 l 207 553 l 207 628 l 558 628 l 558 703 l 147 703 l 147 778 l 207 778 l 207 853 l 617 853 l 617 778 l 676 778 z m 558 326 l 558 478 l 207 478 l 207 326 z m 558 929 l 265 929 l 265 1004 l 558 1004 z "},"Ă":{"ha":824,"x_min":0,"x_max":0,"o":"m 793 0 l 793 338 l 617 903 l 617 1129 l 675 1129 l 675 1318 l 618 1442 l 147 1442 l 147 1246 l 206 1139 l 206 913 l 147 913 l 147 688 l 88 688 l 88 461 l 29 461 l 29 115 l 93 0 l 322 0 l 322 225 l 499 225 l 499 115 l 563 0 z m 676 175 l 558 175 l 558 401 l 207 401 l 207 175 l 89 175 l 89 401 l 147 401 l 147 628 l 207 628 l 207 853 l 265 853 l 265 1079 l 324 1079 l 324 1231 l 265 1231 l 265 1306 l 207 1306 l 207 1382 l 324 1382 l 324 1306 l 442 1306 l 442 1382 l 558 1382 l 558 1306 l 500 1306 l 500 1231 l 442 1231 l 442 1079 l 500 1079 l 500 853 l 558 853 l 558 628 l 617 628 l 617 401 l 676 401 z m 500 553 l 500 628 l 442 628 l 442 853 l 324 853 l 324 628 l 265 628 l 265 553 z "},"ă":{"ha":824,"x_min":0,"x_max":0,"o":"m 793 0 l 793 715 l 675 901 l 675 1092 l 618 1214 l 206 1214 l 206 944 l 226 913 l 147 913 l 147 838 l 88 838 l 88 538 l 29 538 l 29 190 l 151 0 z m 676 175 l 147 175 l 147 250 l 89 250 l 89 478 l 147 478 l 147 553 l 207 553 l 207 628 l 558 628 l 558 703 l 147 703 l 147 778 l 207 778 l 207 853 l 617 853 l 617 778 l 676 778 z m 558 326 l 558 478 l 207 478 l 207 326 z m 500 929 l 324 929 l 324 1004 l 265 1004 l 265 1156 l 383 1156 l 383 1004 l 442 1004 l 442 1156 l 558 1156 l 558 1004 l 500 1004 z "},"Ą":{"ha":824,"x_min":0,"x_max":0,"o":"m 793 -225 l 793 338 l 501 1290 l 264 1290 l 264 1139 l 206 1139 l 206 913 l 147 913 l 147 688 l 88 688 l 88 461 l 29 461 l 29 115 l 93 0 l 322 0 l 322 225 l 440 225 l 440 -110 l 504 -225 z m 676 -50 l 500 -50 l 500 175 l 558 175 l 558 401 l 207 401 l 207 175 l 89 175 l 89 401 l 147 401 l 147 628 l 207 628 l 207 853 l 265 853 l 265 1079 l 324 1079 l 324 1231 l 442 1231 l 442 1079 l 500 1079 l 500 853 l 558 853 l 558 628 l 617 628 l 617 401 l 676 401 l 676 175 l 617 175 l 617 100 l 676 100 z m 500 553 l 500 628 l 442 628 l 442 853 l 324 853 l 324 628 l 265 628 l 265 553 z "},"ą":{"ha":824,"x_min":0,"x_max":0,"o":"m 793 -225 l 793 715 l 676 913 l 147 913 l 147 838 l 88 838 l 88 538 l 29 538 l 29 190 l 151 0 l 440 0 l 440 -110 l 504 -225 z m 676 -50 l 500 -50 l 500 175 l 147 175 l 147 250 l 89 250 l 89 478 l 147 478 l 147 553 l 207 553 l 207 628 l 558 628 l 558 703 l 147 703 l 147 778 l 207 778 l 207 853 l 617 853 l 617 778 l 676 778 l 676 175 l 617 175 l 617 100 l 676 100 z m 558 326 l 558 478 l 207 478 l 207 326 z "},"Ć":{"ha":824,"x_min":0,"x_max":0,"o":"m 675 0 l 675 75 l 733 75 l 733 150 l 793 150 l 793 414 l 736 538 l 499 538 l 499 461 l 440 461 l 440 385 l 414 385 l 322 531 l 322 754 l 381 754 l 381 829 l 439 829 l 439 904 l 465 904 l 563 754 l 793 754 l 793 1017 l 733 1132 l 733 1318 l 676 1442 l 382 1442 l 382 1365 l 322 1365 l 322 1290 l 206 1290 l 206 1214 l 147 1214 l 147 1139 l 88 1139 l 88 989 l 29 989 l 29 418 l 269 0 z m 558 175 l 265 175 l 265 250 l 207 250 l 207 326 l 147 326 l 147 478 l 89 478 l 89 929 l 147 929 l 147 1079 l 207 1079 l 207 1156 l 265 1156 l 265 1231 l 382 1231 l 382 1306 l 442 1306 l 442 1382 l 617 1382 l 617 1306 l 558 1306 l 558 1156 l 617 1156 l 617 1079 l 676 1079 l 676 929 l 558 929 l 558 1004 l 500 1004 l 500 1079 l 324 1079 l 324 1004 l 265 1004 l 265 929 l 207 929 l 207 478 l 265 478 l 265 401 l 324 401 l 324 326 l 500 326 l 500 401 l 558 401 l 558 478 l 676 478 l 676 326 l 617 326 l 617 250 l 558 250 z "},"ć":{"ha":824,"x_min":0,"x_max":0,"o":"m 675 0 l 675 75 l 733 75 l 733 150 l 793 150 l 793 338 l 736 453 l 793 453 l 793 639 l 618 904 l 676 904 l 676 1092 l 619 1214 l 324 1214 l 324 1139 l 265 1139 l 265 1064 l 206 1064 l 206 913 l 147 913 l 147 838 l 88 838 l 88 763 l 29 763 l 29 267 l 211 0 z m 558 175 l 207 175 l 207 250 l 147 250 l 147 326 l 89 326 l 89 703 l 147 703 l 147 778 l 207 778 l 207 853 l 558 853 l 558 778 l 617 778 l 617 703 l 676 703 l 676 628 l 558 628 l 558 703 l 265 703 l 265 628 l 207 628 l 207 401 l 265 401 l 265 326 l 558 326 l 558 401 l 676 401 l 676 326 l 617 326 l 617 250 l 558 250 z m 442 929 l 265 929 l 265 1004 l 325 1004 l 325 1079 l 383 1079 l 383 1156 l 560 1156 l 560 1079 l 500 1079 l 500 1004 l 442 1004 z "},"Ċ":{"ha":824,"x_min":0,"x_max":0,"o":"m 675 0 l 675 75 l 733 75 l 733 150 l 793 150 l 793 414 l 736 538 l 499 538 l 499 461 l 440 461 l 440 385 l 414 385 l 322 532 l 322 754 l 381 754 l 381 829 l 439 829 l 439 904 l 465 904 l 563 754 l 793 754 l 793 1017 l 531 1442 l 294 1442 l 294 1290 l 206 1290 l 206 1214 l 147 1214 l 147 1139 l 88 1139 l 88 989 l 29 989 l 29 418 l 269 0 z m 558 175 l 265 175 l 265 250 l 207 250 l 207 326 l 147 326 l 147 478 l 89 478 l 89 929 l 147 929 l 147 1079 l 207 1079 l 207 1156 l 265 1156 l 265 1231 l 354 1231 l 354 1382 l 471 1382 l 471 1231 l 558 1231 l 558 1156 l 617 1156 l 617 1079 l 676 1079 l 676 929 l 558 929 l 558 1004 l 500 1004 l 500 1079 l 324 1079 l 324 1004 l 265 1004 l 265 929 l 207 929 l 207 478 l 265 478 l 265 401 l 324 401 l 324 326 l 500 326 l 500 401 l 558 401 l 558 478 l 676 478 l 676 326 l 617 326 l 617 250 l 558 250 z "},"ċ":{"ha":824,"x_min":0,"x_max":0,"o":"m 675 0 l 675 75 l 733 75 l 733 150 l 793 150 l 793 338 l 736 453 l 793 453 l 793 639 l 618 913 l 557 913 l 557 1017 l 500 1139 l 264 1139 l 264 913 l 147 913 l 147 838 l 88 838 l 88 763 l 29 763 l 29 267 l 211 0 z m 558 175 l 207 175 l 207 250 l 147 250 l 147 326 l 89 326 l 89 703 l 147 703 l 147 778 l 207 778 l 207 853 l 558 853 l 558 778 l 617 778 l 617 703 l 676 703 l 676 628 l 558 628 l 558 703 l 265 703 l 265 628 l 207 628 l 207 401 l 265 401 l 265 326 l 558 326 l 558 401 l 676 401 l 676 326 l 617 326 l 617 250 l 558 250 z m 440 929 l 324 929 l 324 1079 l 440 1079 z "},"Č":{"ha":824,"x_min":0,"x_max":0,"o":"m 675 0 l 675 75 l 733 75 l 733 150 l 793 150 l 793 414 l 736 538 l 499 538 l 499 461 l 440 461 l 440 385 l 414 385 l 322 531 l 322 754 l 381 754 l 381 829 l 439 829 l 439 904 l 465 904 l 563 754 l 793 754 l 793 1017 l 675 1207 l 675 1318 l 618 1442 l 206 1442 l 206 1214 l 147 1214 l 147 1139 l 88 1139 l 88 989 l 29 989 l 29 418 l 269 0 z m 558 175 l 265 175 l 265 250 l 207 250 l 207 326 l 147 326 l 147 478 l 89 478 l 89 929 l 147 929 l 147 1079 l 207 1079 l 207 1156 l 265 1156 l 265 1231 l 324 1231 l 324 1306 l 265 1306 l 265 1382 l 382 1382 l 382 1306 l 442 1306 l 442 1382 l 558 1382 l 558 1306 l 500 1306 l 500 1231 l 558 1231 l 558 1156 l 617 1156 l 617 1079 l 676 1079 l 676 929 l 558 929 l 558 1004 l 500 1004 l 500 1079 l 324 1079 l 324 1004 l 265 1004 l 265 929 l 207 929 l 207 478 l 265 478 l 265 401 l 324 401 l 324 326 l 500 326 l 500 401 l 558 401 l 558 478 l 676 478 l 676 326 l 617 326 l 617 250 l 558 250 z "},"č":{"ha":824,"x_min":0,"x_max":0,"o":"m 675 0 l 675 75 l 733 75 l 733 150 l 793 150 l 793 338 l 736 450 l 736 453 l 793 453 l 793 639 l 618 904 l 675 904 l 675 1092 l 618 1214 l 206 1214 l 206 1019 l 264 913 l 147 913 l 147 838 l 88 838 l 88 763 l 29 763 l 29 267 l 211 0 z m 558 175 l 207 175 l 207 250 l 147 250 l 147 326 l 89 326 l 89 703 l 147 703 l 147 778 l 207 778 l 207 853 l 558 853 l 558 778 l 617 778 l 617 703 l 676 703 l 676 628 l 558 628 l 558 703 l 265 703 l 265 628 l 207 628 l 207 401 l 265 401 l 265 326 l 558 326 l 558 401 l 676 401 l 676 326 l 617 326 l 617 250 l 558 250 z m 442 929 l 383 929 l 383 1004 l 324 1004 l 324 1079 l 265 1079 l 265 1156 l 383 1156 l 383 1079 l 442 1079 l 442 1156 l 558 1156 l 558 1079 l 500 1079 l 500 1004 l 442 1004 z "},"Ď":{"ha":824,"x_min":0,"x_max":0,"o":"m 617 0 l 617 75 l 675 75 l 675 150 l 733 150 l 733 301 l 793 301 l 793 867 l 617 1208 l 617 1318 l 560 1442 l 147 1442 l 147 1290 l 29 1290 l 29 115 l 93 0 z m 500 175 l 89 175 l 89 1231 l 265 1231 l 265 1306 l 207 1306 l 207 1382 l 324 1382 l 324 1306 l 382 1306 l 382 1382 l 500 1382 l 500 1306 l 442 1306 l 442 1231 l 500 1231 l 500 1156 l 558 1156 l 558 1079 l 617 1079 l 617 929 l 676 929 l 676 478 l 617 478 l 617 326 l 558 326 l 558 250 l 500 250 z m 442 326 l 442 401 l 500 401 l 500 478 l 558 478 l 558 929 l 500 929 l 500 1004 l 442 1004 l 442 1079 l 207 1079 l 207 326 z "},"ď":{"ha":1058,"x_min":0,"x_max":0,"o":"m 793 0 l 793 678 l 969 678 l 969 754 l 1028 754 l 1028 1167 l 972 1290 l 499 1290 l 499 913 l 147 913 l 147 838 l 88 838 l 88 763 l 29 763 l 29 267 l 211 0 z m 676 175 l 207 175 l 207 250 l 147 250 l 147 326 l 89 326 l 89 703 l 147 703 l 147 778 l 207 778 l 207 853 l 500 853 l 500 778 l 558 778 l 558 1231 l 676 1231 z m 558 326 l 558 628 l 442 628 l 442 703 l 265 703 l 265 628 l 207 628 l 207 401 l 265 401 l 265 326 z m 854 853 l 736 853 l 736 929 l 794 929 l 794 1004 l 736 1004 l 736 1231 l 913 1231 l 913 929 l 854 929 z "},"đ":{"ha":824,"x_min":0,"x_max":0,"o":"m 793 0 l 793 754 l 851 754 l 851 942 l 793 1057 l 793 1167 l 736 1290 l 499 1290 l 499 1064 l 147 1064 l 147 838 l 88 838 l 88 763 l 29 763 l 29 267 l 211 0 z m 676 175 l 207 175 l 207 250 l 147 250 l 147 326 l 89 326 l 89 703 l 147 703 l 147 778 l 207 778 l 207 853 l 500 853 l 500 778 l 558 778 l 558 929 l 207 929 l 207 1004 l 558 1004 l 558 1231 l 676 1231 l 676 1004 l 736 1004 l 736 929 l 676 929 z m 558 326 l 558 628 l 442 628 l 442 703 l 265 703 l 265 628 l 207 628 l 207 401 l 265 401 l 265 326 z "},"Ē":{"ha":824,"x_min":0,"x_max":0,"o":"m 793 0 l 793 263 l 736 385 l 322 385 l 322 453 l 675 453 l 675 715 l 618 838 l 322 838 l 322 904 l 793 904 l 793 1167 l 736 1290 l 675 1290 l 618 1442 l 206 1442 l 206 1290 l 29 1290 l 29 115 l 93 0 z m 676 175 l 89 175 l 89 1231 l 676 1231 l 676 1079 l 207 1079 l 207 778 l 558 778 l 558 628 l 207 628 l 207 326 l 676 326 z m 558 1306 l 265 1306 l 265 1382 l 558 1382 z "},"ē":{"ha":824,"x_min":0,"x_max":0,"o":"m 675 0 l 675 75 l 733 75 l 733 376 l 793 376 l 793 639 l 675 829 l 675 942 l 618 1064 l 147 1064 l 147 838 l 88 838 l 88 763 l 29 763 l 29 267 l 211 0 z m 558 175 l 207 175 l 207 250 l 147 250 l 147 326 l 89 326 l 89 703 l 147 703 l 147 778 l 207 778 l 207 853 l 558 853 l 558 778 l 617 778 l 617 703 l 676 703 l 676 553 l 617 553 l 617 478 l 207 478 l 207 401 l 265 401 l 265 326 l 617 326 l 617 250 l 558 250 z m 558 929 l 207 929 l 207 1004 l 558 1004 z m 558 628 l 558 703 l 265 703 l 265 628 z "},"Ė":{"ha":824,"x_min":0,"x_max":0,"o":"m 793 0 l 793 263 l 736 385 l 322 385 l 322 453 l 675 453 l 675 715 l 618 838 l 322 838 l 322 904 l 793 904 l 793 1167 l 736 1290 l 586 1290 l 531 1442 l 294 1442 l 294 1290 l 29 1290 l 29 115 l 93 0 z m 676 175 l 89 175 l 89 1231 l 354 1231 l 354 1382 l 471 1382 l 471 1231 l 676 1231 l 676 1079 l 207 1079 l 207 778 l 558 778 l 558 628 l 207 628 l 207 326 l 676 326 z "},"ė":{"ha":824,"x_min":0,"x_max":0,"o":"m 675 0 l 675 75 l 733 75 l 733 376 l 793 376 l 793 639 l 618 913 l 557 913 l 557 1017 l 500 1139 l 264 1139 l 264 913 l 147 913 l 147 838 l 88 838 l 88 763 l 29 763 l 29 267 l 211 0 z m 558 175 l 207 175 l 207 250 l 147 250 l 147 326 l 89 326 l 89 703 l 147 703 l 147 778 l 207 778 l 207 853 l 558 853 l 558 778 l 617 778 l 617 703 l 676 703 l 676 553 l 617 553 l 617 478 l 207 478 l 207 401 l 265 401 l 265 326 l 617 326 l 617 250 l 558 250 z m 558 628 l 558 703 l 265 703 l 265 628 z m 440 929 l 324 929 l 324 1079 l 440 1079 z "},"Ę":{"ha":824,"x_min":0,"x_max":0,"o":"m 793 -225 l 793 263 l 736 385 l 322 385 l 322 453 l 675 453 l 675 715 l 618 838 l 322 838 l 322 904 l 793 904 l 793 1167 l 736 1290 l 29 1290 l 29 115 l 93 0 l 440 0 l 440 -110 l 504 -225 z m 676 -50 l 500 -50 l 500 175 l 89 175 l 89 1231 l 676 1231 l 676 1079 l 207 1079 l 207 778 l 558 778 l 558 628 l 207 628 l 207 326 l 676 326 l 676 175 l 617 175 l 617 100 l 676 100 z "},"ę":{"ha":824,"x_min":0,"x_max":0,"o":"m 733 -225 l 733 376 l 793 376 l 793 639 l 618 913 l 147 913 l 147 838 l 88 838 l 88 763 l 29 763 l 29 267 l 211 0 l 382 0 l 382 -110 l 446 -225 z m 617 -50 l 442 -50 l 442 175 l 207 175 l 207 250 l 147 250 l 147 326 l 89 326 l 89 703 l 147 703 l 147 778 l 207 778 l 207 853 l 558 853 l 558 778 l 617 778 l 617 703 l 676 703 l 676 553 l 617 553 l 617 478 l 207 478 l 207 401 l 265 401 l 265 326 l 617 326 l 617 250 l 558 250 l 558 100 l 617 100 z m 558 628 l 558 703 l 265 703 l 265 628 z "},"Ě":{"ha":824,"x_min":0,"x_max":0,"o":"m 793 0 l 793 263 l 736 385 l 322 385 l 322 453 l 675 453 l 675 715 l 618 838 l 322 838 l 322 904 l 793 904 l 793 1167 l 736 1290 l 675 1290 l 618 1442 l 206 1442 l 206 1290 l 29 1290 l 29 115 l 93 0 z m 676 175 l 89 175 l 89 1231 l 324 1231 l 324 1306 l 265 1306 l 265 1382 l 382 1382 l 382 1306 l 442 1306 l 442 1382 l 558 1382 l 558 1306 l 500 1306 l 500 1231 l 676 1231 l 676 1079 l 207 1079 l 207 778 l 558 778 l 558 628 l 207 628 l 207 326 l 676 326 z "},"ě":{"ha":824,"x_min":0,"x_max":0,"o":"m 675 0 l 675 75 l 733 75 l 733 376 l 793 376 l 793 639 l 618 904 l 644 904 l 644 1092 l 589 1214 l 176 1214 l 176 1019 l 235 913 l 147 913 l 147 838 l 88 838 l 88 763 l 29 763 l 29 267 l 211 0 z m 558 175 l 207 175 l 207 250 l 147 250 l 147 326 l 89 326 l 89 703 l 147 703 l 147 778 l 207 778 l 207 853 l 558 853 l 558 778 l 617 778 l 617 703 l 676 703 l 676 553 l 617 553 l 617 478 l 207 478 l 207 401 l 265 401 l 265 326 l 617 326 l 617 250 l 558 250 z m 413 929 l 354 929 l 354 1004 l 294 1004 l 294 1079 l 236 1079 l 236 1156 l 354 1156 l 354 1079 l 413 1079 l 413 1156 l 529 1156 l 529 1079 l 471 1079 l 471 1004 l 413 1004 z m 558 628 l 558 703 l 265 703 l 265 628 z "},"Ğ":{"ha":824,"x_min":0,"x_max":0,"o":"m 793 0 l 793 715 l 736 829 l 793 829 l 793 1092 l 618 1442 l 206 1442 l 206 1214 l 147 1214 l 147 1139 l 88 1139 l 88 989 l 29 989 l 29 418 l 269 0 z m 676 175 l 265 175 l 265 250 l 207 250 l 207 326 l 147 326 l 147 478 l 89 478 l 89 929 l 147 929 l 147 1079 l 207 1079 l 207 1156 l 265 1156 l 265 1231 l 324 1231 l 324 1306 l 265 1306 l 265 1382 l 382 1382 l 382 1306 l 442 1306 l 442 1382 l 558 1382 l 558 1306 l 500 1306 l 500 1231 l 617 1231 l 617 1156 l 676 1156 l 676 1004 l 558 1004 l 558 1079 l 324 1079 l 324 1004 l 265 1004 l 265 929 l 207 929 l 207 478 l 265 478 l 265 401 l 324 401 l 324 326 l 558 326 l 558 628 l 382 628 l 382 778 l 676 778 z "},"ğ":{"ha":824,"x_min":0,"x_max":0,"o":"m 675 -150 l 675 -75 l 733 -75 l 733 0 l 793 0 l 793 790 l 736 913 l 675 913 l 675 1092 l 618 1214 l 206 1214 l 206 944 l 226 913 l 147 913 l 147 838 l 88 838 l 88 763 l 29 763 l 29 418 l 144 235 l 88 235 l 88 -35 l 151 -150 z m 558 25 l 147 25 l 147 175 l 500 175 l 500 250 l 558 250 l 558 401 l 500 401 l 500 326 l 207 326 l 207 401 l 147 401 l 147 478 l 89 478 l 89 703 l 147 703 l 147 778 l 207 778 l 207 853 l 676 853 l 676 175 l 617 175 l 617 100 l 558 100 z m 500 478 l 500 553 l 558 553 l 558 703 l 265 703 l 265 628 l 207 628 l 207 553 l 265 553 l 265 478 z m 500 929 l 324 929 l 324 1004 l 265 1004 l 265 1156 l 383 1156 l 383 1004 l 442 1004 l 442 1156 l 558 1156 l 558 1004 l 500 1004 z "},"Ġ":{"ha":824,"x_min":0,"x_max":0,"o":"m 793 0 l 793 715 l 736 829 l 793 829 l 793 1092 l 676 1290 l 617 1290 l 560 1442 l 322 1442 l 322 1290 l 206 1290 l 206 1214 l 147 1214 l 147 1139 l 88 1139 l 88 989 l 29 989 l 29 418 l 269 0 z m 676 175 l 265 175 l 265 250 l 207 250 l 207 326 l 147 326 l 147 478 l 89 478 l 89 929 l 147 929 l 147 1079 l 207 1079 l 207 1156 l 265 1156 l 265 1231 l 382 1231 l 382 1382 l 500 1382 l 500 1231 l 617 1231 l 617 1156 l 676 1156 l 676 1004 l 558 1004 l 558 1079 l 324 1079 l 324 1004 l 265 1004 l 265 929 l 207 929 l 207 478 l 265 478 l 265 401 l 324 401 l 324 326 l 558 326 l 558 628 l 382 628 l 382 778 l 676 778 z "},"ġ":{"ha":824,"x_min":0,"x_max":0,"o":"m 675 -150 l 675 -75 l 733 -75 l 733 0 l 793 0 l 793 790 l 736 913 l 557 913 l 557 1017 l 500 1139 l 264 1139 l 264 913 l 147 913 l 147 838 l 88 838 l 88 763 l 29 763 l 29 418 l 144 235 l 88 235 l 88 -35 l 151 -150 z m 558 25 l 147 25 l 147 175 l 500 175 l 500 250 l 558 250 l 558 401 l 500 401 l 500 326 l 207 326 l 207 401 l 147 401 l 147 478 l 89 478 l 89 703 l 147 703 l 147 778 l 207 778 l 207 853 l 676 853 l 676 175 l 617 175 l 617 100 l 558 100 z m 500 478 l 500 553 l 558 553 l 558 703 l 265 703 l 265 628 l 207 628 l 207 553 l 265 553 l 265 478 z m 440 929 l 324 929 l 324 1079 l 440 1079 z "},"Ģ":{"ha":824,"x_min":0,"x_max":0,"o":"m 793 0 l 793 715 l 736 829 l 793 829 l 793 1092 l 676 1290 l 206 1290 l 206 1214 l 147 1214 l 147 1139 l 88 1139 l 88 989 l 29 989 l 29 418 l 328 -150 l 558 -150 l 558 -75 l 617 -75 l 617 0 z m 676 175 l 500 175 l 500 100 l 442 100 l 442 25 l 324 25 l 324 100 l 382 100 l 382 175 l 265 175 l 265 250 l 207 250 l 207 326 l 147 326 l 147 478 l 89 478 l 89 929 l 147 929 l 147 1079 l 207 1079 l 207 1156 l 265 1156 l 265 1231 l 617 1231 l 617 1156 l 676 1156 l 676 1004 l 558 1004 l 558 1079 l 324 1079 l 324 1004 l 265 1004 l 265 929 l 207 929 l 207 478 l 265 478 l 265 401 l 324 401 l 324 326 l 558 326 l 558 628 l 382 628 l 382 778 l 676 778 z "},"ģ":{"ha":824,"x_min":0,"x_max":0,"o":"m 675 -150 l 675 -75 l 733 -75 l 733 0 l 793 0 l 793 790 l 736 913 l 617 913 l 617 1167 l 560 1290 l 324 1290 l 324 1214 l 264 1214 l 264 913 l 147 913 l 147 838 l 88 838 l 88 763 l 29 763 l 29 418 l 144 235 l 88 235 l 88 -35 l 151 -150 z m 558 25 l 147 25 l 147 175 l 500 175 l 500 250 l 558 250 l 558 401 l 500 401 l 500 326 l 207 326 l 207 401 l 147 401 l 147 478 l 89 478 l 89 703 l 147 703 l 147 778 l 207 778 l 207 853 l 676 853 l 676 175 l 617 175 l 617 100 l 558 100 z m 500 478 l 500 553 l 558 553 l 558 703 l 265 703 l 265 628 l 207 628 l 207 553 l 265 553 l 265 478 z m 500 929 l 324 929 l 324 1156 l 383 1156 l 383 1231 l 500 1231 l 500 1156 l 442 1156 l 442 1079 l 500 1079 z "},"Ħ":{"ha":824,"x_min":0,"x_max":0,"o":"m 793 0 l 793 754 l 851 754 l 851 942 l 793 1053 l 793 1167 l 736 1290 l 499 1290 l 499 1064 l 322 1064 l 322 1167 l 267 1290 l 29 1290 l 29 1064 l -29 1064 l -29 869 l 29 764 l 29 115 l 93 0 l 322 0 l 322 453 l 499 453 l 499 115 l 563 0 z m 676 175 l 558 175 l 558 628 l 207 628 l 207 175 l 89 175 l 89 929 l 31 929 l 31 1004 l 89 1004 l 89 1231 l 207 1231 l 207 1004 l 558 1004 l 558 1231 l 676 1231 l 676 1004 l 736 1004 l 736 929 l 676 929 z m 558 778 l 558 929 l 207 929 l 207 778 z "},"ħ":{"ha":765,"x_min":0,"x_max":0,"o":"m 733 0 l 733 639 l 617 826 l 617 942 l 560 1064 l 322 1064 l 322 1167 l 267 1290 l 29 1290 l 29 1064 l -29 1064 l -29 869 l 29 764 l 29 115 l 93 0 l 322 0 l 322 453 l 381 453 l 381 528 l 407 528 l 440 461 l 440 115 l 504 0 z m 617 175 l 500 175 l 500 628 l 442 628 l 442 703 l 265 703 l 265 628 l 207 628 l 207 175 l 89 175 l 89 929 l 31 929 l 31 1004 l 89 1004 l 89 1231 l 207 1231 l 207 1004 l 500 1004 l 500 929 l 207 929 l 207 778 l 265 778 l 265 853 l 500 853 l 500 778 l 558 778 l 558 703 l 617 703 z "},"Ĩ":{"ha":588,"x_min":0,"x_max":0,"o":"m 558 0 l 558 263 l 501 385 l 439 385 l 439 904 l 558 904 l 558 1318 l 501 1442 l 85 1442 l 85 1368 l 29 1368 l 29 1019 l 93 904 l 147 904 l 147 385 l 29 385 l 29 115 l 93 0 z m 442 175 l 89 175 l 89 326 l 207 326 l 207 1079 l 89 1079 l 89 1308 l 144 1308 l 144 1382 l 324 1382 l 324 1306 l 381 1306 l 381 1382 l 442 1382 l 442 1303 l 386 1303 l 386 1231 l 442 1231 l 442 1079 l 324 1079 l 324 326 l 442 326 z m 207 1231 l 207 1306 l 151 1306 l 151 1231 z "},"ĩ":{"ha":529,"x_min":0,"x_max":0,"o":"m 558 0 l 558 263 l 501 385 l 439 385 l 439 826 l 499 826 l 499 1017 l 442 1139 l 85 1139 l 85 1067 l 29 1067 l 29 869 l 88 764 l 88 643 l 147 535 l 147 385 l 29 385 l 29 115 l 93 0 z m 442 175 l 89 175 l 89 326 l 207 326 l 207 703 l 147 703 l 147 853 l 324 853 l 324 326 l 442 326 z m 326 929 l 207 929 l 207 1004 l 150 1004 l 150 929 l 89 929 l 89 1007 l 144 1007 l 144 1079 l 265 1079 l 265 1004 l 321 1004 l 321 1079 l 382 1079 l 382 1003 l 326 1003 z "},"Ī":{"ha":588,"x_min":0,"x_max":0,"o":"m 558 0 l 558 263 l 501 385 l 439 385 l 439 904 l 558 904 l 558 1318 l 501 1442 l 29 1442 l 29 1019 l 93 904 l 147 904 l 147 385 l 29 385 l 29 115 l 93 0 z m 442 175 l 89 175 l 89 326 l 207 326 l 207 1079 l 89 1079 l 89 1231 l 442 1231 l 442 1079 l 324 1079 l 324 326 l 442 326 z m 442 1306 l 89 1306 l 89 1382 l 442 1382 z "},"ī":{"ha":529,"x_min":0,"x_max":0,"o":"m 558 0 l 558 263 l 501 385 l 439 385 l 439 754 l 499 754 l 499 942 l 442 1064 l 29 1064 l 29 869 l 88 764 l 88 643 l 147 535 l 147 385 l 29 385 l 29 115 l 93 0 z m 442 175 l 89 175 l 89 326 l 207 326 l 207 703 l 147 703 l 147 853 l 324 853 l 324 326 l 442 326 z m 382 929 l 89 929 l 89 1004 l 382 1004 z "},"Ĭ":{"ha":588,"x_min":0,"x_max":0,"o":"m 558 0 l 558 263 l 501 385 l 439 385 l 439 904 l 558 904 l 558 1318 l 501 1442 l 29 1442 l 29 1019 l 93 904 l 147 904 l 147 385 l 29 385 l 29 115 l 93 0 z m 442 175 l 89 175 l 89 326 l 207 326 l 207 1079 l 89 1079 l 89 1231 l 147 1231 l 147 1306 l 89 1306 l 89 1382 l 207 1382 l 207 1306 l 324 1306 l 324 1382 l 442 1382 l 442 1306 l 382 1306 l 382 1231 l 442 1231 l 442 1079 l 324 1079 l 324 326 l 442 326 z "},"ĭ":{"ha":529,"x_min":0,"x_max":0,"o":"m 558 0 l 558 263 l 501 385 l 439 385 l 439 829 l 499 829 l 499 1092 l 442 1214 l 29 1214 l 29 944 l 88 839 l 88 643 l 147 535 l 147 385 l 29 385 l 29 115 l 93 0 z m 442 175 l 89 175 l 89 326 l 207 326 l 207 703 l 147 703 l 147 853 l 324 853 l 324 326 l 442 326 z m 324 929 l 147 929 l 147 1004 l 89 1004 l 89 1156 l 207 1156 l 207 1004 l 265 1004 l 265 1156 l 382 1156 l 382 1004 l 324 1004 z "},"Į":{"ha":588,"x_min":0,"x_max":0,"o":"m 499 -150 l 499 0 l 558 0 l 558 263 l 501 385 l 439 385 l 439 904 l 558 904 l 558 1167 l 501 1290 l 29 1290 l 29 1019 l 93 904 l 147 904 l 147 385 l 29 385 l 29 115 l 211 -150 z m 382 25 l 207 25 l 207 175 l 89 175 l 89 326 l 207 326 l 207 1079 l 89 1079 l 89 1231 l 442 1231 l 442 1079 l 324 1079 l 324 326 l 442 326 l 442 175 l 324 175 l 324 100 l 382 100 z "},"į":{"ha":529,"x_min":0,"x_max":0,"o":"m 499 -225 l 499 0 l 558 0 l 558 263 l 501 385 l 439 385 l 439 1017 l 383 1139 l 147 1139 l 147 913 l 88 913 l 88 643 l 147 535 l 147 385 l 29 385 l 29 115 l 93 0 l 147 0 l 147 -110 l 211 -225 z m 382 -50 l 207 -50 l 207 175 l 89 175 l 89 326 l 207 326 l 207 703 l 147 703 l 147 853 l 324 853 l 324 326 l 442 326 l 442 175 l 324 175 l 324 100 l 382 100 z m 324 929 l 207 929 l 207 1079 l 324 1079 z "},"İ":{"ha":588,"x_min":0,"x_max":0,"o":"m 558 0 l 558 263 l 501 385 l 439 385 l 439 904 l 558 904 l 558 1167 l 383 1442 l 147 1442 l 147 1290 l 29 1290 l 29 1019 l 93 904 l 147 904 l 147 385 l 29 385 l 29 115 l 93 0 z m 442 175 l 89 175 l 89 326 l 207 326 l 207 1079 l 89 1079 l 89 1231 l 207 1231 l 207 1382 l 324 1382 l 324 1231 l 442 1231 l 442 1079 l 324 1079 l 324 326 l 442 326 z "},"ı":{"ha":529,"x_min":0,"x_max":0,"o":"m 558 0 l 558 263 l 501 385 l 439 385 l 439 790 l 383 913 l 88 913 l 88 643 l 147 535 l 147 385 l 29 385 l 29 115 l 93 0 z m 442 175 l 89 175 l 89 326 l 207 326 l 207 703 l 147 703 l 147 853 l 324 853 l 324 326 l 442 326 z "},"Ĳ":{"ha":940,"x_min":0,"x_max":0,"o":"m 793 0 l 793 75 l 851 75 l 851 225 l 910 225 l 910 1167 l 854 1290 l 617 1290 l 617 461 l 558 461 l 501 613 l 322 613 l 322 1167 l 267 1290 l 29 1290 l 29 115 l 93 0 l 322 0 l 322 160 l 446 0 z m 676 175 l 442 175 l 442 250 l 382 250 l 382 326 l 324 326 l 324 553 l 442 553 l 442 401 l 500 401 l 500 326 l 617 326 l 617 401 l 676 401 l 676 1231 l 794 1231 l 794 401 l 736 401 l 736 250 l 676 250 z m 207 175 l 89 175 l 89 1231 l 207 1231 z "},"ĳ":{"ha":647,"x_min":0,"x_max":0,"o":"m 558 -150 l 558 -75 l 617 -75 l 617 1017 l 560 1139 l 88 1139 l 88 913 l 29 913 l 29 643 l 88 538 l 88 40 l 211 -150 z m 442 25 l 207 25 l 207 100 l 147 100 l 147 250 l 265 250 l 265 175 l 382 175 l 382 703 l 324 703 l 324 853 l 500 853 l 500 100 l 442 100 z m 265 326 l 147 326 l 147 703 l 89 703 l 89 853 l 265 853 z m 265 929 l 147 929 l 147 1079 l 265 1079 z m 500 929 l 382 929 l 382 1079 l 500 1079 z "},"Ķ":{"ha":824,"x_min":0,"x_max":0,"o":"m 793 0 l 793 263 l 558 601 l 558 678 l 617 678 l 617 754 l 675 754 l 675 829 l 733 829 l 733 904 l 793 904 l 793 1167 l 736 1290 l 499 1290 l 499 1214 l 440 1214 l 440 1139 l 382 1139 l 382 1064 l 322 1064 l 322 1167 l 267 1290 l 29 1290 l 29 115 l 93 0 l 206 0 l 206 -110 l 269 -225 l 499 -225 l 499 -150 l 558 -150 l 558 0 z m 676 175 l 558 175 l 558 250 l 500 250 l 500 326 l 442 326 l 442 401 l 382 401 l 382 478 l 324 478 l 324 553 l 265 553 l 265 628 l 207 628 l 207 175 l 89 175 l 89 1231 l 207 1231 l 207 778 l 265 778 l 265 853 l 324 853 l 324 929 l 382 929 l 382 1004 l 442 1004 l 442 1079 l 500 1079 l 500 1156 l 558 1156 l 558 1231 l 676 1231 l 676 1079 l 617 1079 l 617 1004 l 558 1004 l 558 929 l 500 929 l 500 853 l 442 853 l 442 778 l 382 778 l 382 628 l 442 628 l 442 553 l 500 553 l 500 478 l 558 478 l 558 401 l 617 401 l 617 326 l 676 326 z m 383 -50 l 265 -50 l 265 25 l 325 25 l 325 175 l 442 175 l 442 25 l 383 25 z "},"ķ":{"ha":706,"x_min":0,"x_max":0,"o":"m 675 0 l 675 263 l 558 450 l 558 528 l 617 528 l 617 790 l 560 913 l 322 913 l 322 1167 l 267 1290 l 29 1290 l 29 115 l 93 0 l 146 0 l 146 -110 l 210 -225 l 439 -225 l 439 -150 l 499 -150 l 499 0 z m 558 175 l 442 175 l 442 250 l 382 250 l 382 326 l 324 326 l 324 401 l 265 401 l 265 478 l 207 478 l 207 175 l 89 175 l 89 1231 l 207 1231 l 207 628 l 265 628 l 265 703 l 324 703 l 324 778 l 382 778 l 382 853 l 500 853 l 500 703 l 442 703 l 442 628 l 382 628 l 382 478 l 442 478 l 442 401 l 500 401 l 500 326 l 558 326 z m 324 -50 l 206 -50 l 206 25 l 265 25 l 265 175 l 382 175 l 382 25 l 324 25 z "},"Ĺ":{"ha":765,"x_min":0,"x_max":0,"o":"m 793 0 l 793 263 l 736 385 l 322 385 l 322 1054 l 439 1054 l 439 1129 l 499 1129 l 499 1318 l 442 1442 l 147 1442 l 147 1365 l 88 1365 l 88 1290 l 29 1290 l 29 115 l 93 0 z m 676 175 l 89 175 l 89 1231 l 147 1231 l 147 1306 l 207 1306 l 207 1382 l 382 1382 l 382 1306 l 324 1306 l 324 1231 l 207 1231 l 207 326 l 676 326 z "},"ĺ":{"ha":529,"x_min":0,"x_max":0,"o":"m 558 0 l 558 263 l 501 385 l 439 385 l 439 1129 l 499 1129 l 499 1318 l 442 1442 l 147 1442 l 147 1365 l 88 1365 l 88 1019 l 147 911 l 147 385 l 29 385 l 29 115 l 93 0 z m 442 175 l 89 175 l 89 326 l 207 326 l 207 1079 l 147 1079 l 147 1306 l 207 1306 l 207 1382 l 382 1382 l 382 1306 l 324 1306 l 324 326 l 442 326 z "},"Ļ":{"ha":765,"x_min":0,"x_max":0,"o":"m 793 0 l 793 263 l 736 385 l 322 385 l 322 1167 l 267 1290 l 29 1290 l 29 115 l 93 0 l 264 0 l 264 -110 l 328 -225 l 558 -225 l 558 -150 l 617 -150 l 617 0 z m 676 175 l 500 175 l 500 25 l 442 25 l 442 -50 l 324 -50 l 324 25 l 382 25 l 382 175 l 89 175 l 89 1231 l 207 1231 l 207 326 l 676 326 z "},"ļ":{"ha":529,"x_min":0,"x_max":0,"o":"m 381 -225 l 381 -150 l 439 -150 l 439 0 l 558 0 l 558 263 l 501 385 l 439 385 l 439 1167 l 383 1290 l 88 1290 l 88 1019 l 147 911 l 147 385 l 29 385 l 29 115 l 88 10 l 88 -110 l 151 -225 z m 265 -50 l 147 -50 l 147 25 l 207 25 l 207 175 l 89 175 l 89 326 l 207 326 l 207 1079 l 147 1079 l 147 1231 l 324 1231 l 324 326 l 442 326 l 442 175 l 324 175 l 324 25 l 265 25 z "},"Ľ":{"ha":765,"x_min":0,"x_max":0,"o":"m 793 0 l 793 263 l 736 385 l 322 385 l 322 678 l 558 678 l 558 754 l 617 754 l 617 1167 l 560 1290 l 29 1290 l 29 115 l 93 0 z m 676 175 l 89 175 l 89 1231 l 207 1231 l 207 326 l 676 326 z m 442 853 l 324 853 l 324 929 l 382 929 l 382 1004 l 324 1004 l 324 1231 l 500 1231 l 500 929 l 442 929 z "},"ľ":{"ha":706,"x_min":0,"x_max":0,"o":"m 558 0 l 558 263 l 501 385 l 439 385 l 439 678 l 617 678 l 617 754 l 675 754 l 675 1167 l 618 1290 l 88 1290 l 88 1019 l 147 911 l 147 385 l 29 385 l 29 115 l 93 0 z m 442 175 l 89 175 l 89 326 l 207 326 l 207 1079 l 147 1079 l 147 1231 l 324 1231 l 324 326 l 442 326 z m 500 853 l 382 853 l 382 929 l 440 929 l 440 1004 l 382 1004 l 382 1231 l 558 1231 l 558 929 l 500 929 z "},"Ł":{"ha":824,"x_min":0,"x_max":0,"o":"m 851 0 l 851 263 l 794 385 l 381 385 l 381 528 l 439 528 l 439 603 l 499 603 l 499 867 l 442 989 l 381 989 l 381 1167 l 325 1290 l 88 1290 l 88 763 l 29 763 l 29 688 l -29 688 l -29 342 l 33 225 l 88 225 l 88 115 l 151 0 z m 736 175 l 147 175 l 147 478 l 89 478 l 89 401 l 31 401 l 31 628 l 89 628 l 89 703 l 147 703 l 147 1231 l 265 1231 l 265 853 l 324 853 l 324 929 l 382 929 l 382 778 l 324 778 l 324 703 l 265 703 l 265 326 l 736 326 z "},"ł":{"ha":588,"x_min":0,"x_max":0,"o":"m 558 0 l 558 263 l 501 385 l 439 385 l 439 528 l 499 528 l 499 603 l 558 603 l 558 942 l 501 1064 l 439 1064 l 439 1167 l 383 1290 l 88 1290 l 88 1019 l 147 911 l 147 763 l 88 763 l 88 688 l 29 688 l 29 115 l 93 0 z m 442 175 l 89 175 l 89 326 l 207 326 l 207 478 l 147 478 l 147 401 l 89 401 l 89 628 l 147 628 l 147 703 l 207 703 l 207 1079 l 147 1079 l 147 1231 l 324 1231 l 324 929 l 382 929 l 382 1004 l 442 1004 l 442 778 l 382 778 l 382 703 l 324 703 l 324 326 l 442 326 z "},"Ń":{"ha":824,"x_min":0,"x_max":0,"o":"m 793 0 l 793 1167 l 736 1290 l 646 1290 l 590 1442 l 294 1442 l 294 1365 l 236 1365 l 236 1290 l 29 1290 l 29 115 l 93 0 l 322 0 l 322 418 l 563 0 z m 676 175 l 558 175 l 558 250 l 500 250 l 500 401 l 442 401 l 442 478 l 382 478 l 382 628 l 324 628 l 324 778 l 265 778 l 265 929 l 207 929 l 207 175 l 89 175 l 89 1231 l 207 1231 l 207 1156 l 265 1156 l 265 1004 l 324 1004 l 324 929 l 382 929 l 382 778 l 442 778 l 442 628 l 500 628 l 500 478 l 558 478 l 558 1231 l 676 1231 z m 471 1231 l 296 1231 l 296 1306 l 354 1306 l 354 1382 l 531 1382 l 531 1306 l 471 1306 z "},"ń":{"ha":765,"x_min":0,"x_max":0,"o":"m 733 0 l 733 639 l 617 826 l 617 904 l 676 904 l 676 1092 l 619 1214 l 324 1214 l 324 1139 l 265 1139 l 265 1064 l 206 1064 l 206 913 l 29 913 l 29 115 l 93 0 l 322 0 l 322 528 l 407 528 l 440 461 l 440 115 l 504 0 z m 617 175 l 500 175 l 500 628 l 442 628 l 442 703 l 207 703 l 207 175 l 89 175 l 89 853 l 500 853 l 500 778 l 558 778 l 558 703 l 617 703 z m 442 929 l 265 929 l 265 1004 l 325 1004 l 325 1079 l 383 1079 l 383 1156 l 558 1156 l 558 1079 l 500 1079 l 500 1004 l 442 1004 z "},"Ņ":{"ha":824,"x_min":0,"x_max":0,"o":"m 793 0 l 793 1167 l 736 1290 l 499 1290 l 499 867 l 267 1290 l 29 1290 l 29 115 l 93 0 l 206 0 l 206 -110 l 269 -225 l 499 -225 l 499 -150 l 558 -150 l 558 0 z m 676 175 l 558 175 l 558 250 l 500 250 l 500 401 l 442 401 l 442 478 l 382 478 l 382 628 l 324 628 l 324 778 l 265 778 l 265 929 l 207 929 l 207 175 l 89 175 l 89 1231 l 207 1231 l 207 1156 l 265 1156 l 265 1004 l 324 1004 l 324 929 l 382 929 l 382 778 l 442 778 l 442 628 l 500 628 l 500 478 l 558 478 l 558 1231 l 676 1231 z m 383 -50 l 265 -50 l 265 25 l 325 25 l 325 175 l 442 175 l 442 25 l 383 25 z "},"ņ":{"ha":765,"x_min":0,"x_max":0,"o":"m 733 0 l 733 639 l 560 913 l 29 913 l 29 115 l 93 0 l 206 0 l 206 -110 l 269 -225 l 499 -225 l 499 -150 l 558 -150 l 558 0 z m 617 175 l 500 175 l 500 628 l 442 628 l 442 703 l 207 703 l 207 175 l 89 175 l 89 853 l 500 853 l 500 778 l 558 778 l 558 703 l 617 703 z m 383 -50 l 265 -50 l 265 25 l 325 25 l 325 175 l 442 175 l 442 25 l 383 25 z "},"Ň":{"ha":824,"x_min":0,"x_max":0,"o":"m 793 0 l 793 1167 l 736 1290 l 675 1290 l 618 1442 l 206 1442 l 206 1290 l 29 1290 l 29 115 l 93 0 l 322 0 l 322 418 l 563 0 z m 676 175 l 558 175 l 558 250 l 500 250 l 500 401 l 442 401 l 442 478 l 382 478 l 382 628 l 324 628 l 324 778 l 265 778 l 265 929 l 207 929 l 207 175 l 89 175 l 89 1231 l 207 1231 l 207 1156 l 265 1156 l 265 1004 l 324 1004 l 324 929 l 382 929 l 382 778 l 442 778 l 442 628 l 500 628 l 500 478 l 558 478 l 558 1231 l 676 1231 z m 500 1231 l 324 1231 l 324 1306 l 265 1306 l 265 1382 l 382 1382 l 382 1306 l 442 1306 l 442 1382 l 558 1382 l 558 1306 l 500 1306 z "},"ň":{"ha":765,"x_min":0,"x_max":0,"o":"m 733 0 l 733 639 l 560 904 l 617 904 l 617 1092 l 560 1214 l 147 1214 l 147 1019 l 206 913 l 29 913 l 29 115 l 93 0 l 322 0 l 322 528 l 407 528 l 440 461 l 440 115 l 504 0 z m 617 175 l 500 175 l 500 628 l 442 628 l 442 703 l 207 703 l 207 175 l 89 175 l 89 853 l 500 853 l 500 778 l 558 778 l 558 703 l 617 703 z m 383 929 l 325 929 l 325 1004 l 265 1004 l 265 1079 l 207 1079 l 207 1156 l 325 1156 l 325 1079 l 383 1079 l 383 1156 l 500 1156 l 500 1079 l 442 1079 l 442 1004 l 383 1004 z "},"Ŋ":{"ha":824,"x_min":0,"x_max":0,"o":"m 733 -150 l 733 -75 l 793 -75 l 793 1017 l 618 1290 l 29 1290 l 29 115 l 93 0 l 322 0 l 386 -150 z m 617 25 l 382 25 l 382 175 l 558 175 l 558 1004 l 500 1004 l 500 1079 l 207 1079 l 207 175 l 89 175 l 89 1231 l 558 1231 l 558 1156 l 617 1156 l 617 1079 l 676 1079 l 676 100 l 617 100 z "},"ŋ":{"ha":765,"x_min":0,"x_max":0,"o":"m 675 -150 l 675 -75 l 733 -75 l 733 639 l 560 913 l 29 913 l 29 115 l 93 0 l 264 0 l 328 -150 z m 558 25 l 324 25 l 324 175 l 500 175 l 500 628 l 442 628 l 442 703 l 207 703 l 207 175 l 89 175 l 89 853 l 500 853 l 500 778 l 558 778 l 558 703 l 617 703 l 617 100 l 558 100 z "},"Ō":{"ha":824,"x_min":0,"x_max":0,"o":"m 617 0 l 617 75 l 675 75 l 675 150 l 733 150 l 733 301 l 793 301 l 793 867 l 618 1442 l 147 1442 l 147 1139 l 88 1139 l 88 989 l 29 989 l 29 418 l 269 0 z m 500 175 l 265 175 l 265 250 l 207 250 l 207 326 l 147 326 l 147 478 l 89 478 l 89 929 l 147 929 l 147 1079 l 207 1079 l 207 1156 l 265 1156 l 265 1231 l 500 1231 l 500 1156 l 558 1156 l 558 1079 l 617 1079 l 617 929 l 676 929 l 676 478 l 617 478 l 617 326 l 558 326 l 558 250 l 500 250 z m 442 326 l 442 401 l 500 401 l 500 478 l 558 478 l 558 929 l 500 929 l 500 1004 l 442 1004 l 442 1079 l 324 1079 l 324 1004 l 265 1004 l 265 929 l 207 929 l 207 478 l 265 478 l 265 401 l 324 401 l 324 326 z m 558 1306 l 207 1306 l 207 1382 l 558 1382 z "},"ō":{"ha":824,"x_min":0,"x_max":0,"o":"m 675 0 l 675 75 l 733 75 l 733 150 l 793 150 l 793 639 l 618 1064 l 147 1064 l 147 838 l 88 838 l 88 763 l 29 763 l 29 267 l 211 0 z m 558 175 l 207 175 l 207 250 l 147 250 l 147 326 l 89 326 l 89 703 l 147 703 l 147 778 l 207 778 l 207 853 l 558 853 l 558 778 l 617 778 l 617 703 l 676 703 l 676 326 l 617 326 l 617 250 l 558 250 z m 500 326 l 500 401 l 558 401 l 558 628 l 500 628 l 500 703 l 265 703 l 265 628 l 207 628 l 207 401 l 265 401 l 265 326 z m 558 929 l 207 929 l 207 1004 l 558 1004 z "},"Ő":{"ha":824,"x_min":0,"x_max":0,"o":"m 617 0 l 617 75 l 675 75 l 675 150 l 733 150 l 733 301 l 793 301 l 793 867 l 733 982 l 733 1129 l 793 1129 l 793 1318 l 736 1442 l 206 1442 l 206 1365 l 147 1365 l 147 1139 l 88 1139 l 88 989 l 29 989 l 29 418 l 269 0 z m 500 175 l 265 175 l 265 250 l 207 250 l 207 326 l 147 326 l 147 478 l 89 478 l 89 929 l 147 929 l 147 1079 l 207 1079 l 207 1156 l 265 1156 l 265 1231 l 207 1231 l 207 1306 l 265 1306 l 265 1382 l 444 1382 l 444 1306 l 499 1306 l 499 1382 l 676 1382 l 676 1306 l 617 1306 l 617 1231 l 500 1231 l 500 1156 l 558 1156 l 558 1079 l 617 1079 l 617 929 l 676 929 l 676 478 l 617 478 l 617 326 l 558 326 l 558 250 l 500 250 z m 442 326 l 442 401 l 500 401 l 500 478 l 558 478 l 558 929 l 500 929 l 500 1004 l 442 1004 l 442 1079 l 324 1079 l 324 1004 l 265 1004 l 265 929 l 207 929 l 207 478 l 265 478 l 265 401 l 324 401 l 324 326 z m 439 1231 l 439 1303 l 382 1303 l 382 1231 z "},"ő":{"ha":824,"x_min":0,"x_max":0,"o":"m 675 0 l 675 75 l 733 75 l 733 150 l 793 150 l 793 639 l 733 829 l 793 829 l 793 904 l 851 904 l 851 1092 l 794 1214 l 264 1214 l 264 1139 l 206 1139 l 206 1064 l 147 1064 l 147 838 l 88 838 l 88 763 l 29 763 l 29 267 l 211 0 z m 558 175 l 207 175 l 207 250 l 147 250 l 147 326 l 89 326 l 89 703 l 147 703 l 147 778 l 207 778 l 207 853 l 558 853 l 558 778 l 617 778 l 617 703 l 676 703 l 676 326 l 617 326 l 617 250 l 558 250 z m 500 326 l 500 401 l 558 401 l 558 628 l 500 628 l 500 703 l 265 703 l 265 628 l 207 628 l 207 401 l 265 401 l 265 326 z m 617 929 l 439 929 l 439 1003 l 382 1003 l 382 929 l 207 929 l 207 1004 l 265 1004 l 265 1079 l 324 1079 l 324 1156 l 503 1156 l 503 1082 l 558 1082 l 558 1156 l 736 1156 l 736 1079 l 676 1079 l 676 1004 l 617 1004 z m 499 1004 l 499 1079 l 444 1079 l 444 1004 z "},"Œ":{"ha":1117,"x_min":0,"x_max":0,"o":"m 1086 0 l 1086 263 l 1031 385 l 793 385 l 793 453 l 968 453 l 968 715 l 913 838 l 793 838 l 793 904 l 1086 904 l 1086 1167 l 1031 1290 l 206 1290 l 206 1214 l 147 1214 l 147 1139 l 88 1139 l 88 989 l 29 989 l 29 418 l 269 0 z m 971 175 l 558 175 l 558 250 l 500 250 l 500 175 l 265 175 l 265 250 l 207 250 l 207 326 l 147 326 l 147 478 l 89 478 l 89 929 l 147 929 l 147 1079 l 207 1079 l 207 1156 l 265 1156 l 265 1231 l 500 1231 l 500 1156 l 558 1156 l 558 1231 l 971 1231 l 971 1079 l 676 1079 l 676 778 l 853 778 l 853 628 l 676 628 l 676 326 l 971 326 z m 442 326 l 442 401 l 500 401 l 500 478 l 558 478 l 558 932 l 500 932 l 500 1004 l 442 1004 l 442 1079 l 324 1079 l 324 1004 l 265 1004 l 265 929 l 207 929 l 207 478 l 265 478 l 265 401 l 324 401 l 324 326 z "},"œ":{"ha":1117,"x_min":0,"x_max":0,"o":"m 968 0 l 968 75 l 1028 75 l 1028 376 l 1086 376 l 1086 639 l 913 913 l 147 913 l 147 838 l 88 838 l 88 763 l 29 763 l 29 267 l 211 0 z m 853 175 l 558 175 l 558 250 l 500 250 l 500 175 l 207 175 l 207 250 l 147 250 l 147 326 l 89 326 l 89 703 l 147 703 l 147 778 l 207 778 l 207 853 l 500 853 l 500 778 l 558 778 l 558 853 l 853 853 l 853 778 l 913 778 l 913 703 l 971 703 l 971 553 l 913 553 l 913 478 l 617 478 l 617 326 l 913 326 l 913 250 l 853 250 z m 442 326 l 442 703 l 265 703 l 265 628 l 207 628 l 207 401 l 265 401 l 265 326 z m 853 628 l 853 703 l 617 703 l 617 628 z "},"Ŕ":{"ha":824,"x_min":0,"x_max":0,"o":"m 793 0 l 793 263 l 676 450 l 676 453 l 733 453 l 733 528 l 793 528 l 793 1017 l 560 1442 l 264 1442 l 264 1365 l 206 1365 l 206 1290 l 29 1290 l 29 115 l 93 0 l 322 0 l 322 311 l 563 0 z m 676 175 l 558 175 l 558 250 l 500 250 l 500 326 l 442 326 l 442 401 l 382 401 l 382 478 l 324 478 l 324 553 l 207 553 l 207 175 l 89 175 l 89 1231 l 265 1231 l 265 1306 l 324 1306 l 324 1382 l 500 1382 l 500 1306 l 442 1306 l 442 1231 l 558 1231 l 558 1156 l 617 1156 l 617 1079 l 676 1079 l 676 703 l 617 703 l 617 628 l 558 628 l 558 553 l 500 553 l 500 478 l 558 478 l 558 401 l 617 401 l 617 326 l 676 326 z m 500 703 l 500 778 l 558 778 l 558 1004 l 500 1004 l 500 1079 l 207 1079 l 207 703 z "},"ŕ":{"ha":706,"x_min":0,"x_max":0,"o":"m 322 0 l 322 453 l 381 453 l 381 528 l 465 528 l 504 453 l 733 453 l 733 715 l 618 904 l 676 904 l 676 1092 l 619 1214 l 324 1214 l 324 1139 l 265 1139 l 265 1064 l 206 1064 l 206 913 l 29 913 l 29 115 l 93 0 z m 207 175 l 89 175 l 89 853 l 207 853 l 207 778 l 265 778 l 265 853 l 558 853 l 558 778 l 617 778 l 617 628 l 500 628 l 500 703 l 265 703 l 265 628 l 207 628 z m 442 929 l 265 929 l 265 1004 l 325 1004 l 325 1079 l 383 1079 l 383 1156 l 558 1156 l 558 1079 l 500 1079 l 500 1004 l 442 1004 z "},"Ŗ":{"ha":824,"x_min":0,"x_max":0,"o":"m 793 0 l 793 263 l 676 450 l 676 453 l 733 453 l 733 528 l 793 528 l 793 1017 l 618 1290 l 29 1290 l 29 115 l 93 0 l 206 0 l 206 -110 l 269 -225 l 499 -225 l 499 -150 l 558 -150 l 558 0 z m 676 175 l 558 175 l 558 250 l 500 250 l 500 326 l 442 326 l 442 401 l 382 401 l 382 478 l 324 478 l 324 553 l 207 553 l 207 175 l 89 175 l 89 1231 l 558 1231 l 558 1156 l 617 1156 l 617 1079 l 676 1079 l 676 703 l 617 703 l 617 628 l 558 628 l 558 553 l 500 553 l 500 478 l 558 478 l 558 401 l 617 401 l 617 326 l 676 326 z m 500 703 l 500 778 l 558 778 l 558 1004 l 500 1004 l 500 1079 l 207 1079 l 207 703 z m 383 -50 l 265 -50 l 265 25 l 325 25 l 325 175 l 442 175 l 442 25 l 383 25 z "},"ŗ":{"ha":706,"x_min":0,"x_max":0,"o":"m 263 -225 l 263 -150 l 322 -150 l 322 453 l 381 453 l 381 528 l 465 528 l 504 453 l 733 453 l 733 715 l 618 913 l 29 913 l 29 85 l -29 85 l -29 -110 l 33 -225 z m 147 -50 l 31 -50 l 31 25 l 89 25 l 89 853 l 207 853 l 207 778 l 265 778 l 265 853 l 558 853 l 558 778 l 617 778 l 617 628 l 500 628 l 500 703 l 265 703 l 265 628 l 207 628 l 207 25 l 147 25 z "},"Ř":{"ha":824,"x_min":0,"x_max":0,"o":"m 793 0 l 793 263 l 676 450 l 676 453 l 733 453 l 733 528 l 793 528 l 793 1017 l 560 1442 l 147 1442 l 147 1290 l 29 1290 l 29 115 l 93 0 l 322 0 l 322 311 l 563 0 z m 676 175 l 558 175 l 558 250 l 500 250 l 500 326 l 442 326 l 442 401 l 382 401 l 382 478 l 324 478 l 324 553 l 207 553 l 207 175 l 89 175 l 89 1231 l 265 1231 l 265 1306 l 207 1306 l 207 1382 l 324 1382 l 324 1306 l 382 1306 l 382 1382 l 500 1382 l 500 1306 l 442 1306 l 442 1231 l 558 1231 l 558 1156 l 617 1156 l 617 1079 l 676 1079 l 676 703 l 617 703 l 617 628 l 558 628 l 558 553 l 500 553 l 500 478 l 558 478 l 558 401 l 617 401 l 617 326 z m 500 703 l 500 778 l 558 778 l 558 1004 l 500 1004 l 500 1079 l 207 1079 l 207 703 z "},"ř":{"ha":706,"x_min":0,"x_max":0,"o":"m 322 0 l 322 453 l 381 453 l 381 528 l 465 528 l 504 453 l 733 453 l 733 715 l 617 901 l 617 1092 l 560 1214 l 147 1214 l 147 1019 l 206 913 l 29 913 l 29 115 l 93 0 z m 207 175 l 89 175 l 89 853 l 207 853 l 207 778 l 265 778 l 265 853 l 558 853 l 558 778 l 617 778 l 617 628 l 500 628 l 500 703 l 265 703 l 265 628 l 207 628 z m 383 929 l 325 929 l 325 1004 l 265 1004 l 265 1079 l 207 1079 l 207 1156 l 325 1156 l 325 1079 l 383 1079 l 383 1156 l 500 1156 l 500 1079 l 442 1079 l 442 1004 l 383 1004 z "},"Ś":{"ha":824,"x_min":0,"x_max":0,"o":"m 675 0 l 675 75 l 733 75 l 733 150 l 793 150 l 793 564 l 676 754 l 793 754 l 793 1017 l 618 1442 l 322 1442 l 322 1365 l 264 1365 l 264 1290 l 147 1290 l 147 1214 l 88 1214 l 88 1139 l 29 1139 l 29 718 l 144 538 l 29 538 l 29 267 l 211 0 z m 558 175 l 207 175 l 207 250 l 147 250 l 147 326 l 89 326 l 89 478 l 207 478 l 207 401 l 265 401 l 265 326 l 500 326 l 500 401 l 558 401 l 558 553 l 500 553 l 500 628 l 207 628 l 207 703 l 147 703 l 147 778 l 89 778 l 89 1079 l 147 1079 l 147 1156 l 207 1156 l 207 1231 l 324 1231 l 324 1306 l 382 1306 l 382 1382 l 558 1382 l 558 1306 l 500 1306 l 500 1231 l 558 1231 l 558 1156 l 617 1156 l 617 1079 l 676 1079 l 676 929 l 558 929 l 558 1004 l 500 1004 l 500 1079 l 265 1079 l 265 1004 l 207 1004 l 207 853 l 265 853 l 265 778 l 558 778 l 558 703 l 617 703 l 617 628 l 676 628 l 676 326 l 617 326 l 617 250 l 558 250 z "},"ś":{"ha":706,"x_min":0,"x_max":0,"o":"m 617 0 l 617 75 l 675 75 l 675 715 l 617 904 l 676 904 l 676 1092 l 619 1214 l 324 1214 l 324 1139 l 265 1139 l 265 1064 l 206 1064 l 206 913 l 88 913 l 88 838 l 29 838 l 29 493 l 89 385 l 29 385 l 29 190 l 151 0 z m 500 175 l 147 175 l 147 250 l 89 250 l 89 326 l 442 326 l 442 478 l 147 478 l 147 553 l 89 553 l 89 778 l 147 778 l 147 853 l 500 853 l 500 778 l 558 778 l 558 703 l 207 703 l 207 628 l 500 628 l 500 553 l 558 553 l 558 250 l 500 250 z m 442 929 l 265 929 l 265 1004 l 325 1004 l 325 1079 l 383 1079 l 383 1156 l 560 1156 l 560 1079 l 500 1079 l 500 1004 l 442 1004 z "},"Ş":{"ha":824,"x_min":0,"x_max":0,"o":"m 499 -225 l 499 -150 l 558 -150 l 558 0 l 675 0 l 675 75 l 733 75 l 733 150 l 793 150 l 793 564 l 676 754 l 793 754 l 793 1017 l 618 1290 l 147 1290 l 147 1214 l 88 1214 l 88 1139 l 29 1139 l 29 718 l 144 538 l 29 538 l 29 267 l 206 10 l 206 -110 l 269 -225 z m 382 -50 l 265 -50 l 265 25 l 324 25 l 324 175 l 207 175 l 207 250 l 147 250 l 147 326 l 89 326 l 89 478 l 207 478 l 207 401 l 265 401 l 265 326 l 500 326 l 500 401 l 558 401 l 558 553 l 500 553 l 500 628 l 207 628 l 207 703 l 147 703 l 147 778 l 89 778 l 89 1079 l 147 1079 l 147 1156 l 207 1156 l 207 1231 l 558 1231 l 558 1156 l 617 1156 l 617 1079 l 676 1079 l 676 929 l 558 929 l 558 1004 l 500 1004 l 500 1079 l 265 1079 l 265 1004 l 207 1004 l 207 853 l 265 853 l 265 778 l 558 778 l 558 703 l 617 703 l 617 628 l 676 628 l 676 326 l 617 326 l 617 250 l 558 250 l 558 175 l 442 175 l 442 25 l 382 25 z "},"ş":{"ha":706,"x_min":0,"x_max":0,"o":"m 439 -225 l 439 -150 l 499 -150 l 499 0 l 617 0 l 617 75 l 675 75 l 675 715 l 560 913 l 88 913 l 88 838 l 29 838 l 29 493 l 89 385 l 29 385 l 29 190 l 147 7 l 147 -110 l 211 -225 z m 324 -50 l 207 -50 l 207 25 l 265 25 l 265 175 l 147 175 l 147 250 l 89 250 l 89 326 l 442 326 l 442 478 l 147 478 l 147 553 l 89 553 l 89 778 l 147 778 l 147 853 l 500 853 l 500 778 l 558 778 l 558 703 l 207 703 l 207 628 l 500 628 l 500 553 l 558 553 l 558 250 l 500 250 l 500 175 l 382 175 l 382 25 l 324 25 z "},"Š":{"ha":824,"x_min":0,"x_max":0,"o":"m 675 0 l 675 75 l 733 75 l 733 150 l 793 150 l 793 564 l 676 754 l 793 754 l 793 1017 l 676 1214 l 646 1214 l 646 1318 l 590 1442 l 176 1442 l 176 1290 l 147 1290 l 147 1214 l 88 1214 l 88 1139 l 29 1139 l 29 718 l 144 538 l 29 538 l 29 267 l 211 0 z m 558 175 l 207 175 l 207 250 l 147 250 l 147 326 l 89 326 l 89 478 l 207 478 l 207 401 l 265 401 l 265 326 l 500 326 l 500 401 l 558 401 l 558 553 l 500 553 l 500 628 l 207 628 l 207 703 l 147 703 l 147 778 l 89 778 l 89 1079 l 147 1079 l 147 1156 l 207 1156 l 207 1231 l 296 1231 l 296 1306 l 236 1306 l 236 1382 l 354 1382 l 354 1306 l 413 1306 l 413 1382 l 531 1382 l 531 1306 l 471 1306 l 471 1231 l 558 1231 l 558 1156 l 617 1156 l 617 1079 l 676 1079 l 676 929 l 558 929 l 558 1004 l 500 1004 l 500 1079 l 265 1079 l 265 1004 l 207 1004 l 207 853 l 265 853 l 265 778 l 558 778 l 558 703 l 617 703 l 617 628 l 676 628 l 676 326 l 617 326 l 617 250 l 558 250 z "},"š":{"ha":706,"x_min":0,"x_max":0,"o":"m 617 0 l 617 75 l 675 75 l 675 715 l 618 838 l 592 838 l 560 904 l 586 904 l 586 1092 l 531 1214 l 118 1214 l 118 1019 l 176 913 l 88 913 l 88 838 l 29 838 l 29 493 l 89 385 l 29 385 l 29 190 l 151 0 z m 500 175 l 147 175 l 147 250 l 89 250 l 89 326 l 442 326 l 442 478 l 147 478 l 147 553 l 89 553 l 89 778 l 147 778 l 147 853 l 500 853 l 500 778 l 558 778 l 558 703 l 207 703 l 207 628 l 500 628 l 500 553 l 558 553 l 558 250 l 500 250 z m 354 929 l 296 929 l 296 1004 l 236 1004 l 236 1079 l 178 1079 l 178 1156 l 296 1156 l 296 1079 l 354 1079 l 354 1156 l 471 1156 l 471 1079 l 413 1079 l 413 1004 l 354 1004 z "},"Ț":{"ha":706,"x_min":0,"x_max":0,"o":"m 439 -225 l 439 -150 l 499 -150 l 499 904 l 675 904 l 675 1167 l 618 1290 l 29 1290 l 29 1019 l 93 904 l 206 904 l 206 85 l 147 85 l 147 -110 l 211 -225 z m 324 -50 l 207 -50 l 207 25 l 265 25 l 265 1079 l 89 1079 l 89 1231 l 558 1231 l 558 1079 l 382 1079 l 382 25 l 324 25 z "},"ț":{"ha":647,"x_min":0,"x_max":0,"o":"m 675 0 l 675 263 l 618 385 l 439 385 l 439 528 l 617 528 l 617 790 l 560 913 l 439 913 l 439 1092 l 383 1214 l 147 1214 l 147 913 l 29 913 l 29 643 l 93 528 l 147 528 l 147 190 l 204 85 l 147 85 l 147 -110 l 211 -225 l 439 -225 l 439 -150 l 499 -150 l 499 0 z m 558 175 l 382 175 l 382 25 l 324 25 l 324 -50 l 207 -50 l 207 25 l 265 25 l 265 250 l 207 250 l 207 703 l 89 703 l 89 853 l 207 853 l 207 1156 l 324 1156 l 324 853 l 500 853 l 500 703 l 324 703 l 324 326 l 558 326 z "},"Ť":{"ha":706,"x_min":0,"x_max":0,"o":"m 499 0 l 499 904 l 675 904 l 675 1167 l 560 1442 l 88 1442 l 88 1290 l 29 1290 l 29 1019 l 93 904 l 206 904 l 206 115 l 269 0 z m 382 175 l 265 175 l 265 1079 l 89 1079 l 89 1231 l 207 1231 l 207 1306 l 147 1306 l 147 1382 l 265 1382 l 265 1306 l 382 1306 l 382 1382 l 500 1382 l 500 1306 l 442 1306 l 442 1231 l 558 1231 l 558 1079 l 382 1079 z "},"ť":{"ha":824,"x_min":0,"x_max":0,"o":"m 675 0 l 675 263 l 618 385 l 439 385 l 439 528 l 618 528 l 618 675 l 733 675 l 733 754 l 793 754 l 793 1167 l 736 1290 l 440 1290 l 440 1090 l 383 1214 l 147 1214 l 147 913 l 29 913 l 29 643 l 93 528 l 147 528 l 147 190 l 269 0 z m 558 175 l 265 175 l 265 250 l 207 250 l 207 703 l 89 703 l 89 853 l 207 853 l 207 1156 l 324 1156 l 324 853 l 499 853 l 499 929 l 558 929 l 558 1004 l 500 1004 l 500 1231 l 676 1231 l 676 929 l 617 929 l 617 850 l 503 850 l 503 703 l 324 703 l 324 326 l 558 326 z "},"Ŧ":{"ha":706,"x_min":0,"x_max":0,"o":"m 499 0 l 499 453 l 675 453 l 675 715 l 618 838 l 499 838 l 499 904 l 675 904 l 675 1167 l 618 1290 l 29 1290 l 29 1019 l 93 904 l 206 904 l 206 838 l 29 838 l 29 568 l 93 453 l 206 453 l 206 115 l 269 0 z m 382 175 l 265 175 l 265 628 l 89 628 l 89 778 l 265 778 l 265 1079 l 89 1079 l 89 1231 l 558 1231 l 558 1079 l 382 1079 l 382 778 l 558 778 l 558 628 l 382 628 z "},"ŧ":{"ha":647,"x_min":0,"x_max":0,"o":"m 675 0 l 675 263 l 617 378 l 617 790 l 560 913 l 439 913 l 439 1092 l 383 1214 l 147 1214 l 147 913 l 29 913 l 29 418 l 93 301 l 147 301 l 147 190 l 269 0 z m 558 175 l 265 175 l 265 250 l 207 250 l 207 478 l 89 478 l 89 553 l 207 553 l 207 703 l 89 703 l 89 853 l 207 853 l 207 1156 l 324 1156 l 324 853 l 500 853 l 500 703 l 324 703 l 324 553 l 500 553 l 500 478 l 324 478 l 324 326 l 558 326 z "},"Ũ":{"ha":824,"x_min":0,"x_max":0,"o":"m 675 0 l 675 75 l 733 75 l 733 225 l 793 225 l 793 1167 l 736 1290 l 646 1290 l 590 1442 l 232 1442 l 232 1368 l 176 1368 l 176 1290 l 29 1290 l 29 342 l 211 0 z m 558 175 l 207 175 l 207 250 l 147 250 l 147 401 l 89 401 l 89 1231 l 207 1231 l 207 401 l 265 401 l 265 326 l 500 326 l 500 401 l 558 401 l 558 1231 l 676 1231 l 676 401 l 617 401 l 617 250 l 558 250 z m 474 1231 l 354 1231 l 354 1306 l 297 1306 l 297 1231 l 236 1231 l 236 1308 l 292 1308 l 292 1382 l 413 1382 l 413 1306 l 468 1306 l 468 1382 l 531 1382 l 531 1303 l 474 1303 z "},"ũ":{"ha":824,"x_min":0,"x_max":0,"o":"m 793 0 l 793 790 l 736 913 l 644 913 l 589 1139 l 232 1139 l 232 1067 l 176 1067 l 176 913 l 29 913 l 29 267 l 211 0 z m 676 175 l 558 175 l 558 250 l 500 250 l 500 175 l 207 175 l 207 250 l 147 250 l 147 326 l 89 326 l 89 853 l 207 853 l 207 401 l 265 401 l 265 326 l 500 326 l 500 401 l 558 401 l 558 853 l 676 853 z m 474 929 l 354 929 l 354 1004 l 296 1004 l 296 929 l 236 929 l 236 1007 l 292 1007 l 292 1079 l 413 1079 l 413 1004 l 468 1004 l 468 1079 l 529 1079 l 529 1003 l 474 1003 z "},"Ū":{"ha":824,"x_min":0,"x_max":0,"o":"m 675 0 l 675 75 l 733 75 l 733 225 l 793 225 l 793 1167 l 618 1442 l 147 1442 l 147 1290 l 29 1290 l 29 342 l 211 0 z m 558 175 l 207 175 l 207 250 l 147 250 l 147 401 l 89 401 l 89 1231 l 207 1231 l 207 401 l 265 401 l 265 326 l 500 326 l 500 401 l 558 401 l 558 1231 l 676 1231 l 676 401 l 617 401 l 617 250 l 558 250 z m 558 1306 l 207 1306 l 207 1382 l 558 1382 z "},"ū":{"ha":824,"x_min":0,"x_max":0,"o":"m 793 0 l 793 790 l 736 913 l 675 913 l 618 1064 l 147 1064 l 147 913 l 29 913 l 29 267 l 211 0 z m 676 175 l 558 175 l 558 250 l 500 250 l 500 175 l 207 175 l 207 250 l 147 250 l 147 326 l 89 326 l 89 853 l 207 853 l 207 401 l 265 401 l 265 326 l 500 326 l 500 401 l 558 401 l 558 853 l 676 853 z m 558 929 l 207 929 l 207 1004 l 558 1004 z "},"Ů":{"ha":824,"x_min":0,"x_max":0,"o":"m 675 0 l 675 75 l 733 75 l 733 225 l 793 225 l 793 1167 l 736 1290 l 651 1290 l 560 1442 l 206 1442 l 206 1365 l 144 1365 l 144 1290 l 29 1290 l 29 342 l 211 0 z m 558 175 l 207 175 l 207 250 l 147 250 l 147 401 l 89 401 l 89 1231 l 204 1231 l 204 1306 l 265 1306 l 265 1382 l 500 1382 l 500 1306 l 561 1306 l 561 1231 l 676 1231 l 676 401 l 617 401 l 617 250 l 558 250 z m 500 326 l 500 401 l 558 401 l 558 1228 l 500 1228 l 500 1156 l 265 1156 l 265 1228 l 207 1231 l 207 401 l 265 401 l 265 326 z m 442 1231 l 442 1306 l 324 1306 l 324 1231 z "},"ů":{"ha":824,"x_min":0,"x_max":0,"o":"m 793 0 l 793 790 l 736 913 l 675 913 l 560 1214 l 206 1214 l 206 1139 l 146 1139 l 146 944 l 167 913 l 29 913 l 29 267 l 211 0 z m 676 175 l 558 175 l 558 250 l 500 250 l 500 175 l 207 175 l 207 250 l 147 250 l 147 326 l 89 326 l 89 853 l 207 853 l 207 401 l 265 401 l 265 326 l 500 326 l 500 401 l 558 401 l 558 853 l 676 853 z m 500 929 l 265 929 l 265 1004 l 206 1004 l 206 1079 l 265 1079 l 265 1156 l 500 1156 l 500 1079 l 558 1079 l 558 1004 l 500 1004 z m 440 1004 l 440 1079 l 324 1079 l 324 1004 z "},"Ű":{"ha":824,"x_min":0,"x_max":0,"o":"m 675 0 l 675 75 l 733 75 l 733 225 l 793 225 l 793 1318 l 736 1442 l 206 1442 l 206 1365 l 142 1365 l 142 1290 l 29 1290 l 29 342 l 211 0 z m 558 175 l 207 175 l 207 250 l 147 250 l 147 401 l 89 401 l 89 1231 l 201 1231 l 201 1306 l 265 1306 l 265 1382 l 444 1382 l 444 1306 l 499 1306 l 499 1382 l 676 1382 l 676 1306 l 617 1306 l 617 1231 l 676 1231 l 676 401 l 617 401 l 617 250 l 558 250 z m 500 326 l 500 401 l 558 401 l 558 1231 l 439 1231 l 439 1303 l 382 1303 l 382 1231 l 207 1231 l 207 401 l 265 401 l 265 326 z "},"ű":{"ha":824,"x_min":0,"x_max":0,"o":"m 793 0 l 793 904 l 851 904 l 851 1092 l 794 1214 l 264 1214 l 264 1139 l 206 1139 l 206 1064 l 147 1064 l 147 913 l 29 913 l 29 267 l 211 0 z m 676 175 l 558 175 l 558 250 l 500 250 l 500 175 l 207 175 l 207 250 l 147 250 l 147 326 l 89 326 l 89 853 l 207 853 l 207 401 l 265 401 l 265 326 l 500 326 l 500 401 l 558 401 l 558 853 l 676 853 z m 617 929 l 439 929 l 439 1003 l 382 1003 l 382 929 l 207 929 l 207 1004 l 265 1004 l 265 1079 l 324 1079 l 324 1156 l 503 1156 l 503 1082 l 558 1082 l 558 1156 l 736 1156 l 736 1079 l 676 1079 l 676 1004 l 617 1004 z m 499 1004 l 499 1079 l 444 1079 l 444 1004 z "},"Ų":{"ha":824,"x_min":0,"x_max":0,"o":"m 617 -225 l 617 0 l 675 0 l 675 75 l 733 75 l 733 225 l 793 225 l 793 1167 l 736 1290 l 499 1290 l 499 461 l 440 461 l 440 385 l 356 385 l 322 451 l 322 1167 l 267 1290 l 29 1290 l 29 342 l 328 -225 z m 500 -50 l 324 -50 l 324 175 l 207 175 l 207 250 l 147 250 l 147 401 l 89 401 l 89 1231 l 207 1231 l 207 401 l 265 401 l 265 326 l 500 326 l 500 401 l 558 401 l 558 1231 l 676 1231 l 676 401 l 617 401 l 617 250 l 558 250 l 558 175 l 442 175 l 442 100 l 500 100 z "},"ų":{"ha":824,"x_min":0,"x_max":0,"o":"m 793 -225 l 793 790 l 736 913 l 499 913 l 499 461 l 440 461 l 440 385 l 356 385 l 322 453 l 322 790 l 267 913 l 29 913 l 29 267 l 211 0 l 439 0 l 439 -110 l 501 -225 z m 676 -50 l 499 -50 l 499 175 l 207 175 l 207 250 l 147 250 l 147 326 l 89 326 l 89 853 l 207 853 l 207 401 l 265 401 l 265 326 l 500 326 l 500 401 l 558 401 l 558 853 l 676 853 l 676 175 l 617 175 l 617 100 l 676 100 z m 558 181 l 558 250 l 503 250 l 503 181 z "},"Ŵ":{"ha":824,"x_min":0,"x_max":0,"o":"m 793 0 l 793 1167 l 736 1290 l 651 1290 l 560 1442 l 206 1442 l 206 1365 l 144 1365 l 144 1290 l 29 1290 l 29 115 l 93 0 l 322 0 l 322 75 l 381 75 l 381 225 l 565 0 z m 676 175 l 561 175 l 561 250 l 501 250 l 501 401 l 442 401 l 442 478 l 324 478 l 324 401 l 265 401 l 265 250 l 207 250 l 207 175 l 89 175 l 89 1231 l 204 1231 l 204 1306 l 265 1306 l 265 1382 l 500 1382 l 500 1306 l 561 1306 l 561 1231 l 676 1231 z m 561 478 l 561 1228 l 442 1228 l 442 1306 l 324 1306 l 324 1228 l 207 1228 l 207 478 l 265 478 l 265 553 l 324 553 l 324 703 l 442 703 l 442 553 l 500 553 l 500 478 z "},"ŵ":{"ha":824,"x_min":0,"x_max":0,"o":"m 675 0 l 675 75 l 733 75 l 733 225 l 793 225 l 793 790 l 736 913 l 644 913 l 472 1214 l 294 1214 l 294 1139 l 235 1139 l 235 1064 l 176 1064 l 176 913 l 29 913 l 29 342 l 211 0 l 381 0 l 381 75 l 465 75 l 504 0 z m 558 175 l 500 175 l 500 250 l 442 250 l 442 326 l 324 326 l 324 250 l 265 250 l 265 175 l 207 175 l 207 250 l 150 250 l 150 401 l 89 401 l 89 853 l 207 853 l 207 401 l 265 401 l 265 478 l 324 478 l 324 853 l 442 853 l 442 478 l 500 478 l 500 401 l 558 401 l 558 853 l 676 853 l 676 401 l 617 401 l 617 250 l 558 250 z m 529 929 l 413 929 l 413 1004 l 354 1004 l 354 929 l 236 929 l 236 1004 l 294 1004 l 294 1079 l 354 1079 l 354 1156 l 413 1156 l 413 1079 l 471 1079 l 471 1004 l 529 1004 z "},"Ŷ":{"ha":824,"x_min":0,"x_max":0,"o":"m 558 0 l 558 453 l 617 453 l 617 603 l 675 603 l 675 754 l 733 754 l 733 904 l 793 904 l 793 1167 l 736 1290 l 621 1290 l 531 1442 l 236 1442 l 236 1365 l 176 1365 l 176 1290 l 29 1290 l 29 1019 l 264 461 l 264 115 l 328 0 z m 442 175 l 324 175 l 324 628 l 265 628 l 265 778 l 207 778 l 207 929 l 147 929 l 147 1079 l 89 1079 l 89 1231 l 207 1231 l 207 1079 l 265 1079 l 265 929 l 324 929 l 324 778 l 442 778 l 442 929 l 500 929 l 500 1079 l 558 1079 l 558 1231 l 676 1231 l 676 1079 l 617 1079 l 617 929 l 558 929 l 558 778 l 500 778 l 500 628 l 442 628 z m 531 1231 l 413 1231 l 413 1306 l 354 1306 l 354 1231 l 236 1231 l 236 1306 l 296 1306 l 296 1382 l 471 1382 l 471 1306 l 531 1306 z "},"ŷ":{"ha":706,"x_min":0,"x_max":0,"o":"m 381 -150 l 381 -75 l 439 -75 l 439 75 l 499 75 l 499 225 l 558 225 l 558 376 l 615 376 l 615 528 l 675 528 l 675 790 l 414 1214 l 236 1214 l 236 1139 l 176 1139 l 176 1064 l 118 1064 l 118 913 l 29 913 l 29 643 l 147 385 l 147 160 l 88 160 l 88 -35 l 151 -150 z m 265 25 l 147 25 l 147 100 l 207 100 l 207 250 l 265 250 l 265 401 l 207 401 l 207 553 l 147 553 l 147 703 l 89 703 l 89 853 l 207 853 l 207 703 l 265 703 l 265 553 l 382 553 l 382 703 l 442 703 l 442 853 l 558 853 l 558 703 l 499 703 l 499 553 l 442 553 l 442 401 l 382 401 l 382 250 l 324 250 l 324 100 l 265 100 z m 471 929 l 354 929 l 354 1004 l 296 1004 l 296 929 l 178 929 l 178 1004 l 236 1004 l 236 1079 l 296 1079 l 296 1156 l 354 1156 l 354 1079 l 413 1079 l 413 1004 l 471 1004 z "},"Ÿ":{"ha":824,"x_min":0,"x_max":0,"o":"m 558 0 l 558 453 l 617 453 l 617 603 l 675 603 l 675 754 l 733 754 l 733 904 l 793 904 l 793 1167 l 736 1290 l 676 1290 l 621 1442 l 144 1442 l 144 1290 l 29 1290 l 29 1019 l 264 461 l 264 115 l 328 0 z m 442 175 l 324 175 l 324 628 l 265 628 l 265 778 l 207 778 l 207 929 l 147 929 l 147 1079 l 89 1079 l 89 1231 l 204 1231 l 204 1382 l 324 1382 l 324 1228 l 207 1228 l 207 1079 l 265 1079 l 265 929 l 324 929 l 324 778 l 442 778 l 442 929 l 500 929 l 500 1079 l 558 1079 l 558 1228 l 442 1228 l 442 1382 l 561 1382 l 561 1231 l 676 1231 l 676 1079 l 617 1079 l 617 929 l 558 929 l 558 778 l 500 778 l 500 628 l 442 628 z "},"Ź":{"ha":824,"x_min":0,"x_max":0,"o":"m 793 0 l 793 263 l 736 385 l 497 385 l 497 453 l 558 453 l 558 603 l 617 603 l 617 678 l 675 678 l 675 754 l 733 754 l 733 904 l 793 904 l 793 1167 l 618 1442 l 322 1442 l 322 1365 l 264 1365 l 264 1290 l 29 1290 l 29 1019 l 93 904 l 322 904 l 322 838 l 264 838 l 264 688 l 206 688 l 206 613 l 147 613 l 147 538 l 88 538 l 88 385 l 29 385 l 29 115 l 93 0 z m 676 175 l 89 175 l 89 326 l 147 326 l 147 478 l 207 478 l 207 553 l 265 553 l 265 628 l 324 628 l 324 778 l 382 778 l 382 853 l 442 853 l 442 929 l 500 929 l 500 1079 l 89 1079 l 89 1231 l 324 1231 l 324 1306 l 382 1306 l 382 1382 l 558 1382 l 558 1306 l 500 1306 l 500 1231 l 676 1231 l 676 1079 l 617 1079 l 617 929 l 558 929 l 558 853 l 500 853 l 500 778 l 442 778 l 442 628 l 381 628 l 381 553 l 324 553 l 324 478 l 265 478 l 265 326 l 676 326 z "},"ź":{"ha":765,"x_min":0,"x_max":0,"o":"m 733 0 l 733 263 l 676 385 l 558 385 l 558 453 l 617 453 l 617 528 l 675 528 l 675 603 l 733 603 l 733 790 l 676 901 l 676 1092 l 619 1214 l 324 1214 l 324 1139 l 265 1139 l 265 1064 l 206 1064 l 206 913 l 29 913 l 29 643 l 93 528 l 147 528 l 147 461 l 88 461 l 88 385 l 29 385 l 29 115 l 93 0 z m 617 175 l 89 175 l 89 326 l 147 326 l 147 401 l 207 401 l 207 478 l 265 478 l 265 553 l 324 553 l 324 628 l 382 628 l 382 703 l 89 703 l 89 853 l 617 853 l 617 778 l 558 778 l 558 703 l 500 703 l 500 628 l 442 628 l 442 553 l 382 553 l 382 478 l 324 478 l 324 401 l 265 401 l 265 326 l 617 326 z m 442 929 l 265 929 l 265 1004 l 325 1004 l 325 1079 l 383 1079 l 383 1156 l 560 1156 l 560 1079 l 500 1079 l 500 1004 l 442 1004 z "},"Ż":{"ha":824,"x_min":0,"x_max":0,"o":"m 793 0 l 793 263 l 736 385 l 497 385 l 497 453 l 558 453 l 558 603 l 617 603 l 617 678 l 675 678 l 675 754 l 733 754 l 733 904 l 793 904 l 793 1167 l 736 1290 l 558 1290 l 501 1442 l 264 1442 l 264 1290 l 29 1290 l 29 1019 l 93 904 l 322 904 l 322 838 l 264 838 l 264 688 l 206 688 l 206 613 l 147 613 l 147 538 l 88 538 l 88 385 l 29 385 l 29 115 l 93 0 z m 676 175 l 89 175 l 89 326 l 147 326 l 147 478 l 207 478 l 207 553 l 265 553 l 265 628 l 324 628 l 324 778 l 382 778 l 382 853 l 442 853 l 442 929 l 500 929 l 500 1079 l 89 1079 l 89 1231 l 324 1231 l 324 1382 l 442 1382 l 442 1231 l 676 1231 l 676 1079 l 617 1079 l 617 929 l 558 929 l 558 853 l 500 853 l 500 778 l 442 778 l 442 628 l 381 628 l 381 553 l 324 553 l 324 478 l 265 478 l 265 326 l 676 326 z "},"ż":{"ha":765,"x_min":0,"x_max":0,"o":"m 733 0 l 733 263 l 676 385 l 558 385 l 558 453 l 617 453 l 617 528 l 675 528 l 675 603 l 733 603 l 733 790 l 676 913 l 528 913 l 472 1139 l 236 1139 l 236 913 l 29 913 l 29 643 l 93 528 l 147 528 l 147 461 l 88 461 l 88 385 l 29 385 l 29 115 l 93 0 z m 617 175 l 89 175 l 89 326 l 147 326 l 147 401 l 207 401 l 207 478 l 265 478 l 265 553 l 324 553 l 324 628 l 382 628 l 382 703 l 89 703 l 89 853 l 617 853 l 617 778 l 558 778 l 558 703 l 500 703 l 500 628 l 442 628 l 442 553 l 382 553 l 382 478 l 324 478 l 324 401 l 265 401 l 265 326 l 617 326 z m 413 929 l 296 929 l 296 1079 l 413 1079 z "},"Ž":{"ha":824,"x_min":0,"x_max":0,"o":"m 793 0 l 793 263 l 736 385 l 497 385 l 497 453 l 558 453 l 558 603 l 617 603 l 617 678 l 675 678 l 675 754 l 733 754 l 733 904 l 793 904 l 793 1167 l 736 1290 l 646 1290 l 590 1442 l 176 1442 l 176 1290 l 29 1290 l 29 1019 l 93 904 l 322 904 l 322 838 l 264 838 l 264 688 l 206 688 l 206 613 l 147 613 l 147 538 l 88 538 l 88 385 l 29 385 l 29 115 l 93 0 z m 676 175 l 89 175 l 89 326 l 147 326 l 147 478 l 207 478 l 207 553 l 265 553 l 265 628 l 324 628 l 324 778 l 382 778 l 382 853 l 442 853 l 442 929 l 500 929 l 500 1079 l 89 1079 l 89 1231 l 296 1231 l 296 1306 l 236 1306 l 236 1382 l 354 1382 l 354 1306 l 413 1306 l 413 1382 l 531 1382 l 531 1306 l 471 1306 l 471 1231 l 676 1231 l 676 1079 l 617 1079 l 617 929 l 558 929 l 558 853 l 500 853 l 500 778 l 442 778 l 442 628 l 381 628 l 381 553 l 324 553 l 324 478 l 265 478 l 265 326 l 676 326 z "},"ž":{"ha":765,"x_min":0,"x_max":0,"o":"m 733 0 l 733 263 l 676 385 l 558 385 l 558 453 l 617 453 l 617 528 l 675 528 l 675 603 l 733 603 l 733 790 l 676 913 l 617 913 l 617 1092 l 560 1214 l 147 1214 l 147 1019 l 206 913 l 29 913 l 29 643 l 93 528 l 147 528 l 147 461 l 88 461 l 88 385 l 29 385 l 29 115 l 93 0 z m 617 175 l 89 175 l 89 326 l 147 326 l 147 401 l 207 401 l 207 478 l 265 478 l 265 553 l 324 553 l 324 628 l 382 628 l 382 703 l 89 703 l 89 853 l 617 853 l 617 778 l 558 778 l 558 703 l 500 703 l 500 628 l 442 628 l 442 553 l 382 553 l 382 478 l 324 478 l 324 401 l 265 401 l 265 326 l 617 326 z m 383 929 l 325 929 l 325 1004 l 265 1004 l 265 1079 l 207 1079 l 207 1156 l 325 1156 l 325 1079 l 383 1079 l 383 1156 l 500 1156 l 500 1079 l 442 1079 l 442 1004 l 383 1004 z "},"Ǝ":{"ha":824,"x_min":0,"x_max":0,"o":"m 793 0 l 793 1167 l 736 1290 l 29 1290 l 29 1019 l 93 904 l 499 904 l 499 838 l 147 838 l 147 568 l 151 568 l 211 453 l 499 453 l 499 385 l 29 385 l 29 115 l 93 0 z m 676 175 l 89 175 l 89 326 l 558 326 l 558 628 l 207 628 l 207 778 l 558 778 l 558 1079 l 89 1079 l 89 1231 l 676 1231 z "},"Ə":{"ha":824,"x_min":0,"x_max":0,"o":"m 617 0 l 617 75 l 675 75 l 675 150 l 733 150 l 733 301 l 793 301 l 793 867 l 560 1290 l 147 1290 l 147 1214 l 88 1214 l 88 1139 l 29 1139 l 29 418 l 269 0 z m 500 175 l 265 175 l 265 250 l 207 250 l 207 326 l 147 326 l 147 478 l 89 478 l 89 778 l 558 778 l 558 929 l 500 929 l 500 1004 l 442 1004 l 442 1079 l 265 1079 l 265 1004 l 207 1004 l 207 929 l 89 929 l 89 1079 l 147 1079 l 147 1156 l 207 1156 l 207 1231 l 500 1231 l 500 1156 l 558 1156 l 558 1079 l 617 1079 l 617 929 l 676 929 l 676 478 l 617 478 l 617 326 l 558 326 l 558 250 l 500 250 z m 442 326 l 442 401 l 500 401 l 500 478 l 558 478 l 558 628 l 207 628 l 207 478 l 265 478 l 265 401 l 324 401 l 324 326 z "},"ƒ":{"ha":706,"x_min":0,"x_max":0,"o":"m 439 -150 l 439 -75 l 499 -75 l 499 453 l 675 453 l 675 715 l 618 838 l 558 838 l 558 904 l 733 904 l 733 1167 l 676 1290 l 322 1290 l 322 1214 l 264 1214 l 264 1139 l 206 1139 l 206 838 l 88 838 l 88 568 l 151 453 l 206 453 l 206 310 l -29 310 l -29 40 l 93 -150 z m 324 25 l 89 25 l 89 100 l 31 100 l 31 250 l 147 250 l 147 175 l 265 175 l 265 628 l 147 628 l 147 778 l 265 778 l 265 1079 l 324 1079 l 324 1156 l 382 1156 l 382 1231 l 617 1231 l 617 1079 l 442 1079 l 442 1004 l 382 1004 l 382 778 l 558 778 l 558 628 l 382 628 l 382 100 l 324 100 z "},"Ɣ":{"ha":824,"x_min":0,"x_max":0,"o":"m 617 -225 l 617 -150 l 675 -150 l 675 188 l 617 301 l 617 376 l 675 376 l 675 603 l 733 603 l 733 829 l 793 829 l 793 1167 l 736 1290 l 499 1290 l 499 1064 l 440 1064 l 440 838 l 381 838 l 267 1290 l 29 1290 l 29 944 l 206 386 l 206 310 l 147 310 l 147 -35 l 269 -225 z m 500 -50 l 265 -50 l 265 25 l 207 25 l 207 250 l 265 250 l 265 553 l 207 553 l 207 778 l 147 778 l 147 1004 l 89 1004 l 89 1231 l 207 1231 l 207 1004 l 265 1004 l 265 778 l 324 778 l 324 553 l 442 553 l 442 778 l 500 778 l 500 1004 l 558 1004 l 558 1231 l 676 1231 l 676 1004 l 617 1004 l 617 778 l 558 778 l 558 553 l 500 553 l 500 250 l 558 250 l 558 25 l 500 25 z m 442 25 l 442 250 l 324 250 l 324 25 z "},"Ɲ":{"ha":824,"x_min":0,"x_max":0,"o":"m 793 0 l 793 1167 l 736 1290 l 499 1290 l 499 867 l 267 1290 l 29 1290 l 29 235 l -146 235 l -146 -35 l -83 -150 l 263 -150 l 263 -75 l 322 -75 l 322 418 l 563 0 z m 676 175 l 558 175 l 558 250 l 500 250 l 500 401 l 442 401 l 442 478 l 382 478 l 382 628 l 324 628 l 324 778 l 265 778 l 265 929 l 207 929 l 207 100 l 147 100 l 147 25 l -86 25 l -86 175 l 89 175 l 89 1231 l 207 1231 l 207 1156 l 265 1156 l 265 1004 l 324 1004 l 324 929 l 382 929 l 382 778 l 442 778 l 442 628 l 500 628 l 500 478 l 558 478 l 558 1231 l 676 1231 z "},"ǝ":{"ha":824,"x_min":0,"x_max":0,"o":"m 675 0 l 675 75 l 733 75 l 733 150 l 793 150 l 793 639 l 618 913 l 147 913 l 147 838 l 88 838 l 88 538 l 29 538 l 29 267 l 211 0 z m 558 175 l 207 175 l 207 250 l 147 250 l 147 326 l 89 326 l 89 478 l 147 478 l 147 553 l 558 553 l 558 628 l 500 628 l 500 703 l 147 703 l 147 778 l 207 778 l 207 853 l 558 853 l 558 778 l 617 778 l 617 703 l 676 703 l 676 326 l 617 326 l 617 250 l 558 250 z m 500 326 l 500 401 l 207 401 l 207 326 z "},"Ǧ":{"ha":824,"x_min":0,"x_max":0,"o":"m 793 0 l 793 715 l 736 829 l 793 829 l 793 1092 l 618 1442 l 206 1442 l 206 1214 l 147 1214 l 147 1139 l 88 1139 l 88 989 l 29 989 l 29 418 l 269 0 z m 676 175 l 265 175 l 265 250 l 207 250 l 207 326 l 147 326 l 147 478 l 89 478 l 89 929 l 147 929 l 147 1079 l 207 1079 l 207 1156 l 265 1156 l 265 1231 l 324 1231 l 324 1306 l 265 1306 l 265 1382 l 382 1382 l 382 1306 l 442 1306 l 442 1382 l 558 1382 l 558 1306 l 500 1306 l 500 1231 l 617 1231 l 617 1156 l 676 1156 l 676 1004 l 558 1004 l 558 1079 l 324 1079 l 324 1004 l 265 1004 l 265 929 l 207 929 l 207 478 l 265 478 l 265 401 l 324 401 l 324 326 l 558 326 l 558 628 l 382 628 l 382 778 l 676 778 z "},"ǧ":{"ha":824,"x_min":0,"x_max":0,"o":"m 675 -150 l 675 -75 l 733 -75 l 733 0 l 793 0 l 793 790 l 736 913 l 675 913 l 675 1092 l 618 1214 l 206 1214 l 206 1019 l 264 913 l 147 913 l 147 838 l 88 838 l 88 763 l 29 763 l 29 418 l 144 235 l 88 235 l 88 -35 l 151 -150 z m 558 25 l 147 25 l 147 175 l 500 175 l 500 250 l 558 250 l 558 401 l 500 401 l 500 326 l 207 326 l 207 401 l 147 401 l 147 478 l 89 478 l 89 703 l 147 703 l 147 778 l 207 778 l 207 853 l 676 853 l 676 175 l 617 175 l 617 100 l 558 100 z m 500 478 l 500 553 l 558 553 l 558 703 l 265 703 l 265 628 l 207 628 l 207 553 l 265 553 l 265 478 z m 442 929 l 383 929 l 383 1004 l 324 1004 l 324 1079 l 265 1079 l 265 1156 l 383 1156 l 383 1079 l 442 1079 l 442 1156 l 558 1156 l 558 1079 l 500 1079 l 500 1004 l 442 1004 z "},"Ǵ":{"ha":824,"x_min":0,"x_max":0,"o":"m 793 0 l 793 715 l 736 829 l 793 829 l 793 1092 l 618 1442 l 322 1442 l 322 1365 l 264 1365 l 264 1290 l 206 1290 l 206 1214 l 147 1214 l 147 1139 l 88 1139 l 88 989 l 29 989 l 29 418 l 269 0 z m 676 175 l 265 175 l 265 250 l 207 250 l 207 326 l 147 326 l 147 478 l 89 478 l 89 929 l 147 929 l 147 1079 l 207 1079 l 207 1156 l 265 1156 l 265 1231 l 324 1231 l 324 1306 l 382 1306 l 382 1382 l 558 1382 l 558 1306 l 500 1306 l 500 1231 l 617 1231 l 617 1156 l 676 1156 l 676 1004 l 558 1004 l 558 1079 l 324 1079 l 324 1004 l 265 1004 l 265 929 l 207 929 l 207 478 l 265 478 l 265 401 l 324 401 l 324 326 l 558 326 l 558 628 l 382 628 l 382 778 l 676 778 z "},"ǵ":{"ha":824,"x_min":0,"x_max":0,"o":"m 675 -150 l 675 -75 l 733 -75 l 733 0 l 793 0 l 793 790 l 736 913 l 676 913 l 676 1092 l 619 1214 l 324 1214 l 324 1139 l 265 1139 l 265 1064 l 206 1064 l 206 913 l 147 913 l 147 838 l 88 838 l 88 763 l 29 763 l 29 418 l 144 235 l 88 235 l 88 -35 l 151 -150 z m 558 25 l 147 25 l 147 175 l 500 175 l 500 250 l 558 250 l 558 401 l 500 401 l 500 326 l 207 326 l 207 401 l 147 401 l 147 478 l 89 478 l 89 703 l 147 703 l 147 778 l 207 778 l 207 853 l 676 853 l 676 175 l 617 175 l 617 100 l 558 100 z m 500 478 l 500 553 l 558 553 l 558 703 l 265 703 l 265 628 l 207 628 l 207 553 l 265 553 l 265 478 z m 442 929 l 265 929 l 265 1004 l 325 1004 l 325 1079 l 383 1079 l 383 1156 l 560 1156 l 560 1079 l 500 1079 l 500 1004 l 442 1004 z "},"Ǹ":{"ha":824,"x_min":0,"x_max":0,"o":"m 793 0 l 793 1167 l 736 1290 l 532 1290 l 442 1442 l 147 1442 l 147 1290 l 29 1290 l 29 115 l 93 0 l 322 0 l 322 418 l 563 0 z m 676 175 l 558 175 l 558 250 l 500 250 l 500 401 l 442 401 l 442 478 l 382 478 l 382 628 l 324 628 l 324 778 l 265 778 l 265 929 l 207 929 l 207 175 l 89 175 l 89 1231 l 207 1231 l 207 1156 l 265 1156 l 265 1004 l 324 1004 l 324 929 l 382 929 l 382 778 l 442 778 l 442 628 l 500 628 l 500 478 l 558 478 l 558 1231 l 676 1231 z m 442 1231 l 265 1231 l 265 1306 l 207 1306 l 207 1382 l 382 1382 l 382 1306 l 442 1306 z "},"ǹ":{"ha":765,"x_min":0,"x_max":0,"o":"m 733 0 l 733 639 l 385 1214 l 89 1214 l 89 1019 l 147 913 l 29 913 l 29 115 l 93 0 l 322 0 l 322 528 l 407 528 l 440 461 l 440 115 l 504 0 z m 617 175 l 500 175 l 500 628 l 442 628 l 442 703 l 207 703 l 207 175 l 89 175 l 89 853 l 500 853 l 500 778 l 558 778 l 558 703 l 617 703 z m 442 929 l 265 929 l 265 1004 l 207 1004 l 207 1079 l 149 1079 l 149 1156 l 325 1156 l 325 1079 l 383 1079 l 383 1004 l 442 1004 z "},"Ɂ":{"ha":824,"x_min":0,"x_max":0,"o":"m 558 0 l 558 453 l 617 453 l 617 528 l 675 528 l 675 603 l 733 603 l 733 678 l 793 678 l 793 1017 l 618 1290 l 147 1290 l 147 1214 l 88 1214 l 88 1139 l 29 1139 l 29 793 l 93 678 l 264 678 l 264 115 l 328 0 z m 442 175 l 324 175 l 324 703 l 382 703 l 382 778 l 442 778 l 442 853 l 500 853 l 500 929 l 558 929 l 558 1004 l 500 1004 l 500 1079 l 265 1079 l 265 1004 l 207 1004 l 207 853 l 89 853 l 89 1079 l 147 1079 l 147 1156 l 207 1156 l 207 1231 l 558 1231 l 558 1156 l 617 1156 l 617 1079 l 676 1079 l 676 853 l 617 853 l 617 778 l 558 778 l 558 703 l 500 703 l 500 628 l 442 628 z "},"ɂ":{"ha":824,"x_min":0,"x_max":0,"o":"m 558 0 l 558 75 l 617 75 l 617 150 l 675 150 l 675 225 l 733 225 l 733 301 l 793 301 l 793 639 l 618 913 l 147 913 l 147 838 l 88 838 l 88 763 l 29 763 l 29 418 l 93 301 l 264 301 l 264 115 l 328 0 z m 442 175 l 324 175 l 324 326 l 382 326 l 382 401 l 442 401 l 442 478 l 500 478 l 500 553 l 558 553 l 558 628 l 500 628 l 500 703 l 265 703 l 265 628 l 207 628 l 207 478 l 89 478 l 89 703 l 147 703 l 147 778 l 207 778 l 207 853 l 558 853 l 558 778 l 617 778 l 617 703 l 676 703 l 676 478 l 617 478 l 617 401 l 558 401 l 558 326 l 500 326 l 500 250 l 442 250 z "},"Ɍ":{"ha":882,"x_min":0,"x_max":0,"o":"m 851 0 l 851 263 l 736 453 l 793 453 l 793 528 l 851 528 l 851 1017 l 676 1290 l 88 1290 l 88 763 l -29 763 l -29 493 l 33 376 l 88 376 l 88 115 l 151 0 l 381 0 l 381 311 l 621 0 z m 736 175 l 617 175 l 617 250 l 558 250 l 558 326 l 500 326 l 500 401 l 442 401 l 442 478 l 382 478 l 382 553 l 265 553 l 265 175 l 147 175 l 147 553 l 31 553 l 31 703 l 147 703 l 147 1231 l 617 1231 l 617 1156 l 676 1156 l 676 1079 l 736 1079 l 736 703 l 676 703 l 676 628 l 617 628 l 617 553 l 558 553 l 558 478 l 617 478 l 617 401 l 676 401 l 676 326 l 736 326 z m 558 703 l 558 778 l 617 778 l 617 1004 l 558 1004 l 558 1079 l 265 1079 l 265 703 z "},"ɍ":{"ha":706,"x_min":0,"x_max":0,"o":"m 675 301 l 675 453 l 733 453 l 733 715 l 618 913 l 29 913 l 29 613 l -29 613 l -29 418 l 29 311 l 29 115 l 93 0 l 322 0 l 322 301 z m 558 478 l 207 478 l 207 175 l 89 175 l 89 478 l 31 478 l 31 553 l 89 553 l 89 853 l 207 853 l 207 778 l 265 778 l 265 853 l 558 853 l 558 778 l 617 778 l 617 628 l 500 628 l 500 703 l 265 703 l 265 628 l 207 628 l 207 553 l 558 553 z "},"ɣ":{"ha":824,"x_min":0,"x_max":0,"o":"m 617 -225 l 617 -150 l 675 -150 l 675 376 l 733 376 l 733 528 l 793 528 l 793 790 l 736 913 l 499 913 l 499 763 l 440 763 l 440 613 l 381 613 l 267 913 l 29 913 l 29 643 l 147 385 l 147 -35 l 269 -225 z m 500 -50 l 265 -50 l 265 25 l 207 25 l 207 250 l 265 250 l 265 401 l 207 401 l 207 553 l 147 553 l 147 703 l 89 703 l 89 853 l 207 853 l 207 703 l 265 703 l 265 553 l 324 553 l 324 401 l 442 401 l 442 553 l 500 553 l 500 703 l 558 703 l 558 853 l 676 853 l 676 703 l 617 703 l 617 553 l 558 553 l 558 401 l 500 401 l 500 250 l 558 250 l 558 25 l 500 25 z m 442 25 l 442 250 l 324 250 l 324 25 z "},"ɲ":{"ha":765,"x_min":0,"x_max":0,"o":"m 733 0 l 733 639 l 560 913 l 29 913 l 29 235 l -146 235 l -146 -35 l -83 -150 l 263 -150 l 263 -75 l 322 -75 l 322 528 l 407 528 l 440 461 l 440 115 l 446 115 l 504 0 z m 617 175 l 500 175 l 500 628 l 442 628 l 442 703 l 207 703 l 207 100 l 147 100 l 147 25 l -86 25 l -86 175 l 89 175 l 89 853 l 500 853 l 500 778 l 558 778 l 558 703 l 617 703 z "},"Ω":{"ha":824,"x_min":0,"x_max":0,"o":"m 793 0 l 793 867 l 560 1290 l 206 1290 l 206 1214 l 147 1214 l 147 1139 l 88 1139 l 88 989 l 29 989 l 29 115 l 93 0 z m 676 175 l 442 175 l 442 401 l 500 401 l 500 478 l 558 478 l 558 929 l 500 929 l 500 1004 l 442 1004 l 442 1079 l 324 1079 l 324 1004 l 265 1004 l 265 929 l 207 929 l 207 478 l 265 478 l 265 401 l 324 401 l 324 175 l 89 175 l 89 326 l 207 326 l 207 401 l 147 401 l 147 478 l 89 478 l 89 929 l 147 929 l 147 1079 l 207 1079 l 207 1156 l 265 1156 l 265 1231 l 500 1231 l 500 1156 l 558 1156 l 558 1079 l 617 1079 l 617 929 l 676 929 l 676 478 l 617 478 l 617 401 l 558 401 l 558 326 l 676 326 z "},"֏":{"ha":824,"x_min":0,"x_max":0,"o":"m 733 0 l 733 150 l 793 150 l 793 715 l 560 1290 l 147 1290 l 147 1214 l 88 1214 l 88 1064 l 29 1064 l 29 793 l 93 678 l 206 678 l 206 267 l 269 150 l 440 150 l 440 115 l 504 0 z m 617 175 l 500 175 l 500 326 l 265 326 l 265 478 l 500 478 l 500 628 l 265 628 l 265 778 l 500 778 l 500 1004 l 442 1004 l 442 1079 l 265 1079 l 265 1004 l 207 1004 l 207 853 l 89 853 l 89 1004 l 147 1004 l 147 1156 l 207 1156 l 207 1231 l 500 1231 l 500 1156 l 558 1156 l 558 1004 l 617 1004 l 617 778 l 676 778 l 676 628 l 617 628 l 617 478 l 676 478 l 676 326 l 617 326 z "},"Ḓ":{"ha":824,"x_min":0,"x_max":0,"o":"m 617 -150 l 617 75 l 675 75 l 675 150 l 733 150 l 733 301 l 793 301 l 793 867 l 560 1290 l 29 1290 l 29 115 l 211 -150 z m 500 25 l 382 25 l 382 100 l 324 100 l 324 25 l 207 25 l 207 100 l 265 100 l 265 175 l 89 175 l 89 1231 l 500 1231 l 500 1156 l 558 1156 l 558 1079 l 617 1079 l 617 929 l 676 929 l 676 478 l 617 478 l 617 326 l 558 326 l 558 250 l 500 250 l 500 175 l 442 175 l 442 100 l 500 100 z m 442 326 l 442 401 l 500 401 l 500 478 l 558 478 l 558 929 l 500 929 l 500 1004 l 442 1004 l 442 1079 l 207 1079 l 207 326 z "},"ḓ":{"ha":824,"x_min":0,"x_max":0,"o":"m 675 -150 l 675 0 l 793 0 l 793 1167 l 736 1290 l 499 1290 l 499 913 l 147 913 l 147 838 l 88 838 l 88 763 l 29 763 l 29 267 l 206 10 l 206 -35 l 269 -150 z m 558 25 l 442 25 l 442 100 l 382 100 l 382 25 l 265 25 l 265 100 l 324 100 l 324 175 l 207 175 l 207 250 l 147 250 l 147 326 l 89 326 l 89 703 l 147 703 l 147 778 l 207 778 l 207 853 l 500 853 l 500 778 l 558 778 l 558 1231 l 676 1231 l 676 175 l 500 175 l 500 100 l 558 100 z m 558 326 l 558 628 l 442 628 l 442 703 l 265 703 l 265 628 l 207 628 l 207 401 l 265 401 l 265 326 z "},"Ḥ":{"ha":824,"x_min":0,"x_max":0,"o":"m 793 0 l 793 1167 l 736 1290 l 499 1290 l 499 838 l 322 838 l 322 1167 l 267 1290 l 29 1290 l 29 115 l 93 0 l 264 0 l 264 -110 l 328 -225 l 557 -225 l 557 0 z m 676 175 l 558 175 l 558 628 l 207 628 l 207 175 l 89 175 l 89 1231 l 207 1231 l 207 778 l 558 778 l 558 1231 l 676 1231 z m 440 -50 l 324 -50 l 324 100 l 440 100 z "},"ḥ":{"ha":765,"x_min":0,"x_max":0,"o":"m 528 -225 l 528 0 l 733 0 l 733 639 l 560 913 l 322 913 l 322 1167 l 267 1290 l 29 1290 l 29 115 l 93 0 l 236 0 l 236 -110 l 299 -225 z m 617 175 l 500 175 l 500 628 l 442 628 l 442 703 l 265 703 l 265 628 l 207 628 l 207 175 l 89 175 l 89 1231 l 207 1231 l 207 778 l 265 778 l 265 853 l 500 853 l 500 778 l 558 778 l 558 703 l 617 703 z m 413 -50 l 296 -50 l 296 100 l 413 100 z "},"Ḽ":{"ha":765,"x_min":0,"x_max":0,"o":"m 675 -225 l 675 -37 l 656 0 l 793 0 l 793 263 l 736 385 l 322 385 l 322 1167 l 267 1290 l 29 1290 l 29 115 l 93 0 l 206 0 l 206 -110 l 269 -225 z m 676 175 l 89 175 l 89 1231 l 207 1231 l 207 326 l 676 326 z m 558 -50 l 442 -50 l 442 25 l 383 25 l 383 -50 l 265 -50 l 265 25 l 324 25 l 324 100 l 500 100 l 500 25 l 558 25 z "},"ḽ":{"ha":529,"x_min":0,"x_max":0,"o":"m 528 -225 l 528 -37 l 508 0 l 558 0 l 558 263 l 501 385 l 439 385 l 439 1167 l 383 1290 l 88 1290 l 88 1019 l 147 911 l 147 385 l 29 385 l 29 115 l 58 67 l 58 -110 l 122 -225 z m 442 175 l 89 175 l 89 326 l 207 326 l 207 1079 l 147 1079 l 147 1231 l 324 1231 l 324 326 l 442 326 z m 413 -50 l 296 -50 l 296 25 l 236 25 l 236 -50 l 118 -50 l 118 25 l 178 25 l 178 100 l 354 100 l 354 25 l 413 25 z "},"Ṅ":{"ha":824,"x_min":0,"x_max":0,"o":"m 793 0 l 793 1167 l 736 1290 l 558 1290 l 501 1442 l 264 1442 l 264 1290 l 29 1290 l 29 115 l 93 0 l 322 0 l 322 418 l 563 0 z m 676 175 l 558 175 l 558 250 l 500 250 l 500 401 l 442 401 l 442 478 l 382 478 l 382 628 l 324 628 l 324 778 l 265 778 l 265 929 l 207 929 l 207 175 l 89 175 l 89 1231 l 207 1231 l 207 1156 l 265 1156 l 265 1004 l 324 1004 l 324 929 l 382 929 l 382 778 l 442 778 l 442 628 l 500 628 l 500 478 l 558 478 l 558 1231 l 676 1231 z m 442 1231 l 324 1231 l 324 1382 l 442 1382 z "},"ṅ":{"ha":765,"x_min":0,"x_max":0,"o":"m 733 0 l 733 639 l 560 913 l 499 913 l 499 1017 l 442 1139 l 206 1139 l 206 913 l 29 913 l 29 115 l 93 0 l 322 0 l 322 528 l 407 528 l 440 461 l 440 115 l 504 0 z m 617 175 l 500 175 l 500 628 l 442 628 l 442 703 l 207 703 l 207 175 l 89 175 l 89 853 l 500 853 l 500 778 l 558 778 l 558 703 l 617 703 z m 382 929 l 265 929 l 265 1079 l 382 1079 z "},"Ṋ":{"ha":824,"x_min":0,"x_max":0,"o":"m 675 -225 l 675 -37 l 656 0 l 793 0 l 793 1167 l 736 1290 l 499 1290 l 499 867 l 267 1290 l 29 1290 l 29 115 l 93 0 l 206 0 l 206 -110 l 269 -225 z m 676 175 l 558 175 l 558 250 l 500 250 l 500 401 l 442 401 l 442 478 l 382 478 l 382 628 l 324 628 l 324 778 l 265 778 l 265 929 l 207 929 l 207 175 l 89 175 l 89 1231 l 207 1231 l 207 1156 l 265 1156 l 265 1004 l 324 1004 l 324 929 l 382 929 l 382 778 l 442 778 l 442 628 l 500 628 l 500 478 l 558 478 l 558 1231 l 676 1231 z m 558 -50 l 442 -50 l 442 25 l 383 25 l 383 -50 l 265 -50 l 265 25 l 324 25 l 324 100 l 500 100 l 500 25 l 558 25 z "},"ṋ":{"ha":765,"x_min":0,"x_max":0,"o":"m 617 -225 l 617 -37 l 597 0 l 733 0 l 733 639 l 560 913 l 29 913 l 29 115 l 93 0 l 147 0 l 147 -110 l 211 -225 z m 617 175 l 500 175 l 500 628 l 442 628 l 442 703 l 207 703 l 207 175 l 89 175 l 89 853 l 500 853 l 500 778 l 558 778 l 558 703 l 617 703 z m 500 -50 l 383 -50 l 383 25 l 325 25 l 325 -50 l 207 -50 l 207 25 l 265 25 l 265 100 l 442 100 l 442 25 l 500 25 z "},"Ṛ":{"ha":824,"x_min":0,"x_max":0,"o":"m 793 0 l 793 263 l 676 450 l 676 453 l 733 453 l 733 528 l 793 528 l 793 1017 l 618 1290 l 29 1290 l 29 115 l 93 0 l 264 0 l 264 -110 l 328 -225 l 557 -225 l 557 0 z m 676 175 l 558 175 l 558 250 l 500 250 l 500 326 l 442 326 l 442 401 l 382 401 l 382 478 l 324 478 l 324 553 l 207 553 l 207 175 l 89 175 l 89 1231 l 558 1231 l 558 1156 l 617 1156 l 617 1079 l 676 1079 l 676 703 l 617 703 l 617 628 l 558 628 l 558 553 l 500 553 l 500 478 l 558 478 l 558 401 l 617 401 l 617 326 l 676 326 z m 500 703 l 500 778 l 558 778 l 558 1004 l 500 1004 l 500 1079 l 207 1079 l 207 703 z m 440 -50 l 324 -50 l 324 100 l 440 100 z "},"ṛ":{"ha":706,"x_min":0,"x_max":0,"o":"m 321 -225 l 321 0 l 322 0 l 322 453 l 381 453 l 381 528 l 465 528 l 504 453 l 733 453 l 733 715 l 618 913 l 29 913 l 29 -110 l 93 -225 z m 207 175 l 89 175 l 89 853 l 207 853 l 207 778 l 265 778 l 265 853 l 558 853 l 558 778 l 617 778 l 617 628 l 500 628 l 500 703 l 265 703 l 265 628 l 207 628 z m 206 -50 l 89 -50 l 89 100 l 206 100 z "},"Ṣ":{"ha":824,"x_min":0,"x_max":0,"o":"m 557 -225 l 557 0 l 675 0 l 675 75 l 733 75 l 733 150 l 793 150 l 793 564 l 676 754 l 793 754 l 793 1017 l 618 1290 l 147 1290 l 147 1214 l 88 1214 l 88 1139 l 29 1139 l 29 718 l 144 538 l 29 538 l 29 267 l 211 0 l 264 0 l 264 -110 l 328 -225 z m 558 175 l 207 175 l 207 250 l 147 250 l 147 326 l 89 326 l 89 478 l 207 478 l 207 401 l 265 401 l 265 326 l 500 326 l 500 401 l 558 401 l 558 553 l 500 553 l 500 628 l 207 628 l 207 703 l 147 703 l 147 778 l 89 778 l 89 1079 l 147 1079 l 147 1156 l 207 1156 l 207 1231 l 558 1231 l 558 1156 l 617 1156 l 617 1079 l 676 1079 l 676 929 l 558 929 l 558 1004 l 500 1004 l 500 1079 l 265 1079 l 265 1004 l 207 1004 l 207 853 l 265 853 l 265 778 l 558 778 l 558 703 l 617 703 l 617 628 l 676 628 l 676 326 l 617 326 l 617 250 l 558 250 z m 440 -50 l 324 -50 l 324 100 l 440 100 z "},"ṣ":{"ha":706,"x_min":0,"x_max":0,"o":"m 499 -225 l 499 0 l 617 0 l 617 75 l 675 75 l 675 715 l 560 913 l 88 913 l 88 838 l 29 838 l 29 493 l 89 385 l 29 385 l 29 190 l 151 0 l 206 0 l 206 -110 l 269 -225 z m 500 175 l 147 175 l 147 250 l 89 250 l 89 326 l 442 326 l 442 478 l 147 478 l 147 553 l 89 553 l 89 778 l 147 778 l 147 853 l 500 853 l 500 778 l 558 778 l 558 703 l 207 703 l 207 628 l 500 628 l 500 553 l 558 553 l 558 250 l 500 250 z m 382 -50 l 265 -50 l 265 100 l 382 100 z "},"Ṭ":{"ha":706,"x_min":0,"x_max":0,"o":"m 499 -225 l 499 904 l 675 904 l 675 1167 l 618 1290 l 29 1290 l 29 1019 l 93 904 l 206 904 l 206 -110 l 269 -225 z m 382 175 l 265 175 l 265 1079 l 89 1079 l 89 1231 l 558 1231 l 558 1079 l 382 1079 z m 382 -50 l 265 -50 l 265 100 l 382 100 z "},"ṭ":{"ha":647,"x_min":0,"x_max":0,"o":"m 499 -225 l 499 0 l 675 0 l 675 263 l 618 385 l 439 385 l 439 528 l 617 528 l 617 790 l 560 913 l 439 913 l 439 1092 l 383 1214 l 147 1214 l 147 913 l 29 913 l 29 643 l 93 528 l 147 528 l 147 190 l 206 85 l 206 -110 l 269 -225 z m 558 175 l 265 175 l 265 250 l 207 250 l 207 703 l 89 703 l 89 853 l 207 853 l 207 1156 l 324 1156 l 324 853 l 500 853 l 500 703 l 324 703 l 324 326 l 558 326 z m 382 -50 l 265 -50 l 265 100 l 382 100 z "},"Ẁ":{"ha":824,"x_min":0,"x_max":0,"o":"m 793 0 l 793 1167 l 736 1290 l 532 1290 l 442 1442 l 147 1442 l 147 1290 l 29 1290 l 29 115 l 93 0 l 322 0 l 322 75 l 381 75 l 381 225 l 440 225 l 565 0 z m 676 175 l 561 175 l 561 250 l 501 250 l 501 401 l 442 401 l 442 478 l 324 478 l 324 401 l 265 401 l 265 250 l 207 250 l 207 175 l 89 175 l 89 1231 l 207 1231 l 207 478 l 265 478 l 265 553 l 324 553 l 324 703 l 442 703 l 442 553 l 500 553 l 500 478 l 558 478 l 558 1231 l 676 1231 z m 442 1231 l 265 1231 l 265 1306 l 207 1306 l 207 1382 l 382 1382 l 382 1306 l 442 1306 z "},"ẁ":{"ha":824,"x_min":0,"x_max":0,"o":"m 675 0 l 675 75 l 733 75 l 733 225 l 793 225 l 793 790 l 736 913 l 558 913 l 385 1214 l 89 1214 l 89 1019 l 147 913 l 29 913 l 29 342 l 211 0 l 381 0 l 381 75 l 465 75 l 504 0 z m 558 175 l 500 175 l 500 250 l 442 250 l 442 326 l 324 326 l 324 250 l 265 250 l 265 175 l 207 175 l 207 250 l 150 250 l 150 401 l 89 401 l 89 853 l 207 853 l 207 401 l 265 401 l 265 478 l 324 478 l 324 853 l 442 853 l 442 478 l 500 478 l 500 401 l 558 401 l 558 853 l 676 853 l 676 401 l 617 401 l 617 250 l 558 250 z m 442 929 l 265 929 l 265 1004 l 207 1004 l 207 1079 l 149 1079 l 149 1156 l 325 1156 l 325 1079 l 383 1079 l 383 1004 l 442 1004 z "},"Ẃ":{"ha":824,"x_min":0,"x_max":0,"o":"m 793 0 l 793 1167 l 736 1290 l 675 1290 l 618 1442 l 322 1442 l 322 1365 l 264 1365 l 264 1290 l 29 1290 l 29 115 l 93 0 l 322 0 l 322 75 l 381 75 l 381 225 l 442 225 l 565 0 z m 676 175 l 561 175 l 561 250 l 501 250 l 501 401 l 442 401 l 442 478 l 324 478 l 324 401 l 265 401 l 265 250 l 207 250 l 207 175 l 89 175 l 89 1231 l 207 1231 l 207 478 l 265 478 l 265 553 l 324 553 l 324 703 l 442 703 l 442 553 l 500 553 l 500 478 l 558 478 l 558 1231 l 676 1231 z m 500 1231 l 324 1231 l 324 1306 l 382 1306 l 382 1382 l 558 1382 l 558 1306 l 500 1306 z "},"ẃ":{"ha":824,"x_min":0,"x_max":0,"o":"m 675 0 l 675 75 l 733 75 l 733 225 l 793 225 l 793 790 l 735 904 l 735 1092 l 678 1214 l 382 1214 l 382 1139 l 324 1139 l 324 1064 l 264 1064 l 264 913 l 29 913 l 29 342 l 211 0 l 381 0 l 381 75 l 465 75 l 504 0 z m 558 175 l 500 175 l 500 250 l 442 250 l 442 326 l 324 326 l 324 250 l 265 250 l 265 175 l 207 175 l 207 250 l 150 250 l 150 401 l 89 401 l 89 853 l 207 853 l 207 401 l 265 401 l 265 478 l 324 478 l 324 853 l 442 853 l 442 478 l 500 478 l 500 401 l 558 401 l 558 853 l 676 853 l 676 401 l 617 401 l 617 250 l 558 250 z m 500 929 l 324 929 l 324 1004 l 383 1004 l 383 1079 l 442 1079 l 442 1156 l 618 1156 l 618 1079 l 558 1079 l 558 1004 l 500 1004 z "},"Ẅ":{"ha":824,"x_min":0,"x_max":0,"o":"m 793 0 l 793 1167 l 736 1290 l 675 1290 l 618 1442 l 147 1442 l 147 1290 l 29 1290 l 29 115 l 93 0 l 322 0 l 322 75 l 381 75 l 381 225 l 442 225 l 565 0 z m 676 175 l 561 175 l 561 250 l 501 250 l 501 401 l 442 401 l 442 478 l 324 478 l 324 401 l 265 401 l 265 250 l 207 250 l 207 175 l 89 175 l 89 1231 l 207 1231 l 207 478 l 265 478 l 265 553 l 324 553 l 324 703 l 442 703 l 442 553 l 500 553 l 500 478 l 558 478 l 558 1231 l 676 1231 z m 324 1306 l 207 1306 l 207 1382 l 324 1382 z m 558 1306 l 442 1306 l 442 1382 l 558 1382 z "},"ẅ":{"ha":824,"x_min":0,"x_max":0,"o":"m 675 0 l 675 75 l 733 75 l 733 225 l 793 225 l 793 790 l 736 913 l 675 913 l 675 1017 l 618 1139 l 146 1139 l 146 913 l 29 913 l 29 342 l 211 0 l 381 0 l 381 75 l 465 75 l 504 0 z m 558 175 l 500 175 l 500 250 l 442 250 l 442 326 l 324 326 l 324 250 l 265 250 l 265 175 l 207 175 l 207 250 l 150 250 l 150 401 l 89 401 l 89 853 l 207 853 l 207 401 l 265 401 l 265 478 l 324 478 l 324 853 l 442 853 l 442 478 l 500 478 l 500 401 l 558 401 l 558 853 l 676 853 l 676 401 l 617 401 l 617 250 l 558 250 z m 558 929 l 440 929 l 440 1079 l 558 1079 z m 324 929 l 206 929 l 206 1079 l 324 1079 z "},"Ẓ":{"ha":824,"x_min":0,"x_max":0,"o":"m 793 0 l 793 263 l 736 385 l 497 385 l 497 453 l 558 453 l 558 603 l 617 603 l 617 678 l 675 678 l 675 754 l 733 754 l 733 904 l 793 904 l 793 1167 l 736 1290 l 29 1290 l 29 1019 l 93 904 l 322 904 l 322 838 l 264 838 l 264 688 l 206 688 l 206 613 l 147 613 l 147 538 l 88 538 l 88 385 l 29 385 l 29 115 l 93 0 l 264 0 l 264 -110 l 328 -225 l 557 -225 l 557 0 z m 676 175 l 89 175 l 89 326 l 147 326 l 147 478 l 207 478 l 207 553 l 265 553 l 265 628 l 324 628 l 324 778 l 382 778 l 382 853 l 442 853 l 442 929 l 500 929 l 500 1079 l 89 1079 l 89 1231 l 676 1231 l 676 1079 l 617 1079 l 617 929 l 558 929 l 558 853 l 500 853 l 500 778 l 442 778 l 442 628 l 381 628 l 381 553 l 324 553 l 324 478 l 265 478 l 265 326 l 676 326 z m 440 -50 l 324 -50 l 324 100 l 440 100 z "},"ẓ":{"ha":765,"x_min":0,"x_max":0,"o":"m 528 -225 l 528 0 l 733 0 l 733 263 l 676 385 l 558 385 l 558 453 l 617 453 l 617 528 l 675 528 l 675 603 l 733 603 l 733 790 l 676 913 l 29 913 l 29 643 l 93 528 l 147 528 l 147 461 l 88 461 l 88 385 l 29 385 l 29 115 l 93 0 l 236 0 l 236 -110 l 299 -225 z m 617 175 l 89 175 l 89 326 l 147 326 l 147 401 l 207 401 l 207 478 l 265 478 l 265 553 l 324 553 l 324 628 l 382 628 l 382 703 l 89 703 l 89 853 l 617 853 l 617 778 l 558 778 l 558 703 l 500 703 l 500 628 l 442 628 l 442 553 l 382 553 l 382 478 l 324 478 l 324 401 l 265 401 l 265 326 l 617 326 z m 413 -50 l 296 -50 l 296 100 l 413 100 z "},"ẞ":{"ha":940,"x_min":0,"x_max":0,"o":"m 793 0 l 793 75 l 851 75 l 851 150 l 910 150 l 910 564 l 793 751 l 793 829 l 851 829 l 851 904 l 910 904 l 910 1167 l 854 1290 l 147 1290 l 147 1214 l 88 1214 l 88 1139 l 29 1139 l 29 115 l 93 0 z m 676 175 l 324 175 l 324 326 l 617 326 l 617 401 l 676 401 l 676 553 l 617 553 l 617 628 l 324 628 l 324 778 l 382 778 l 382 853 l 442 853 l 442 929 l 500 929 l 500 1004 l 558 1004 l 558 1079 l 265 1079 l 265 1004 l 207 1004 l 207 175 l 89 175 l 89 1079 l 147 1079 l 147 1156 l 207 1156 l 207 1231 l 794 1231 l 794 1079 l 736 1079 l 736 1004 l 676 1004 l 676 929 l 617 929 l 617 853 l 558 853 l 558 778 l 676 778 l 676 703 l 736 703 l 736 628 l 794 628 l 794 326 l 736 326 l 736 250 l 676 250 z "},"Ỳ":{"ha":824,"x_min":0,"x_max":0,"o":"m 558 0 l 558 453 l 617 453 l 617 603 l 675 603 l 675 754 l 733 754 l 733 904 l 793 904 l 793 1167 l 736 1290 l 532 1290 l 442 1442 l 147 1442 l 147 1290 l 29 1290 l 29 1019 l 264 461 l 264 115 l 328 0 z m 442 175 l 324 175 l 324 628 l 265 628 l 265 778 l 207 778 l 207 929 l 147 929 l 147 1079 l 89 1079 l 89 1231 l 207 1231 l 207 1079 l 265 1079 l 265 929 l 324 929 l 324 778 l 442 778 l 442 929 l 500 929 l 500 1079 l 558 1079 l 558 1231 l 676 1231 l 676 1079 l 617 1079 l 617 929 l 558 929 l 558 778 l 500 778 l 500 628 l 442 628 z m 442 1231 l 265 1231 l 265 1306 l 207 1306 l 207 1382 l 382 1382 l 382 1306 l 442 1306 z "},"ỳ":{"ha":706,"x_min":0,"x_max":0,"o":"m 381 -150 l 381 -75 l 439 -75 l 439 75 l 499 75 l 499 225 l 558 225 l 558 376 l 615 376 l 615 528 l 675 528 l 675 790 l 618 913 l 511 913 l 338 1214 l 42 1214 l 42 1019 l 101 913 l 29 913 l 29 643 l 147 342 l 147 160 l 88 160 l 88 -35 l 151 -150 z m 265 25 l 147 25 l 147 100 l 207 100 l 207 250 l 265 250 l 265 401 l 207 401 l 207 553 l 147 553 l 147 703 l 89 703 l 89 853 l 207 853 l 207 703 l 265 703 l 265 553 l 382 553 l 382 703 l 442 703 l 442 853 l 558 853 l 558 703 l 499 703 l 499 553 l 442 553 l 442 401 l 382 401 l 382 250 l 324 250 l 324 100 l 265 100 z m 396 929 l 219 929 l 219 1004 l 160 1004 l 160 1079 l 101 1079 l 101 1156 l 279 1156 l 279 1079 l 338 1079 l 338 1004 l 396 1004 z "},"​":{"ha":0,"x_min":0,"x_max":0,"o":""},"–":{"ha":765,"x_min":0,"x_max":0,"o":"m 793 376 l 793 639 l 736 763 l -29 763 l -29 493 l 33 376 z m 676 553 l 31 553 l 31 703 l 676 703 z "},"—":{"ha":940,"x_min":0,"x_max":0,"o":"m 968 376 l 968 639 l 913 763 l -29 763 l -29 493 l 33 376 z m 853 553 l 31 553 l 31 703 l 853 703 z "},"‘":{"ha":411,"x_min":0,"x_max":0,"o":"m 381 678 l 381 1167 l 325 1290 l 88 1290 l 88 1214 l 29 1214 l 29 793 l 93 678 z m 265 853 l 89 853 l 89 1156 l 147 1156 l 147 1231 l 265 1231 l 265 1156 l 207 1156 l 207 1079 l 265 1079 z "},"’":{"ha":411,"x_min":0,"x_max":0,"o":"m 322 678 l 322 754 l 381 754 l 381 1167 l 325 1290 l 29 1290 l 29 793 l 93 678 z m 207 853 l 89 853 l 89 929 l 147 929 l 147 1004 l 89 1004 l 89 1231 l 265 1231 l 265 929 l 207 929 z "},"‚":{"ha":411,"x_min":0,"x_max":0,"o":"m 322 -150 l 322 -75 l 381 -75 l 381 338 l 325 461 l 29 461 l 29 -35 l 93 -150 z m 207 25 l 89 25 l 89 100 l 147 100 l 147 175 l 89 175 l 89 401 l 265 401 l 265 100 l 207 100 z "},"“":{"ha":647,"x_min":0,"x_max":0,"o":"m 617 678 l 617 1167 l 560 1290 l 88 1290 l 88 1214 l 29 1214 l 29 793 l 93 678 z m 500 853 l 324 853 l 324 1156 l 382 1156 l 382 1231 l 500 1231 l 500 1156 l 442 1156 l 442 1079 l 500 1079 z m 265 853 l 89 853 l 89 1156 l 147 1156 l 147 1231 l 265 1231 l 265 1156 l 207 1156 l 207 1079 l 265 1079 z "},"”":{"ha":647,"x_min":0,"x_max":0,"o":"m 558 678 l 558 754 l 617 754 l 617 1167 l 560 1290 l 29 1290 l 29 793 l 93 678 z m 442 853 l 324 853 l 324 929 l 382 929 l 382 1004 l 324 1004 l 324 1231 l 500 1231 l 500 929 l 442 929 z m 207 853 l 89 853 l 89 929 l 147 929 l 147 1004 l 89 1004 l 89 1231 l 265 1231 l 265 929 l 207 929 z "},"„":{"ha":647,"x_min":0,"x_max":0,"o":"m 558 -150 l 558 -75 l 617 -75 l 617 338 l 560 461 l 29 461 l 29 -35 l 93 -150 z m 442 25 l 324 25 l 324 100 l 382 100 l 382 175 l 324 175 l 324 401 l 500 401 l 500 100 l 442 100 z m 207 25 l 89 25 l 89 100 l 147 100 l 147 175 l 89 175 l 89 401 l 265 401 l 265 100 l 207 100 z "},"†":{"ha":706,"x_min":0,"x_max":0,"o":"m 499 150 l 499 678 l 675 678 l 675 942 l 618 1064 l 499 1064 l 499 1167 l 442 1290 l 206 1290 l 206 1064 l 29 1064 l 29 793 l 93 678 l 206 678 l 206 267 l 269 150 z m 382 326 l 265 326 l 265 853 l 89 853 l 89 1004 l 265 1004 l 265 1231 l 382 1231 l 382 1004 l 558 1004 l 558 853 l 382 853 z "},"‡":{"ha":706,"x_min":0,"x_max":0,"o":"m 499 0 l 499 225 l 675 225 l 675 489 l 618 613 l 499 613 l 499 678 l 675 678 l 675 942 l 618 1064 l 499 1064 l 499 1167 l 442 1290 l 206 1290 l 206 1064 l 29 1064 l 29 793 l 93 678 l 206 678 l 206 613 l 29 613 l 29 342 l 93 225 l 206 225 l 206 115 l 269 0 z m 382 175 l 265 175 l 265 401 l 89 401 l 89 553 l 265 553 l 265 853 l 89 853 l 89 1004 l 265 1004 l 265 1231 l 382 1231 l 382 1004 l 558 1004 l 558 853 l 382 853 l 382 553 l 558 553 l 558 401 l 382 401 z "},"•":{"ha":529,"x_min":0,"x_max":0,"o":"m 499 301 l 499 715 l 442 838 l 29 838 l 29 418 l 93 301 z m 382 478 l 89 478 l 89 778 l 382 778 z "},"…":{"ha":882,"x_min":0,"x_max":0,"o":"m 851 0 l 851 338 l 794 461 l 29 461 l 29 115 l 93 0 z m 500 175 l 324 175 l 324 401 l 500 401 z m 265 175 l 89 175 l 89 401 l 265 401 z m 736 175 l 558 175 l 558 401 l 736 401 z "},"‰":{"ha":824,"x_min":0,"x_max":0,"o":"m 851 0 l 851 338 l 794 461 l 558 461 l 558 528 l 617 528 l 617 603 l 675 603 l 675 678 l 733 678 l 733 754 l 793 754 l 793 829 l 851 829 l 851 1092 l 794 1214 l 558 1214 l 558 1139 l 499 1139 l 499 1064 l 440 1064 l 440 989 l 381 989 l 381 1092 l 325 1214 l 29 1214 l 29 869 l 93 754 l 206 754 l 206 688 l 147 688 l 147 613 l 88 613 l 88 532 l 29 532 l 29 267 l 93 150 l 264 150 l 328 0 z m 207 326 l 89 326 l 89 472 l 147 472 l 147 553 l 207 553 l 207 628 l 265 628 l 265 703 l 324 703 l 324 778 l 382 778 l 382 853 l 442 853 l 442 929 l 500 929 l 500 1004 l 558 1004 l 558 1079 l 617 1079 l 617 1156 l 736 1156 l 736 1004 l 676 1004 l 676 929 l 617 929 l 617 853 l 558 853 l 558 778 l 500 778 l 500 703 l 442 703 l 442 628 l 382 628 l 382 553 l 324 553 l 324 478 l 265 478 l 265 401 l 207 401 z m 265 929 l 89 929 l 89 1156 l 265 1156 z m 500 175 l 324 175 l 324 401 l 500 401 z m 736 175 l 558 175 l 558 401 l 736 401 z "},"‹":{"ha":529,"x_min":0,"x_max":0,"o":"m 499 225 l 499 489 l 439 601 l 439 678 l 499 678 l 499 942 l 442 1064 l 206 1064 l 206 989 l 147 989 l 147 913 l 88 913 l 88 838 l 29 838 l 29 568 l 269 225 z m 382 401 l 265 401 l 265 478 l 207 478 l 207 553 l 147 553 l 147 628 l 89 628 l 89 778 l 147 778 l 147 853 l 207 853 l 207 929 l 265 929 l 265 1004 l 382 1004 l 382 853 l 324 853 l 324 778 l 265 778 l 265 628 l 324 628 l 324 553 l 382 553 z "},"›":{"ha":529,"x_min":0,"x_max":0,"o":"m 322 225 l 322 301 l 381 301 l 381 376 l 439 376 l 439 453 l 499 453 l 499 715 l 267 1064 l 29 1064 l 29 793 l 88 688 l 88 613 l 29 613 l 29 342 l 93 225 z m 207 401 l 89 401 l 89 553 l 147 553 l 147 628 l 207 628 l 207 778 l 147 778 l 147 853 l 89 853 l 89 1004 l 207 1004 l 207 929 l 265 929 l 265 853 l 324 853 l 324 778 l 382 778 l 382 628 l 324 628 l 324 553 l 265 553 l 265 478 l 207 478 z "},"⁄":{"ha":353,"x_min":0,"x_max":0,"o":"m 29 75 l 29 150 l 88 150 l 88 225 l 146 225 l 146 301 l 204 301 l 204 376 l 263 376 l 263 453 l 322 453 l 322 528 l 381 528 l 381 603 l 439 603 l 439 678 l 499 678 l 499 754 l 558 754 l 558 1092 l 501 1214 l 322 1214 l 322 1139 l 264 1139 l 264 1064 l 206 1064 l 206 989 l 147 989 l 147 913 l 88 913 l 88 838 l 29 838 l 29 763 l -29 763 l -29 688 l -87 688 l -87 613 l -146 613 l -146 538 l -206 538 l -206 457 l -264 457 l -264 190 l -201 75 z m -86 250 l -204 250 l -204 397 l -146 397 l -146 478 l -86 478 l -86 553 l -28 553 l -28 628 l 31 628 l 31 703 l 89 703 l 89 778 l 147 778 l 147 853 l 207 853 l 207 929 l 265 929 l 265 1004 l 324 1004 l 324 1079 l 382 1079 l 382 1156 l 442 1156 l 442 929 l 382 929 l 382 853 l 324 853 l 324 778 l 265 778 l 265 703 l 207 703 l 207 628 l 147 628 l 147 553 l 89 553 l 89 478 l 31 478 l 31 401 l -28 401 l -28 326 l -86 326 z "},"₩":{"ha":824,"x_min":0,"x_max":0,"o":"m 793 0 l 793 528 l 851 528 l 851 1017 l 736 1290 l 499 1290 l 499 1139 l 322 1139 l 267 1290 l 29 1290 l 29 1139 l -29 1139 l -29 643 l 29 538 l 29 115 l 93 0 l 322 0 l 322 75 l 381 75 l 381 225 l 443 225 l 565 0 z m 676 175 l 561 175 l 561 250 l 501 250 l 501 401 l 442 401 l 442 478 l 324 478 l 324 401 l 265 401 l 265 250 l 207 250 l 207 175 l 89 175 l 89 703 l 31 703 l 31 853 l 89 853 l 89 929 l 31 929 l 31 1079 l 89 1079 l 89 1231 l 207 1231 l 207 1079 l 558 1079 l 558 1231 l 676 1231 l 676 1079 l 736 1079 l 736 929 l 676 929 l 676 853 l 736 853 l 736 703 l 676 703 z m 558 853 l 558 929 l 207 929 l 207 853 z m 265 478 l 265 553 l 324 553 l 324 703 l 207 703 l 207 478 z m 558 478 l 558 703 l 442 703 l 442 553 l 500 553 l 500 478 z "},"₪":{"ha":882,"x_min":0,"x_max":0,"o":"m 851 0 l 851 942 l 794 1064 l 558 1064 l 558 989 l 532 989 l 501 1064 l 29 1064 l 29 115 l 93 0 l 322 0 l 322 75 l 347 75 l 386 0 z m 736 175 l 382 175 l 382 250 l 324 250 l 324 326 l 265 326 l 265 778 l 381 778 l 381 853 l 207 853 l 207 175 l 89 175 l 89 1004 l 442 1004 l 442 929 l 500 929 l 500 853 l 558 853 l 558 401 l 444 401 l 444 326 l 617 326 l 617 1004 l 736 1004 z m 442 404 l 442 775 l 382 775 l 382 404 z "},"€":{"ha":824,"x_min":0,"x_max":0,"o":"m 675 0 l 675 75 l 733 75 l 733 150 l 793 150 l 793 414 l 736 538 l 675 538 l 675 754 l 793 754 l 793 1017 l 618 1290 l 206 1290 l 206 1214 l 147 1214 l 147 1139 l 88 1139 l 88 989 l 29 989 l 29 418 l 269 0 z m 558 175 l 265 175 l 265 250 l 207 250 l 207 326 l 147 326 l 147 478 l 89 478 l 89 929 l 147 929 l 147 1079 l 207 1079 l 207 1156 l 265 1156 l 265 1231 l 558 1231 l 558 1156 l 617 1156 l 617 1079 l 676 1079 l 676 929 l 558 929 l 558 1004 l 500 1004 l 500 1079 l 324 1079 l 324 1004 l 265 1004 l 265 929 l 207 929 l 207 853 l 558 853 l 558 778 l 207 778 l 207 628 l 558 628 l 558 553 l 207 553 l 207 478 l 265 478 l 265 401 l 324 401 l 324 326 l 500 326 l 500 401 l 558 401 l 558 478 l 676 478 l 676 326 l 617 326 l 617 250 l 558 250 z "}}}
